<svg width="855" height="578" viewBox="0 0 855 578" fill="none" xmlns="http://www.w3.org/2000/svg">
<g clip-path="url(#clip0)">
<path d="M593 268H703V391H593V268Z" fill="#CCCCCC"/>
<path d="M759 576H815L821 528H753L759 576Z" fill="#3F3D56"/>
<path d="M646.55 541.232L648.44 567.067C648.525 568.237 648.36 569.411 647.954 570.511C647.549 571.611 646.913 572.612 646.089 573.446C645.265 574.281 644.272 574.929 643.177 575.348C642.082 575.767 640.91 575.947 639.74 575.877L626.47 575.073C625.855 575.035 625.256 574.863 624.715 574.568C624.174 574.273 623.705 573.863 623.341 573.366C622.977 572.869 622.726 572.298 622.608 571.694C622.489 571.089 622.505 570.466 622.654 569.868L630.02 540.406L646.55 541.232Z" fill="#E6E6E6"/>
<path d="M535.554 556.509C519.937 560.163 508.78 565.356 501.451 572.384C498.841 574.867 495.426 576.331 491.828 576.509C487.231 576.751 483.473 576.236 480.648 574.974H480.648C479.924 574.655 479.299 574.148 478.838 573.506C478.376 572.864 478.095 572.111 478.023 571.323C477.937 570.523 478.067 569.715 478.399 568.982C478.731 568.25 479.254 567.619 479.911 567.156L516.951 540.802L532.684 547.096L536.354 550.766C536.752 551.163 537.051 551.648 537.23 552.18C537.409 552.713 537.461 553.28 537.384 553.837C537.306 554.393 537.101 554.924 536.783 555.388C536.466 555.852 536.045 556.236 535.554 556.509H535.554Z" fill="#E6E6E6"/>
<path d="M583.616 134.695L689.49 133.714C689.224 118.294 685.636 103.151 677.793 89.6005C672.642 80.701 672.754 71.0157 673.995 62.8561C675.91 50.2641 671.456 37.3806 661.558 29.3649C653.994 23.2285 644.447 20.0698 634.715 20.4835L632.659 20.5692C625.963 20.8475 619.444 22.8036 613.7 26.258C607.957 29.7123 603.173 34.5542 599.789 40.339C596.349 46.5146 594.962 53.624 595.827 60.6398C596.499 67.2411 594.893 73.9096 591.137 80.6416C584.657 95.4242 583.254 114.34 583.616 134.695Z" fill="#2F2E41"/>
<path d="M512.782 542.176L533.56 547.597L634.744 327.161L628.42 542.176H649.199C671.402 441.018 711.489 324.27 693.467 287.41L585.959 281.086L512.782 542.176Z" fill="#007FA3"/>
<path d="M635.648 97.6912C620.18 97.6912 607.641 85.1524 607.641 69.6851C607.641 54.2177 620.18 41.6789 635.648 41.6789C651.115 41.6789 663.654 54.2177 663.654 69.6851C663.654 85.1524 651.115 97.6912 635.648 97.6912Z" fill="#FFB9B9"/>
<path d="M611.255 121.18L657.33 118.47C652.814 108.106 651.01 98.1264 652.812 88.657H618.482C618.56 95.9276 614.942 108.504 611.255 121.18Z" fill="#FFB9B9"/>
<path d="M582.346 289.217L683.529 296.445L673.14 117.115L655.523 112.146L635.648 116.663L615.773 106.725L603.125 111.243L582.346 289.217Z" fill="#007FA3"/>
<path d="M666.364 418.407L735.476 402.597C714.925 334.449 677.903 178.546 689.853 122.987L653.716 106.725L666.364 418.407Z" fill="white"/>
<path d="M699.791 221.46L725.99 205.199L703.647 139.759C701.155 133.007 696.382 127.337 690.153 123.731L682.626 119.373L687.143 185.323L699.791 221.46Z" fill="white"/>
<path d="M522.268 403.501C544.081 416.121 598.607 423.156 622.548 414.342C624.309 352.769 627.764 178.603 616.675 104.919L576.925 121.18L580.538 169.965C599.543 211.698 544.359 357.054 522.268 403.501Z" fill="white"/>
<path d="M525.43 213.33L549.823 205.199L582.346 168.158L576.925 121.18L522.72 197.068L525.43 213.33Z" fill="white"/>
<path d="M601.875 248.494C601.476 250.245 600.399 251.767 598.879 252.725C597.36 253.684 595.523 254 593.77 253.606L573.064 248.917L576.057 235.7L596.763 240.389C598.516 240.786 600.039 241.863 600.998 243.383C601.956 244.903 602.272 246.741 601.875 248.494Z" fill="#FFB9B9"/>
<path d="M611.255 62.4576C626.811 56.0611 642.174 55.5982 657.33 61.5542L663.654 38.9686H605.835L611.255 62.4576Z" fill="#2F2E41"/>
<path d="M583.249 233.205L571.505 254.887C551.75 249.378 534.63 232.008 518.202 211.523L522.72 197.068L550.726 204.295L583.249 233.205Z" fill="white"/>
<path d="M591.832 188.485H595.445C595.445 137.375 605.969 101.757 616.224 101.757L617.127 98.1429C607.93 98.1429 602.067 112.967 598.768 125.403C594.295 142.263 591.832 164.666 591.832 188.485Z" fill="#3F3D56"/>
<path d="M674.947 175.837H678.561C678.561 129.028 667.964 99.9498 652.361 99.9498L653.265 103.563C664.057 103.563 674.947 125.911 674.947 175.837Z" fill="#3F3D56"/>
<path d="M593.638 198.423C588.649 198.423 584.604 194.378 584.604 189.389C584.604 184.399 588.649 180.355 593.638 180.355C598.628 180.355 602.672 184.399 602.672 189.389C602.672 194.378 598.628 198.423 593.638 198.423Z" fill="#3F3D56"/>
<path d="M689.401 197.52H693.015C693.015 184.568 685.72 174.031 676.753 174.031V177.644C683.728 177.644 689.401 186.56 689.401 197.52Z" fill="#3F3D56"/>
<path d="M660.492 197.52H664.105C664.105 186.56 669.779 177.644 676.753 177.644V174.031C667.787 174.031 660.492 184.568 660.492 197.52Z" fill="#3F3D56"/>
<path d="M662.298 202.037C660.303 202.037 658.685 200.419 658.685 198.423C658.685 196.427 660.303 194.809 662.298 194.809C664.294 194.809 665.912 196.427 665.912 198.423C665.912 200.419 664.294 202.037 662.298 202.037Z" fill="#3F3D56"/>
<path d="M691.208 202.037C689.212 202.037 687.594 200.419 687.594 198.423C687.594 196.427 689.212 194.809 691.208 194.809C693.204 194.809 694.822 196.427 694.822 198.423C694.822 200.419 693.204 202.037 691.208 202.037Z" fill="#3F3D56"/>
<path d="M736.38 165.193L713.833 169.219L662.299 242.495L689.677 236.053L736.38 165.193Z" fill="#727A9C"/>
<path d="M740.379 164.296C740.722 164.301 741.058 164.398 741.351 164.578C741.644 164.757 741.884 165.012 742.045 165.316C742.205 165.619 742.282 165.961 742.265 166.304C742.249 166.647 742.141 166.98 741.952 167.267L693.781 240.355C693.512 240.763 693.097 241.053 692.621 241.165L670.208 246.438C669.83 246.527 669.434 246.499 669.073 246.358C668.711 246.217 668.401 245.969 668.183 245.647C667.966 245.325 667.852 244.945 667.855 244.557C667.859 244.169 667.98 243.791 668.204 243.474L721.093 168.272C721.236 168.067 721.419 167.892 721.63 167.758C721.84 167.624 722.076 167.532 722.322 167.489L740.017 164.329C740.137 164.307 740.258 164.296 740.379 164.296Z" fill="#3F3D56"/>
<path d="M710.329 216.553L708.99 230.038L687.864 227.941C686.076 227.764 684.431 226.883 683.292 225.493C682.153 224.103 681.613 222.317 681.79 220.529C681.968 218.741 682.849 217.096 684.239 215.957C685.629 214.819 687.414 214.278 689.202 214.456L710.329 216.553Z" fill="#FFB9B9"/>
<path d="M728.7 214.991C728.669 219.589 726.822 223.989 723.562 227.231C720.301 230.474 715.892 232.296 711.293 232.302H707.819L705.29 211.226L726.23 203.688L728.7 214.991Z" fill="white"/>
<path d="M829.38 510.243C814.961 529.554 785.028 531.587 785.028 531.587C785.028 531.587 778.475 502.31 792.895 482.999C807.314 463.688 837.247 461.655 837.247 461.655C837.247 461.655 843.8 490.932 829.38 510.243Z" fill="#7BC0BE"/>
<path d="M755.923 517.503C765.438 530.245 785.19 531.587 785.19 531.587C785.19 531.587 789.514 512.268 779.999 499.525C770.484 486.782 750.733 485.441 750.733 485.441C750.733 485.441 746.408 504.76 755.923 517.503Z" fill="#7BC0BE"/>
<path d="M335 575.656H854.557V577.897H335V575.656Z" fill="#3F3D56"/>
</g>
<defs>
<clipPath id="clip0">
<rect width="854.557" height="577.897" fill="white" transform="matrix(-1 0 0 1 854.557 0)"/>
</clipPath>
</defs>
</svg>
