<svg width="909" height="637" viewBox="0 0 909 637" fill="none" xmlns="http://www.w3.org/2000/svg">
<g clip-path="url(#clip0)">
<path opacity="0.1" d="M302.507 636.642C346.748 636.642 382.612 630.94 382.612 623.906C382.612 616.872 346.748 611.17 302.507 611.17C258.266 611.17 222.401 616.872 222.401 623.906C222.401 630.94 258.266 636.642 302.507 636.642Z" fill="#007FA3"/>
<path opacity="0.1" d="M737.949 637C793.155 637 837.908 631.298 837.908 624.264C837.908 617.23 793.155 611.528 737.949 611.528C682.743 611.528 637.99 617.23 637.99 624.264C637.99 631.298 682.743 637 737.949 637Z" fill="#007FA3"/>
<path opacity="0.1" d="M11.8614 275.23H95.2964V387.804H17.9696C17.7641 388.959 17.5668 390.123 17.353 391.287H95.2964V482.075C95.1567 482.035 95.0333 481.986 94.9018 481.937C92.6986 481.074 90.5118 480.163 88.325 479.186L86.9274 478.56C84.7352 477.534 82.5429 476.449 80.3506 475.305C79.5861 474.906 78.8215 474.491 78.0652 474.068C65.8947 467.319 54.8384 458.767 45.2798 448.709C45.0003 448.441 44.7372 448.156 44.4577 447.895C43.1259 446.463 41.8188 445.015 40.5527 443.533L39.1551 441.906C37.6589 440.091 36.212 438.227 34.8062 436.339C34.6007 436.063 34.4034 435.786 34.1897 435.526C28.4723 427.678 23.7251 419.181 20.0495 410.216C19.9344 409.948 19.8358 409.655 19.7289 409.402C18.5999 406.527 17.5997 403.624 16.7282 400.695C16.3501 399.466 15.9883 398.253 15.6759 396.976C15.5609 396.601 15.4622 396.235 15.3718 395.869C10.7022 377.827 10.1514 359.085 10.1514 340.473C10.1514 338.3 10.1514 336.119 10.1514 333.962C10.1514 326.435 10.2419 318.858 10.3734 311.29C10.3734 309.328 10.4556 307.375 10.4967 305.406C10.6118 300.409 10.7762 295.412 10.99 290.415C11.0393 289.024 11.1051 287.64 11.1791 286.257C11.1791 285.459 11.2202 284.662 11.3024 283.864C11.4997 280.967 11.6641 278.094 11.8614 275.23Z" fill="#007FA3"/>
<path opacity="0.1" d="M95.2964 149.887H49.5301C56.9696 138.36 65.0983 127.284 73.8725 116.716C80.6712 108.448 87.8482 100.391 95.2964 92.6276V149.887Z" fill="#007FA3"/>
<path opacity="0.1" d="M95.2964 153.37V271.747H12.1245C12.1245 271.405 12.1821 271.055 12.2067 270.713C12.2807 269.777 12.3547 268.841 12.4369 267.914C12.5273 266.823 12.626 265.725 12.7329 264.658C12.8397 263.592 12.9548 262.29 13.0781 261.11C13.2015 259.93 13.3166 258.734 13.4563 257.554C13.5961 256.374 13.7194 255.194 13.8674 254.022C14.0153 252.85 14.1469 251.662 14.3031 250.49C14.4264 249.514 14.5579 248.545 14.6895 247.569C14.8785 246.193 15.0759 244.81 15.2896 243.442C15.2896 243.239 15.3471 243.027 15.38 242.832C16.8805 232.824 18.925 222.902 21.5047 213.112C24.2049 202.842 27.6531 192.778 31.822 183.001C36.2529 172.773 41.4407 162.883 47.3433 153.411L95.2964 153.37Z" fill="#007FA3"/>
<path opacity="0.1" d="M115.216 275.222V387.804H293.423V275.222H115.216ZM115.216 391.279V487.959C116.235 488.171 117.246 488.374 118.249 488.545C119.614 488.806 120.971 489.042 122.36 489.245C122.623 489.286 122.894 489.326 123.182 489.351C123.725 489.44 124.284 489.514 124.826 489.587C126.199 489.774 127.564 489.929 128.937 490.051C129.586 490.116 130.244 490.173 130.902 490.222L132.488 490.344C133.351 490.409 134.206 490.458 135.053 490.482C135.579 490.482 136.105 490.531 136.648 490.547C137.059 490.547 137.47 490.547 137.898 490.547C138.325 490.547 138.933 490.547 139.451 490.547C140.158 490.547 140.865 490.547 141.564 490.547H142.51C143.217 490.547 143.924 490.547 144.622 490.482H144.672C145.157 490.482 145.65 490.482 146.143 490.417C146.28 490.425 146.417 490.425 146.554 490.417C146.965 490.417 147.376 490.417 147.771 490.36H148.059L150.813 490.148C151.717 490.067 152.63 489.961 153.55 489.864L155.425 489.644C163.05 488.586 170.591 486.998 177.991 484.891C194.614 480.301 210.876 473.88 227.49 469.177C248.972 463.114 272.706 460.135 293.464 467.549V391.279H115.216ZM293.423 149.887V0.0081209C273.912 -0.201128 254.454 2.05784 235.522 6.73018C190.397 17.9526 149.909 42.2936 115.216 73.3811V149.879H124.16V153.354H115.216V271.747H293.423V153.362H160.884V149.887H293.423ZM522.32 99.2601C511.156 98.8695 500.058 95.3701 490.02 89.9665C470.824 79.6311 455.492 63.6723 438.359 50.2038C402.762 22.1518 358.615 5.22463 313.326 1.02538V149.887H567.725L568.358 149.228L522.32 99.2601ZM545.495 95.1911L570.068 121.884V88.1924C561.839 89.2015 554.629 91.6022 545.528 95.1585L545.495 95.1911ZM570.068 511.967V391.279H517.708C517.568 390.766 517.429 390.245 517.264 389.724C517.42 390.245 517.552 390.766 517.7 391.279H313.359V478.56C315.299 479.984 317.214 481.481 319.113 483.003C321.16 484.631 323.183 486.348 325.213 488.032L327.26 489.709C328.239 490.523 329.225 491.337 330.22 492.102C332.193 493.686 334.185 495.248 336.197 496.789C337.191 497.603 338.211 498.335 339.222 499.1C355.275 511.25 372.209 522.215 389.888 531.905C393.85 534.075 397.849 536.194 401.882 538.261C404.571 539.62 407.275 540.971 409.988 542.281C414.066 544.25 418.176 546.149 422.32 547.978C460.52 564.952 500.914 576.6 542.346 582.589C551.549 583.934 560.786 584.992 570.06 585.763V511.958H570.882L570.068 511.967ZM313.359 153.362V271.747H570.101V153.362H313.359ZM313.359 275.222V387.804H570.101V275.222H313.359ZM590.028 88.0459V125.628L621.391 91.5615C611 89.9014 600.546 88.7159 590.028 88.0052V88.0459ZM590.028 275.262V387.804H839.741V275.222L590.028 275.262ZM838.829 520.902L839.708 391.279H590.028V587.057C606.113 587.726 622.222 587.535 638.286 586.487H638.565C646.238 586.01 653.875 585.315 661.477 584.404H661.65C702.204 579.731 741.859 569.257 779.375 553.308L838.829 520.902ZM887.892 293.76C886.955 291.571 885.976 289.398 884.982 287.25C883.124 283.181 881.159 279.226 879.136 275.271H859.653V387.804H908.913C908.888 355.935 900.741 323.383 887.916 293.72L887.892 293.76ZM859.653 391.32V502.811C873.53 489.644 885.253 474.58 893.696 457.36C903.849 436.624 908.494 414.171 908.872 391.303L859.653 391.32ZM859.653 242.458V271.755H877.311C871.969 261.67 866.083 251.876 859.677 242.417L859.653 242.458ZM690.3 110.133C689.001 109.644 687.702 109.148 686.395 108.668C672.609 103.628 658.522 99.4371 644.213 96.1189L596.219 148.26L595.298 149.228L595.915 149.895H766.731C742.941 133.685 717.293 120.324 690.325 110.092L690.3 110.133ZM771.737 153.403H593.53L590.028 156.577V271.747H620.726H620.775H839.774V215.96C819.964 192.242 797.098 171.197 771.762 153.362L771.737 153.403Z" fill="#007FA3"/>
<path opacity="0.1" d="M95.2964 213.079V271.747H12.1245C12.1245 271.405 12.1821 271.055 12.2067 270.713C12.2807 269.777 12.3547 268.841 12.4369 267.914C12.5273 266.823 12.626 265.725 12.7329 264.658C12.8397 263.592 12.9548 262.29 13.0781 261.11C13.2015 259.93 13.3166 258.734 13.4563 257.554C13.5961 256.374 13.7194 255.194 13.8674 254.022C14.0153 252.85 14.1469 251.662 14.3031 250.49C14.4264 249.514 14.5579 248.545 14.6895 247.569C14.8785 246.193 15.0759 244.81 15.2896 243.442C15.2896 243.239 15.3471 243.027 15.38 242.832C16.8805 232.824 18.925 222.902 21.5047 213.112L95.2964 213.079Z" fill="#007FA3"/>
<path opacity="0.1" d="M11.8614 275.23H95.2964V387.804H17.9696C17.7641 388.959 17.5668 390.123 17.353 391.287H95.2964V482.075C95.1567 482.035 95.0333 481.986 94.9018 481.937C92.6986 481.074 90.5118 480.163 88.325 479.186L86.9274 478.56C84.7352 477.534 82.5429 476.449 80.3506 475.305C79.5861 474.906 78.8215 474.491 78.0652 474.068C65.8947 467.319 54.8384 458.767 45.2798 448.709C45.0003 448.441 44.7372 448.156 44.4577 447.895C43.1259 446.463 41.8188 445.015 40.5527 443.533L39.1551 441.906C37.6589 440.091 36.212 438.227 34.8062 436.339C34.6007 436.063 34.4034 435.786 34.1897 435.526C28.4723 427.678 23.7251 419.181 20.0495 410.216C19.9344 409.948 19.8358 409.655 19.7289 409.402C18.5999 406.527 17.5997 403.624 16.7282 400.695C16.3501 399.466 15.9883 398.253 15.6759 396.976C15.5609 396.601 15.4622 396.235 15.3718 395.869C10.7022 377.827 10.1514 359.085 10.1514 340.473C10.1514 338.3 10.1514 336.119 10.1514 333.962C10.1514 326.435 10.2419 318.858 10.3734 311.29C10.3734 309.328 10.4556 307.375 10.4967 305.406C10.6118 300.409 10.7762 295.412 10.99 290.415C11.0393 289.024 11.1051 287.64 11.1791 286.257C11.1791 285.459 11.2202 284.662 11.3024 283.864C11.4997 280.967 11.6641 278.094 11.8614 275.23Z" fill="#007FA3"/>
<path opacity="0.1" d="M177.95 170.314V271.747H115.216V170.314H124.16V135.971H160.875V170.314H177.95Z" fill="#007FA3"/>
<path opacity="0.1" d="M177.95 275.222H115.224V387.796H177.95V275.222Z" fill="#007FA3"/>
<path opacity="0.1" d="M115.216 391.287H177.95V484.875C170.55 486.98 163.009 488.565 155.384 489.619L153.509 489.847C152.589 489.953 151.676 490.043 150.772 490.132C149.867 490.222 148.93 490.287 148.018 490.344H147.73C147.335 490.344 146.908 490.392 146.521 490.401H146.102C145.609 490.401 145.116 490.449 144.622 490.466C143.924 490.506 143.225 490.515 142.51 490.523C142.205 490.523 141.918 490.523 141.614 490.523C140.907 490.523 140.208 490.523 139.501 490.523H137.947C137.528 490.523 137.125 490.523 136.689 490.523L135.102 490.466C134.28 490.466 133.393 490.376 132.538 490.319L130.959 490.205L128.994 490.026C127.613 489.904 126.24 489.75 124.884 489.562L123.24 489.335L122.417 489.221C121.045 489.009 119.688 488.781 118.307 488.521C117.296 488.35 116.293 488.138 115.273 487.935L115.216 391.287Z" fill="#007FA3"/>
<path opacity="0.1" d="M570.101 158.334H518.374V271.739H570.101V158.334Z" fill="#007FA3"/>
<path opacity="0.1" d="M570.109 275.222V387.804H313.359V339.244H450.115V367.89H518.374V275.222H570.109Z" fill="#007FA3"/>
<path opacity="0.1" d="M570.923 511.991H570.1V585.844C560.838 585.068 551.603 584.013 542.396 582.678C500.942 576.671 460.532 564.998 422.32 547.994C411.287 543.078 400.479 537.713 389.896 531.897C372.218 522.202 355.281 511.237 339.222 499.092C335.188 496.032 331.206 492.902 327.277 489.701C324.556 487.479 321.851 485.2 319.113 482.987C317.214 481.465 315.299 479.968 313.359 478.535V391.287H517.692C517.552 390.766 517.412 390.245 517.264 389.733C517.42 390.245 517.568 390.766 517.708 391.287H570.1V511.942C570.38 511.95 570.651 511.975 570.923 511.991Z" fill="#007FA3"/>
<path opacity="0.1" d="M705.007 149.887H671.301V139.519H686.411V108.635C687.721 109.107 689.026 109.593 690.325 110.092V139.519H705.007V149.887Z" fill="#007FA3"/>
<path opacity="0.1" d="M786.214 271.747H620.742C620.742 271.747 620.742 271.747 620.8 271.787L620.726 271.747H590.028V158.343H598.726V242.165H638.475V192.523H671.309V153.37H705.015V192.555H737.85V242.197H786.214V271.747Z" fill="#007FA3"/>
<path opacity="0.1" d="M590.028 275.222V387.804H786.214V275.222H590.028ZM839.47 520.324L839.741 431.212H786.214V391.336H590.028V587.057C606.113 587.725 622.222 587.535 638.286 586.487H638.565C646.238 586.009 653.875 585.315 661.477 584.404H661.65C702.204 579.731 741.859 569.257 779.375 553.308" fill="#007FA3"/>
<path opacity="0.1" d="M863.138 391.287H908.905C908.502 414.147 903.865 436.6 893.721 457.336C885.278 474.564 873.546 489.628 859.686 502.787V431.172H863.138V391.287Z" fill="#007FA3"/>
<path opacity="0.1" d="M908.929 387.804H863.138V293.72H887.916C900.741 323.383 908.888 355.935 908.929 387.804Z" fill="#007FA3"/>
<path opacity="0.1" d="M570.109 189.861H542.396V225.417H570.109V189.861Z" fill="#007FA3"/>
<path opacity="0.1" d="M570.109 263.56H542.396V271.747H570.109V263.56Z" fill="#007FA3"/>
<path opacity="0.1" d="M570.109 275.222H542.396V299.107H570.109V275.222Z" fill="#007FA3"/>
<path opacity="0.1" d="M570.109 337.258H542.396V372.814H570.109V337.258Z" fill="#007FA3"/>
<path opacity="0.1" d="M570.109 410.957H542.396V446.512H570.109V410.957Z" fill="#007FA3"/>
<path opacity="0.1" d="M570.101 511.942C570.38 511.942 570.651 511.942 570.923 511.991H570.101V520.251H542.396V484.655H570.101V511.942Z" fill="#007FA3"/>
<path opacity="0.1" d="M570.101 558.337V585.803C560.838 585.028 551.603 583.972 542.396 582.638V558.337H570.101Z" fill="#007FA3"/>
<path opacity="0.1" d="M432.127 385.192H313.359V387.804H432.127V385.192Z" fill="#007FA3"/>
<path opacity="0.1" d="M432.127 391.279H313.359V401.289H432.127V391.279Z" fill="#007FA3"/>
<path opacity="0.1" d="M432.127 434.101H313.359V450.199H432.127V434.101Z" fill="#007FA3"/>
<path opacity="0.1" d="M432.119 483.011V499.108H339.222C335.188 496.059 331.204 492.929 327.268 489.717C324.547 487.495 321.851 485.217 319.105 483.011H432.119Z" fill="#007FA3"/>
<path opacity="0.1" d="M432.119 531.913V547.994H422.312C411.29 543.073 400.485 537.705 389.896 531.889L432.119 531.913Z" fill="#007FA3"/>
<path opacity="0.1" d="M661.674 286.135H638.294V309.28H661.674V286.135Z" fill="#007FA3"/>
<path opacity="0.1" d="M155.441 178.297H132.061V201.442H155.441V178.297Z" fill="#007FA3"/>
<path opacity="0.1" d="M155.441 232.057H132.061V255.202H155.441V232.057Z" fill="#007FA3"/>
<path opacity="0.1" d="M155.441 285.817H132.061V308.962H155.441V285.817Z" fill="#007FA3"/>
<path opacity="0.1" d="M155.441 339.57H132.061V362.714H155.441V339.57Z" fill="#007FA3"/>
<path opacity="0.1" d="M155.441 393.33H132.061V416.474H155.441V393.33Z" fill="#007FA3"/>
<path opacity="0.1" d="M155.441 447.09H132.061V470.234H155.441V447.09Z" fill="#007FA3"/>
<path opacity="0.1" d="M750.93 286.135H727.549V309.28H750.93V286.135Z" fill="#007FA3"/>
<path opacity="0.1" d="M661.674 343.224H638.294V366.368H661.674V343.224Z" fill="#007FA3"/>
<path opacity="0.1" d="M750.93 343.224H727.549V366.368H750.93V343.224Z" fill="#007FA3"/>
<path opacity="0.1" d="M661.674 400.304H638.294V423.449H661.674V400.304Z" fill="#007FA3"/>
<path opacity="0.1" d="M750.93 400.304H727.549V423.449H750.93V400.304Z" fill="#007FA3"/>
<path opacity="0.1" d="M661.674 457.393H638.294V480.537H661.674V457.393Z" fill="#007FA3"/>
<path opacity="0.1" d="M750.93 457.393H727.549V480.537H750.93V457.393Z" fill="#007FA3"/>
<path opacity="0.1" d="M661.674 514.481H638.294V537.626H661.674V514.481Z" fill="#007FA3"/>
<path opacity="0.1" d="M750.93 514.481H727.549V537.626H750.93V514.481Z" fill="#007FA3"/>
<path opacity="0.1" d="M638.294 586.487V571.562H661.666V584.363L638.294 586.487Z" fill="#007FA3"/>
<path opacity="0.1" d="M15.2813 242.816V256.056H95.2964V242.816H15.2813ZM23.2557 255.226H16.7282V243.63H23.305L23.2557 255.226ZM31.2218 255.226H24.645V243.63H31.2218V255.226ZM39.1716 255.226H32.5948V243.63H39.1716V255.226ZM47.1377 255.226H40.5691V243.63H47.1459L47.1377 255.226ZM55.0956 255.226H48.5188V243.63H55.0956V255.226ZM63.0618 255.226H56.485V243.63H63.0618V255.226ZM71.028 255.226H64.4511V243.63H71.028V255.226ZM78.9859 255.226H72.4091V243.63H78.9859V255.226ZM86.9438 255.226H80.367V243.63H86.9438V255.226ZM94.9017 255.226H88.3249V243.63H94.9017V255.226Z" fill="#007FA3"/>
<path opacity="0.1" d="M15.2813 281.342V294.582H95.2964V281.342H15.2813ZM23.2557 293.744H16.7282V282.18H23.305L23.2557 293.744ZM31.2218 293.744H24.645V282.18H31.2218V293.744ZM39.1716 293.744H32.5948V282.18H39.1716V293.744ZM47.1377 293.744H40.5691V282.18H47.1459L47.1377 293.744ZM55.0956 293.744H48.5188V282.18H55.0956V293.744ZM63.0618 293.744H56.485V282.18H63.0618V293.744ZM71.028 293.744H64.4511V282.18H71.028V293.744ZM78.9859 293.744H72.4091V282.18H78.9859V293.744ZM86.9438 293.744H80.367V282.18H86.9438V293.744ZM94.9017 293.744H88.3249V282.18H94.9017V293.744Z" fill="#007FA3"/>
<path opacity="0.1" d="M15.2813 319.883V333.149H95.2964V319.883H15.2813ZM23.2557 332.286H16.7282V320.714H23.305L23.2557 332.286ZM31.2218 332.286H24.645V320.714H31.2218V332.286ZM39.1716 332.286H32.5948V320.714H39.1716V332.286ZM47.1377 332.286H40.5691V320.714H47.1459L47.1377 332.286ZM55.0956 332.286H48.5188V320.714H55.0956V332.286ZM63.0618 332.286H56.485V320.714H63.0618V332.286ZM71.028 332.286H64.4511V320.714H71.028V332.286ZM78.9859 332.286H72.4091V320.714H78.9859V332.286ZM86.9438 332.286H80.367V320.714H86.9438V332.286ZM94.9017 332.286H88.3249V320.714H94.9017V332.286Z" fill="#007FA3"/>
<path opacity="0.1" d="M15.2813 358.425V371.65H95.2964V358.425H15.2813ZM23.2557 370.828H16.7282V359.247H23.305L23.2557 370.828ZM31.2218 370.828H24.645V359.247H31.2218V370.828ZM39.1716 370.828H32.5948V359.247H39.1716V370.828ZM47.1377 370.828H40.5691V359.247H47.1459L47.1377 370.828ZM55.0956 370.828H48.5188V359.247H55.0956V370.828ZM63.0618 370.828H56.485V359.247H63.0618V370.828ZM71.028 370.828H64.4511V359.247H71.028V370.828ZM78.9859 370.828H72.4091V359.247H78.9859V370.828ZM86.9438 370.828H80.367V359.247H86.9438V370.828ZM94.9017 370.828H88.3249V359.247H94.9017V370.828Z" fill="#007FA3"/>
<path opacity="0.1" d="M15.6266 396.959C15.9473 398.204 16.309 399.449 16.6872 400.678V397.789H23.264V409.362H19.7454C19.8522 409.63 19.9591 409.923 20.066 410.175H95.2964V396.959H15.6266ZM31.2466 409.362H24.6698V397.789H31.2466V409.362ZM39.1963 409.362H32.6195V397.789H39.1963V409.362ZM47.1624 409.362H40.5692V397.789H47.146L47.1624 409.362ZM55.1204 409.362H48.5436V397.789H55.1204V409.362ZM63.0865 409.362H56.5097V397.789H63.0865V409.362ZM71.0527 409.362H64.4759V397.789H71.0527V409.362ZM79.0106 409.362H72.4338V397.789H79.0106V409.362ZM86.9685 409.362H80.3917V397.789H86.9685V409.362ZM94.9265 409.362H88.3497V397.789H94.9265V409.362Z" fill="#007FA3"/>
<path opacity="0.1" d="M34.2061 435.501C34.4116 435.762 34.6089 436.055 34.8226 436.315H39.1715V441.873C39.6401 442.427 40.1005 442.98 40.5773 443.501V436.282H47.1541V447.895H44.4905C44.7536 448.164 45.0085 448.449 45.3126 448.709H95.321V435.501H34.2061ZM55.0956 447.895H48.5188V436.331H55.0956V447.895ZM63.0618 447.895H56.485V436.331H63.0618V447.895ZM71.028 447.895H64.4511V436.331H71.028V447.895ZM78.9859 447.895H72.4091V436.331H78.9859V447.895ZM86.9438 447.895H80.367V436.331H86.9438V447.895ZM94.9017 447.895H88.3249V436.331H94.9017V447.895Z" fill="#007FA3"/>
<path opacity="0.1" d="M78.0981 474.035C78.8462 474.458 79.6107 474.849 80.3835 475.272V474.865H86.9603V478.527L88.3579 479.17V474.865H94.9347V481.904C95.0608 481.967 95.193 482.016 95.3293 482.051V474.035H78.0981Z" fill="#007FA3"/>
<path opacity="0.1" d="M620.742 271.747H620.791H620.742ZM570.101 511.934H570.923H570.101ZM517.264 389.724C517.42 390.245 517.552 390.766 517.7 391.279C517.568 390.766 517.429 390.245 517.264 389.724ZM620.742 271.722H620.791H620.742ZM124.193 149.863V153.338H160.916V149.863H124.193ZM570.101 511.934H570.923H570.101ZM517.264 389.724C517.42 390.245 517.552 390.766 517.7 391.279C517.568 390.766 517.429 390.245 517.264 389.724ZM620.742 271.722H620.791H620.742ZM570.101 511.91H570.923H570.101ZM517.264 389.724C517.42 390.245 517.552 390.766 517.7 391.279C517.568 390.766 517.429 390.245 517.264 389.724Z" fill="#007FA3"/>
<path d="M379.965 308.978C379.965 308.978 376.726 308.531 376.726 303.86C376.726 299.188 374.408 290.464 374.408 290.464C374.408 290.424 372.402 275.271 369.631 272.862C366.861 270.453 363.301 256.309 363.301 256.309C363.301 256.309 362.693 248.635 361.451 246.983C360.21 245.331 358.533 241.286 356.058 235.516C353.584 229.746 343.267 225.75 343.267 225.75C343.267 225.75 324.613 215.041 319.327 211.549C318.846 211.262 318.397 210.927 317.987 210.548C317.066 209.352 313.054 209.328 313.054 209.328C312.635 206.707 312.232 203.696 312.101 200.97C312.101 200.677 312.101 200.384 312.06 200.091C317.954 196.642 322.394 191.204 324.564 184.775C324.662 184.466 324.745 184.14 324.835 183.831C325.188 183.716 325.513 183.529 325.789 183.282C326.065 183.036 326.286 182.735 326.438 182.399C326.915 181.349 326.923 180.12 327.515 179.144C328.206 177.988 329.521 177.369 330.557 176.499C333.171 174.301 333.845 170.599 333.722 167.229C333.64 164.503 333.196 161.752 333.368 159.042L333.418 158.359C333.467 157.952 333.525 157.545 333.599 157.154C334.001 155.136 334.881 153.232 335.374 151.23C335.868 149.228 335.917 146.974 334.766 145.248C333.081 142.717 329.57 142.213 326.487 141.953C322.994 141.66 319.87 142.042 317.633 139.169C316.587 137.668 315.41 136.26 314.115 134.962C313.654 134.539 309.182 131.837 309.182 131.658C304.817 129.657 299.87 129.281 295.248 130.6C292.929 131.267 290.743 132.358 288.391 132.903C283.319 134.091 277.482 132.805 273.174 135.678C270.774 137.306 269.335 139.894 267.987 142.416C266.891 144.494 265.778 146.57 264.649 148.642C262.832 152.052 260.983 155.519 260.218 159.295C260.057 160.116 259.958 160.949 259.922 161.785V161.826C259.922 162.127 259.922 162.428 259.922 162.729V163.112C259.922 163.396 259.922 163.673 259.971 163.925C260.021 164.178 260.012 164.259 260.037 164.43C260.062 164.601 260.103 164.983 260.152 165.244C260.202 165.504 260.3 165.96 260.399 166.318C260.44 166.473 260.497 166.619 260.547 166.765C260.629 167.042 260.728 167.311 260.835 167.579C260.892 167.718 260.95 167.864 261.015 168.003C261.139 168.287 261.287 168.564 261.435 168.816C261.5 168.93 261.55 169.036 261.616 169.142C261.845 169.52 262.097 169.884 262.372 170.232C264.131 172.405 266.721 173.789 268.636 175.823C268.636 175.905 268.636 175.986 268.636 176.059C268.636 176.287 268.636 176.507 268.636 176.735C268.738 181.272 269.958 185.716 272.19 189.68C274.422 193.645 277.599 197.009 281.445 199.481C281.445 199.79 281.486 200.107 281.502 200.416C281.662 202.832 281.632 205.256 281.412 207.667C281.077 207.277 280.658 206.966 280.185 206.758C279.713 206.549 279.199 206.449 278.682 206.463C278.329 206.446 277.975 206.476 277.63 206.553L277.556 206.496V206.569C275.747 207.008 273.52 208.872 271.39 214.17C271.39 214.17 264.912 221.396 259.98 221.095C255.047 220.794 242.559 228.615 242.559 228.615C242.559 228.615 230.376 236.444 227.761 244.419C226.3 248.941 224.548 253.367 222.516 257.668L207.456 288.389L204.677 312.763C204.677 312.763 206.214 323.603 205.91 325.255C205.606 326.907 212.232 341.807 212.232 341.807C212.232 341.807 234.125 379.886 243.069 381.839L243.71 381.391C244.093 381.589 244.499 381.739 244.919 381.839L246.76 380.553C246.871 381.986 246.824 383.427 246.62 384.85C245.387 388.61 247.081 413.146 249.235 417.955C251.389 422.765 250.624 485.827 250.624 485.827L250.32 491.393C250.32 491.393 250.32 491.573 250.394 491.882L250.32 493.2L250.542 493.314C250.772 495.08 250.697 496.871 250.32 498.612C249.547 501.053 249.235 507.954 249.235 507.954C249.235 507.954 243.077 546.92 245.996 554.748C248.914 562.577 251.397 571.155 251.397 571.155C251.397 571.155 254.48 580.921 251.545 582.589C248.61 584.257 240.266 587.057 241.984 591.126C243.546 594.885 249.473 604.96 250.353 606.433L250.279 607.207L249.07 620.17C249.266 621.882 249.735 623.552 250.46 625.118C251.783 627.942 254.356 630.872 259.248 630.555C260.07 630.498 261.024 630.4 261.944 630.278C270.897 629.09 281.921 625.135 281.921 625.135C281.349 624.775 280.824 624.346 280.359 623.857C279.919 623.435 279.571 622.929 279.335 622.369C279.099 621.81 278.98 621.208 278.987 620.602C279.118 618.242 274.654 606.995 273.544 604.228C273.372 603.829 273.281 603.601 273.281 603.601C273.281 603.601 283.459 593.071 281.765 583.736C281.765 583.736 270.502 577.226 274.21 573.653C277.918 570.081 284.544 559.818 284.544 559.818C284.544 559.818 284.848 521.447 284.544 515.718C284.227 511.742 284.417 507.741 285.111 503.812C285.234 503.218 285.382 502.64 285.539 502.071C290.666 502.828 295.843 503.217 301.027 503.234C302.918 503.234 304.842 503.234 306.782 503.12C306.782 503.663 306.806 504.249 306.856 504.878C307.283 514.384 308.081 531.05 308.73 537.243C309.651 546.122 314.74 570.048 314.74 570.048C314.74 570.048 305.031 576.217 316.433 591.419C316.433 591.419 316.433 596.928 315.677 597.726C314.869 600.333 314.219 602.985 313.728 605.668C313.252 608.533 313.054 611.43 313.827 612.936C315.677 616.533 326.775 616.24 326.775 616.24L327.046 616.191C329.142 615.977 331.259 616.176 333.276 616.778C335.292 617.38 337.168 618.373 338.794 619.698C343.012 623.051 359.018 621.578 367.683 620.512C371.078 620.089 373.347 619.698 373.347 619.698C373.457 619.318 373.496 618.921 373.462 618.527C373.372 616.419 371.703 611.796 360.391 607.67C360.391 607.67 349.753 600.59 349.901 594.422H349.679H348.446C349.342 594.373 349.917 594.422 349.917 594.422C349.917 594.422 345.749 579.366 347.451 578.145C349.153 576.925 344.056 560.242 344.056 560.242C344.056 560.242 341.137 532.247 340.981 530.285C340.988 528.602 341.245 526.93 341.746 525.321L340.981 509.973C340.981 509.973 340.833 504.87 340.981 503.21C340.956 501.769 340.838 500.331 340.628 498.905C340.554 498.335 340.48 497.741 340.397 497.155C344.385 496.154 346.974 495.226 346.974 495.226L346.514 441.8C349.901 435.29 350.526 421.007 350.509 410.875C350.509 404.365 350.213 399.547 350.213 399.547L354.842 392.068C354.842 392.068 355.91 383.116 354.217 381.155C353.469 380.268 353.806 379.348 354.422 378.592C354.743 378.34 355.081 378.112 355.434 377.908C355.434 377.908 355.384 377.835 355.327 377.729C355.65 377.462 355.993 377.219 356.354 377.005C356.354 377.005 354.71 374.482 356.182 373.416C357.563 374.343 358.796 375.043 359.733 375.613C359.667 376.207 359.602 376.549 359.602 376.549L359.996 375.735C360.901 376.24 361.451 376.549 361.451 376.549C361.451 376.549 368.702 362.25 368.546 360.143C368.39 358.035 373.479 349.156 373.479 349.156C373.479 349.156 374.095 344.493 376.874 342.54C379.653 340.587 379.028 326.435 379.028 326.435C379.028 326.435 379.801 319.062 381.65 316.05C383.5 313.039 379.965 308.978 379.965 308.978ZM241.227 302.704L241.367 306.114C240.545 304.804 239.953 303.86 239.953 303.86L241.227 302.704Z" fill="url(#paint0_linear)"/>
<path d="M361.846 370.372L360.07 377.859C360.07 377.859 345.848 370.673 343.283 361.542C340.718 352.411 347.574 348.945 347.574 348.945L360.827 354.503L361.846 370.372Z" fill="white"/>
<path opacity="0.1" d="M361.846 370.372L360.07 377.859C360.07 377.859 345.848 370.673 343.283 361.542C340.718 352.411 347.574 348.945 347.574 348.945L360.827 354.503L361.846 370.372Z" fill="black"/>
<path d="M282.028 625.183C282.028 625.183 268.875 629.969 259.832 630.571C255.03 630.888 252.507 627.975 251.208 625.167C250.498 623.606 250.04 621.945 249.851 620.244L251.027 607.345L251.652 600.476L270.864 595.536L273.585 603.772L273.84 604.399C274.934 607.15 279.315 618.339 279.184 620.675C279.178 621.273 279.295 621.866 279.527 622.418C279.758 622.971 280.1 623.471 280.532 623.89C280.973 624.382 281.476 624.817 282.028 625.183Z" fill="white"/>
<path d="M371.876 618.624C371.909 619.016 371.87 619.41 371.761 619.788C371.761 619.788 343.628 624.435 337.874 619.788C336.251 618.43 334.36 617.424 332.321 616.832C330.282 616.241 328.141 616.078 326.035 616.354C326.035 616.354 315.151 616.647 313.334 613.099C312.578 611.609 312.775 608.72 313.243 605.872C313.722 603.203 314.358 600.564 315.151 597.97L315.586 597.628L318.176 595.569L348.495 594.682H348.725C348.577 600.818 359.018 607.858 359.018 607.858C370.108 611.927 371.744 616.525 371.876 618.624Z" fill="white"/>
<path opacity="0.1" d="M371.876 618.624C371.904 619.016 371.863 619.41 371.752 619.788C371.752 619.788 343.628 624.435 337.874 619.788C336.252 618.432 334.362 617.425 332.325 616.834C330.288 616.243 328.148 616.079 326.044 616.354C326.044 616.354 315.151 616.647 313.342 613.098C312.586 611.601 312.775 608.72 313.243 605.872C317.436 606.287 324.054 607.32 326.652 609.786C330.582 613.538 337.241 617.281 341.326 617.574C344.524 617.778 363.655 618.38 371.876 618.624Z" fill="black"/>
<path opacity="0.1" d="M282.028 625.183C282.028 625.183 268.875 629.969 259.832 630.571C255.031 630.888 252.507 627.975 251.216 625.159C254.562 626.274 259.207 627.446 261.648 626.372C264.542 625.102 274.802 624.28 280.557 623.93C280.995 624.405 281.489 624.826 282.028 625.183Z" fill="black"/>
<path d="M301.545 239.561C290.693 235.386 276.734 221.592 280.22 215.146C280.994 213.52 281.454 211.764 281.576 209.971C281.8 207.535 281.833 205.087 281.675 202.646C281.43 198.65 280.944 194.671 280.22 190.732C280.22 190.732 314.098 191.489 312.125 196.429C311.55 197.877 311.459 200.392 311.616 203.208C311.772 206.024 312.183 209.206 312.61 211.899C313.202 215.594 313.794 218.41 313.794 218.41C313.794 218.41 311.723 221.283 310.506 221.437C309.289 221.592 317.116 245.51 301.545 239.561Z" fill="#CF6F80"/>
<path opacity="0.1" d="M273.816 604.399L273.561 604.676C263.432 592.55 251.183 607.662 251.183 607.662L251.002 607.345L251.627 600.476L270.84 595.536L273.561 603.772L273.816 604.399Z" fill="black"/>
<path opacity="0.1" d="M348.734 595.536C348.734 595.536 341.335 595.382 337.389 598.832C333.442 602.283 314.37 599.581 315.192 598.832C315.435 598.461 315.582 598.036 315.619 597.595L318.209 595.536L348.528 594.649C348.643 595.195 348.734 595.536 348.734 595.536Z" fill="black"/>
<path d="M286.418 500.313C285.867 501.661 285.449 503.06 285.169 504.488C284.483 508.399 284.293 512.379 284.602 516.337C284.906 522.033 284.602 560.209 284.602 560.209C284.602 560.209 278.099 570.39 274.473 573.979C270.848 577.568 281.872 584.013 281.872 584.013C283.516 593.29 273.552 603.772 273.552 603.772C263.424 591.646 251.175 606.767 251.175 606.767C251.175 606.767 244.516 595.374 242.855 591.305C241.195 587.236 249.358 584.42 252.227 582.768C255.096 581.116 252.087 571.375 252.087 571.375C252.087 571.375 249.662 562.838 246.785 555.05C243.908 547.261 249.958 508.492 249.958 508.492C249.958 508.492 250.271 501.607 251.019 499.206C251.396 497.474 251.471 495.69 251.241 493.933C251.191 493.338 251.134 492.842 251.093 492.508C251.052 492.175 251.019 492.02 251.019 492.02L251.134 491.825L255.244 484.24C255.244 484.24 288.391 495.536 286.418 500.313Z" fill="#007FA3"/>
<path d="M348.734 594.641C348.734 594.641 341.335 594.487 337.389 597.897C333.443 601.306 314.37 598.645 315.192 597.897C316.014 597.148 315.948 591.606 315.948 591.606C304.759 576.485 314.304 570.349 314.304 570.349C314.304 570.349 309.306 546.545 308.401 537.715C307.768 531.547 306.987 514.969 306.568 505.505C306.387 501.436 306.28 498.636 306.28 498.636L315.422 496.813L316.598 496.577L338.646 492.199C338.646 492.199 339.255 496.268 339.666 499.597C339.871 501.018 339.986 502.45 340.011 503.885C339.863 505.513 340.011 510.607 340.011 510.607L340.759 525.883C340.27 527.485 340.018 529.149 340.011 530.823C340.159 532.768 343.028 560.616 343.028 560.616C343.028 560.616 348.018 577.234 346.317 578.43C344.615 579.627 348.734 594.641 348.734 594.641Z" fill="#007FA3"/>
<path opacity="0.1" d="M312.125 196.429C311.55 197.877 311.46 200.392 311.616 203.208C307.078 205.913 301.861 207.296 296.565 207.198C291.268 207.1 286.108 205.525 281.675 202.654C281.431 198.655 280.945 194.674 280.22 190.732C280.22 190.732 314.098 191.473 312.125 196.429Z" fill="black"/>
<path d="M325.222 178.444C325.228 181.376 324.762 184.291 323.84 187.078C321.781 193.323 317.557 198.646 311.916 202.106C306.275 205.567 299.58 206.942 293.014 205.988C286.448 205.035 280.434 201.815 276.035 196.896C271.636 191.978 269.134 185.678 268.973 179.111C268.973 178.883 268.973 178.672 268.973 178.444C268.91 174.747 269.59 171.075 270.975 167.641C272.36 164.208 274.421 161.081 277.04 158.445C279.658 155.808 282.78 153.714 286.225 152.285C289.669 150.855 293.367 150.119 297.102 150.119C300.836 150.119 304.534 150.855 307.978 152.285C311.423 153.714 314.545 155.808 317.163 158.445C319.782 161.081 321.843 164.208 323.228 167.641C324.613 171.075 325.294 174.747 325.23 178.444H325.222Z" fill="#CF6F80"/>
<path opacity="0.1" d="M301.545 239.561C290.693 235.386 276.734 221.592 280.22 215.146C280.994 213.52 281.454 211.764 281.576 209.971L296.431 222.056L305.623 229.518L312.61 211.907C313.202 215.602 313.794 218.418 313.794 218.418C313.794 218.418 311.723 221.291 310.506 221.445C309.289 221.6 317.116 245.51 301.545 239.561Z" fill="black"/>
<path d="M339.962 292.971L327.556 499.271L311.377 500.321L269.483 380.699L276.356 238.682L277.803 208.677L296.432 223.822L305.631 231.284L312.824 213.161L326.2 224.701L339.962 292.971Z" fill="#007FA3"/>
<path opacity="0.1" d="M286.418 500.313C285.867 501.661 285.449 503.06 285.169 504.488C273.396 502.688 261.963 499.152 251.249 493.998L251.027 493.884L251.101 492.574L251.142 491.89L255.253 484.305C255.253 484.305 288.391 495.536 286.418 500.313Z" fill="black"/>
<path opacity="0.1" d="M315.611 504.52C312.602 505.027 309.566 505.369 306.519 505.546C306.338 501.477 306.231 498.677 306.231 498.677L315.373 496.854L315.611 504.52Z" fill="black"/>
<path opacity="0.1" d="M339.617 499.637C333.771 501.143 324.745 502.836 316.663 501.778L316.548 496.618L338.597 492.24C338.597 492.24 339.205 496.268 339.617 499.637Z" fill="black"/>
<path opacity="0.1" d="M316.515 502.722C282.809 508.418 251.939 492.085 251.939 492.085L252.235 486.551C252.235 486.551 253 423.815 250.879 419.005C248.758 414.196 247.105 389.806 248.306 386.062C249.506 382.319 243.924 326.182 243.924 326.182L243.02 303.396L209.922 290.123L224.72 259.588C226.718 255.307 228.437 250.904 229.866 246.405C232.439 238.478 244.384 230.69 244.384 230.69C244.384 230.69 256.634 222.91 261.476 223.203C266.318 223.496 272.665 216.318 272.665 216.318C277.351 204.494 281.593 209.848 281.593 209.848C281.593 210.41 281.593 209.849 281.362 211.598C279.718 224.578 307.949 265.594 308.352 266.319L311.04 331.147L313.761 413.187L316.515 502.722Z" fill="black"/>
<path d="M315.611 502.722C281.905 508.418 251.027 492.085 251.027 492.085L251.331 486.551C251.331 486.551 252.096 423.815 249.966 419.005C247.837 414.196 246.193 389.806 247.401 386.062C248.61 382.319 243.02 326.182 243.02 326.182L242.107 303.396L208.993 290.074L223.791 259.54C225.785 255.257 227.504 250.853 228.937 246.356C231.502 238.429 243.455 230.641 243.455 230.641C243.455 230.641 255.705 222.861 260.539 223.154C265.373 223.447 271.727 216.269 271.727 216.269C276.422 204.445 281.593 209.8 281.593 209.8C281.593 210.361 281.099 210.613 281.362 211.549C284.98 224.139 307.045 265.546 307.448 266.27L310.169 331.098L312.89 413.138L315.611 502.722Z" fill="white"/>
<path opacity="0.1" d="M306.527 268.117C302.902 266.62 283.697 244.915 283.697 244.915V239.976C282.998 238.348 278.847 239.341 275.476 240.48L276.923 210.475L278.567 211.826C282.168 224.408 306.108 267.393 306.527 268.117Z" fill="black"/>
<path d="M307.439 266.319C303.806 264.821 284.601 243.117 284.601 243.117V238.177C283.903 236.55 279.751 237.542 276.38 238.682L277.836 208.677L279.48 210.028C283.089 222.609 307.037 265.602 307.439 266.319Z" fill="white"/>
<path opacity="0.1" d="M251.939 374.563C252.392 374.563 275.377 372.171 275.377 372.171C275.377 372.171 289.296 399.262 288.383 405.854C287.471 412.446 285.818 418.281 280.22 417.247C274.621 416.214 250.09 418.061 250.09 418.061L251.939 374.563Z" fill="black"/>
<path d="M251.027 372.765C251.479 372.765 274.465 370.372 274.465 370.372C274.465 370.372 288.375 397.472 287.471 404.056C286.566 410.639 284.897 416.482 279.307 415.449C273.717 414.415 249.177 416.263 249.177 416.263L251.027 372.765Z" fill="white"/>
<path d="M268.349 360.045C268.349 360.045 289.444 371.267 289.896 374.693C290.348 378.12 279.159 373.196 276.742 372.602C275.151 372.222 273.532 371.972 271.9 371.853L255.779 372.285L268.349 360.045Z" fill="#CF6F80"/>
<path opacity="0.1" d="M300.641 269.517C301.867 269.517 302.86 268.533 302.86 267.32C302.86 266.106 301.867 265.122 300.641 265.122C299.415 265.122 298.421 266.106 298.421 267.32C298.421 268.533 299.415 269.517 300.641 269.517Z" fill="black"/>
<path d="M300.641 268.622C301.867 268.622 302.86 267.638 302.86 266.424C302.86 265.211 301.867 264.227 300.641 264.227C299.415 264.227 298.421 265.211 298.421 266.424C298.421 267.638 299.415 268.622 300.641 268.622Z" fill="#3F3D56"/>
<path opacity="0.1" d="M304.726 364.635C305.952 364.635 306.946 363.651 306.946 362.437C306.946 361.224 305.952 360.24 304.726 360.24C303.501 360.24 302.507 361.224 302.507 362.437C302.507 363.651 303.501 364.635 304.726 364.635Z" fill="black"/>
<path d="M304.726 363.731C305.952 363.731 306.946 362.748 306.946 361.534C306.946 360.321 305.952 359.337 304.726 359.337C303.501 359.337 302.507 360.321 302.507 361.534C302.507 362.748 303.501 363.731 304.726 363.731Z" fill="#3F3D56"/>
<path opacity="0.1" d="M302.852 317.076C304.078 317.076 305.072 316.092 305.072 314.879C305.072 313.665 304.078 312.681 302.852 312.681C301.626 312.681 300.632 313.665 300.632 314.879C300.632 316.092 301.626 317.076 302.852 317.076Z" fill="black"/>
<path d="M302.852 316.181C304.078 316.181 305.072 315.197 305.072 313.983C305.072 312.77 304.078 311.786 302.852 311.786C301.626 311.786 300.632 312.77 300.632 313.983C300.632 315.197 301.626 316.181 302.852 316.181Z" fill="#3F3D56"/>
<path d="M354.02 371.398C354.02 371.398 355.532 373.644 354.02 374.693C352.507 375.743 354.168 378.282 354.168 378.282C354.168 378.282 350.394 380.471 352.055 382.441C353.715 384.41 352.663 393.305 352.663 393.305L348.125 400.743C348.125 400.743 348.396 405.537 348.413 412.015C348.413 422.122 347.813 436.331 344.491 442.809L344.952 495.959C344.952 495.959 329.061 501.704 315.759 499.955L313.786 414.668C313.786 414.668 316.663 366.303 317.724 357.026C318.344 352.209 318.597 347.353 318.48 342.499C318.48 342.499 318.028 327.981 316.507 321.243C316.507 321.243 314.863 292.051 314.699 283.97C314.625 280.105 314.83 268.825 315.06 258.099C315.315 246.372 315.603 235.313 315.603 235.313L312.602 211.81C312.602 211.81 315.603 211.509 316.507 212.705C316.912 213.08 317.353 213.415 317.822 213.706C323.002 217.173 341.302 227.834 341.302 227.834C341.302 227.834 351.43 231.821 353.855 237.534C356.28 243.247 357.966 247.3 359.141 248.928C360.317 250.555 360.958 258.205 360.958 258.205C360.958 258.205 364.444 272.284 367.165 274.668C369.886 277.053 371.876 292.222 371.876 292.222L347.829 310.94C347.829 310.94 345.716 342.076 345.264 343.28C344.812 344.485 354.02 371.398 354.02 371.398Z" fill="white"/>
<path d="M354.932 371.398C354.932 371.398 356.437 373.644 354.932 374.693C353.428 375.743 355.072 378.282 355.072 378.282C355.072 378.282 351.323 380.496 352.967 382.465C354.612 384.435 353.576 393.33 353.576 393.33L349.038 400.768C349.038 400.768 349.309 405.561 349.334 412.039C349.334 422.147 348.734 436.356 345.412 442.834L345.864 495.983C345.864 495.983 329.949 501.729 316.663 499.979L314.699 414.692C314.699 414.692 317.576 366.327 318.636 357.05C319.258 352.234 319.508 347.378 319.385 342.524C319.385 342.524 318.932 328.005 317.42 321.267C317.42 321.267 315.776 292.076 315.603 283.995C315.529 280.129 315.743 268.85 315.965 258.124C316.219 246.397 316.507 235.337 316.507 235.337L312.545 211.517C312.545 211.517 316.507 211.517 317.42 212.729C317.821 213.108 318.262 213.444 318.735 213.73C323.914 217.197 342.222 227.858 342.222 227.858C342.222 227.858 352.343 231.846 354.768 237.559C357.193 243.272 358.878 247.324 360.062 248.952C361.246 250.58 361.871 258.229 361.871 258.229C361.871 258.229 365.356 272.308 368.078 274.693C370.799 277.077 372.764 292.214 372.764 292.214L348.717 310.932C348.717 310.932 346.604 342.068 346.144 343.272C345.684 344.477 354.932 371.398 354.932 371.398Z" fill="white"/>
<path opacity="0.1" d="M326.134 242.246L328.304 248.513L316.877 259.906C317.132 248.187 317.42 237.119 317.42 237.119L313.457 213.299C313.457 213.299 317.42 213.299 318.332 214.512C318.732 214.89 319.174 215.223 319.648 215.504L329.365 243.255L326.134 242.246Z" fill="black"/>
<path d="M325.222 240.448L327.4 246.714L315.973 258.107C316.228 246.38 316.515 235.321 316.515 235.321L312.545 211.501C312.545 211.501 316.515 211.501 317.42 212.713C317.823 213.09 318.264 213.425 318.735 213.714L328.461 241.457L325.222 240.448Z" fill="white"/>
<path opacity="0.1" d="M325.222 178.444C325.228 181.376 324.762 184.291 323.84 187.078C323.685 187.102 323.526 187.095 323.374 187.057C323.221 187.02 323.078 186.952 322.953 186.858C322.739 179.534 319.097 172.657 314.616 166.806C313.359 165.04 311.833 163.475 310.095 162.167C308.337 160.861 306.151 160.248 303.962 160.45C301.496 160.784 299.317 162.444 296.826 162.656C293.538 162.924 290.595 160.67 287.331 160.556C286.004 160.569 284.695 160.861 283.492 161.414C282.288 161.967 281.217 162.768 280.351 163.763C278.637 165.77 277.363 168.11 276.611 170.631C275.318 174.455 274.614 178.449 274.523 182.48C274.481 184.759 274.259 187.615 272.122 188.445C272.283 186.77 272.091 185.079 271.557 183.481C271.024 181.882 270.161 180.411 269.023 179.16L268.973 179.111C268.973 178.883 268.973 178.672 268.973 178.444C268.91 174.747 269.59 171.075 270.975 167.641C272.36 164.208 274.421 161.081 277.04 158.445C279.658 155.808 282.78 153.714 286.225 152.285C289.669 150.855 293.367 150.119 297.102 150.119C300.836 150.119 304.534 150.855 307.978 152.285C311.423 153.714 314.545 155.808 317.163 158.445C319.782 161.081 321.843 164.208 323.228 167.641C324.613 171.075 325.294 174.747 325.23 178.444H325.222Z" fill="black"/>
<path d="M308.747 134.229C304.475 132.24 299.616 131.864 295.083 133.172C292.806 133.839 290.66 134.921 288.35 135.466C283.418 136.646 277.663 135.369 273.429 138.225C271.078 139.853 269.664 142.425 268.349 144.923L265.06 151.124C263.268 154.518 261.459 157.968 260.711 161.704C259.963 165.439 260.415 169.622 262.808 172.625C264.55 174.814 267.124 176.189 269.014 178.248C270.147 179.501 271.007 180.971 271.538 182.568C272.07 184.164 272.263 185.852 272.106 187.526C274.251 186.712 274.457 183.847 274.506 181.569C274.598 177.538 275.302 173.543 276.594 169.72C277.345 167.197 278.619 164.858 280.335 162.851C281.202 161.857 282.272 161.057 283.476 160.504C284.679 159.951 285.988 159.658 287.314 159.645C290.603 159.759 293.554 162.005 296.81 161.736C299.276 161.533 301.463 159.864 303.946 159.539C306.135 159.334 308.322 159.946 310.078 161.256C311.816 162.562 313.339 164.126 314.592 165.895C319.08 171.746 322.722 178.606 322.936 185.947C323.865 186.622 325.205 185.744 325.665 184.702C326.126 183.66 326.142 182.439 326.726 181.447C327.4 180.299 328.691 179.689 329.702 178.826C332.267 176.637 332.908 172.95 332.809 169.606C332.711 166.261 332.053 162.867 332.694 159.58C333.081 157.561 333.952 155.673 334.429 153.679C334.906 151.686 334.963 149.448 333.837 147.731C332.193 145.208 328.732 144.711 325.715 144.475C322.287 144.182 319.22 144.557 317.033 141.7C316.007 140.21 314.852 138.81 313.581 137.517C313.145 137.094 308.747 134.409 308.747 134.229Z" fill="#512E4E"/>
<path opacity="0.1" d="M219.392 305.845L210.801 290.123L208.08 314.382C208.08 314.382 209.593 325.157 209.289 326.809C208.985 328.461 215.487 343.272 215.487 343.272C215.487 343.272 236.969 381.147 245.741 383.1L275.377 362.136L267.518 352.257C267.518 352.257 264.797 351.207 264.115 352.257C264.115 352.257 249.522 327.403 248.01 325.605C246.497 323.806 246.793 320.217 246.793 320.217C246.793 320.217 244.524 317.825 245.28 315.578C246.037 313.332 240.899 305.544 240.899 305.544L245.585 301.207L219.392 305.845Z" fill="black"/>
<path d="M211.254 288.332L208.985 290.123L206.263 314.382C206.263 314.382 207.776 325.157 207.472 326.809C207.168 328.461 213.679 343.272 213.679 343.272C213.679 343.272 235.152 381.147 243.924 383.1L273.569 362.136L265.701 352.257C265.701 352.257 262.98 351.207 262.298 352.257C262.298 352.257 247.706 327.403 246.193 325.605C244.68 323.806 244.984 320.217 244.984 320.217C244.984 320.217 242.715 317.825 243.472 315.578C244.228 313.332 239.082 305.544 239.082 305.544L243.768 301.207L211.254 288.332Z" fill="white"/>
<path opacity="0.1" d="M352.055 383.369C353.699 385.346 352.663 394.225 352.663 394.225L348.125 401.663C348.125 401.663 348.396 406.464 348.413 412.934L340.784 415.294C340.094 415.507 339.363 415.554 338.652 415.431C337.94 415.308 337.269 415.018 336.694 414.585C336.119 414.153 335.656 413.59 335.345 412.945C335.034 412.3 334.883 411.59 334.906 410.875L336.221 368.875L354.02 375.613C352.507 376.655 354.168 379.21 354.168 379.21C354.168 379.21 350.394 381.391 352.055 383.369Z" fill="black"/>
<path d="M352.967 382.465C354.611 384.443 353.576 393.33 353.576 393.33L349.038 400.768C349.038 400.768 349.309 405.561 349.334 412.039L341.565 414.44C340.89 414.648 340.174 414.693 339.478 414.571C338.781 414.45 338.124 414.166 337.561 413.742C336.998 413.318 336.546 412.768 336.241 412.136C335.937 411.505 335.789 410.81 335.81 410.11L337.134 367.979L354.94 374.718C353.419 375.76 355.08 378.307 355.08 378.307C355.08 378.307 351.323 380.496 352.967 382.465Z" fill="white"/>
<path d="M358.862 362.446C358.862 362.446 357.653 370.087 354.628 370.535C351.603 370.982 350.246 382.897 347.229 382.473C344.212 382.05 346.21 371.398 346.317 369.33C346.423 367.263 343.028 358.702 345.568 356.757C348.109 354.812 356.149 356.757 356.149 356.757L358.862 362.446Z" fill="#CF6F80"/>
<path opacity="0.1" d="M365.299 303.599L371.004 292.206C371.004 292.206 373.273 300.889 373.273 305.528C373.273 310.167 376.447 310.622 376.447 310.622C376.447 310.622 379.924 314.691 378.091 317.654C376.257 320.616 375.518 327.989 375.518 327.989C375.518 327.989 376.118 342.06 373.397 344.005C370.675 345.95 370.108 350.597 370.108 350.597C370.108 350.597 365.11 359.426 365.266 361.526C365.422 363.626 358.311 377.843 358.311 377.843C358.311 377.843 361.788 360.175 341.524 352.542C341.524 352.542 341.367 346.544 342.88 344.9C344.393 343.256 346.752 342.507 345.272 334.198C343.793 325.889 344.845 315.961 344.845 313.967C344.845 311.973 349.383 299.538 349.383 299.538L365.299 303.599Z" fill="black"/>
<path d="M367.765 290.578L372.747 292.206C372.747 292.206 375.024 300.889 375.024 305.528C375.024 310.167 378.198 310.622 378.198 310.622C378.198 310.622 381.675 314.691 379.842 317.654C378.009 320.616 377.277 327.989 377.277 327.989C377.277 327.989 377.877 342.06 375.156 344.005C372.435 345.95 371.826 350.597 371.826 350.597C371.826 350.597 366.836 359.426 366.992 361.526C367.149 363.626 360.029 377.843 360.029 377.843C360.029 377.843 363.515 360.175 343.242 352.542C343.242 352.542 343.094 346.544 344.607 344.9C346.119 343.256 348.479 342.507 346.999 334.198C345.519 325.889 346.571 315.961 346.571 313.967C346.571 311.973 351.109 299.538 351.109 299.538L367.765 290.578Z" fill="white"/>
<path opacity="0.1" d="M257.727 585.885C257.727 585.885 265.668 580.945 270.881 584.534C276.093 588.123 257.727 585.885 257.727 585.885Z" fill="black"/>
<path opacity="0.1" d="M319.434 570.61C319.434 570.61 326.463 569.714 332.366 576.005C338.268 582.296 319.434 570.61 319.434 570.61Z" fill="black"/>
<g opacity="0.1">
<path opacity="0.1" d="M329.718 177.044C328.707 177.907 327.408 178.525 326.734 179.673C326.159 180.657 326.142 181.87 325.682 182.928C325.221 183.986 323.881 184.848 322.952 184.181C322.739 176.857 319.089 169.98 314.608 164.121C313.355 162.352 311.833 160.787 310.095 159.482C308.335 158.172 306.145 157.56 303.954 157.765C301.487 158.098 299.317 159.759 296.826 159.962C293.538 160.239 290.586 157.985 287.323 157.871C285.996 157.884 284.688 158.177 283.486 158.732C282.283 159.286 281.215 160.088 280.351 161.085C278.635 163.089 277.361 165.426 276.611 167.946C275.319 171.769 274.615 175.764 274.522 179.795C274.473 182.065 274.259 184.897 272.138 185.744C272.188 186.345 272.188 186.949 272.138 187.55C274.276 186.736 274.49 183.872 274.539 181.593C274.63 177.562 275.334 173.568 276.627 169.744C277.377 167.222 278.651 164.882 280.368 162.875C281.233 161.882 282.302 161.081 283.504 160.529C284.706 159.976 286.014 159.683 287.339 159.669C290.627 159.783 293.587 162.029 296.842 161.761C299.309 161.557 301.496 159.889 303.97 159.563C306.162 159.359 308.352 159.971 310.111 161.28C311.849 162.586 313.372 164.151 314.625 165.919C319.105 171.77 322.755 178.631 322.969 185.971C323.898 186.647 325.238 185.768 325.698 184.726C326.159 183.685 326.175 182.464 326.75 181.471C327.425 180.324 328.724 179.713 329.735 178.851C332.3 176.661 332.941 172.975 332.842 169.63C332.842 169.524 332.842 169.419 332.842 169.321C332.686 172.218 331.905 175.172 329.718 177.044Z" fill="black"/>
<path opacity="0.1" d="M269.031 176.466C267.14 174.407 264.559 173.032 262.824 170.851C261.363 168.92 260.529 166.596 260.432 164.186C260.173 167.198 261.023 170.201 262.824 172.641C264.559 174.83 267.14 176.206 269.031 178.265C270.846 180.279 271.936 182.831 272.13 185.524C272.256 183.885 272.046 182.238 271.514 180.682C270.981 179.126 270.137 177.692 269.031 176.466Z" fill="black"/>
<path opacity="0.1" d="M334.446 151.897C333.961 153.891 333.097 155.787 332.703 157.797C332.469 159.141 332.383 160.505 332.448 161.866C332.475 161.091 332.56 160.318 332.703 159.555C333.097 157.537 333.961 155.649 334.446 153.655C334.729 152.555 334.821 151.416 334.717 150.286C334.666 150.829 334.576 151.367 334.446 151.897Z" fill="black"/>
</g>
<path opacity="0.1" d="M109.601 618.974C153.842 618.974 189.706 613.272 189.706 606.238C189.706 599.204 153.842 593.502 109.601 593.502C65.3599 593.502 29.4955 599.204 29.4955 606.238C29.4955 613.272 65.3599 618.974 109.601 618.974Z" fill="#007FA3"/>
<path d="M112.182 362.258H107.028V477.144H112.182V362.258Z" fill="#535461"/>
<path d="M144.573 476.794L144.252 481.97L143.792 489.294L143.603 492.337L143.151 499.662L142.954 502.705L142.493 510.03L137.297 593.095C137.072 596.669 135.479 600.023 132.843 602.476C130.206 604.928 126.725 606.294 123.108 606.295H96.0938C92.4772 606.294 88.9972 604.928 86.3625 602.475C83.7277 600.023 82.1364 596.668 81.9126 593.095L76.7416 509.973L76.2812 502.648L76.0921 499.605L75.6317 492.281L75.4426 489.237L74.9823 481.913L74.6534 476.737C74.5963 475.741 74.7454 474.743 75.0916 473.806C75.4377 472.869 75.9737 472.012 76.6665 471.287C77.3593 470.563 78.1944 469.986 79.1206 469.592C80.0467 469.198 81.0444 468.996 82.0523 468.998H137.306C138.31 469.006 139.302 469.218 140.22 469.621C141.138 470.024 141.963 470.608 142.644 471.339C143.325 472.069 143.847 472.93 144.179 473.869C144.511 474.807 144.645 475.802 144.573 476.794Z" fill="#3F3D56"/>
<path d="M144.252 481.97L143.792 489.269H75.4097L74.9493 481.97H144.252Z" fill="#9D9CB5"/>
<path d="M143.603 492.313L143.151 499.621H76.0593L75.5989 492.313H143.603Z" fill="#9D9CB5"/>
<path d="M142.954 502.673L142.501 509.973H76.7087L76.2483 502.673H142.954Z" fill="#9D9CB5"/>
<path d="M67.0886 405.317C97.1035 426.818 109.632 460.444 109.632 460.444C109.632 460.444 73.4599 459.216 43.4368 437.715C13.4136 416.214 0.909485 382.596 0.909485 382.596C0.909485 382.596 37.0655 383.816 67.0886 405.317Z" fill="#7BC0BE"/>
<path d="M0.884399 382.596C0.884399 382.596 38.438 403.226 50.4818 420.307C62.5255 437.389 109.632 460.444 109.632 460.444" stroke="#535461" stroke-width="2" stroke-miterlimit="10"/>
<path d="M86.4588 362.006C102.794 373.701 109.626 392.003 109.626 392.003C109.626 392.003 89.9363 391.336 73.593 379.641C57.2496 367.947 50.4344 349.636 50.4344 349.636C50.4344 349.636 70.1155 350.304 86.4588 362.006Z" fill="#7BC0BE"/>
<path d="M50.4344 349.636C50.4344 349.636 70.8718 360.867 77.4239 370.161C83.9761 379.454 109.626 392.003 109.626 392.003" stroke="#535461" stroke-width="2" stroke-miterlimit="10"/>
<path d="M133.343 391.075C114.575 411.494 110.604 438.179 110.604 438.179C110.604 438.179 137.067 431.75 155.819 411.323C174.571 390.896 178.559 364.22 178.559 364.22C178.559 364.22 152.112 370.657 133.343 391.075Z" fill="#7BC0BE"/>
<path d="M178.575 364.228C178.575 364.228 154.126 385.159 147.911 399.58C141.696 414 110.604 438.179 110.604 438.179" stroke="#535461" stroke-width="2" stroke-miterlimit="10"/>
<path d="M822.313 383.889C822.313 383.889 808.74 317.043 813.936 308.726C813.936 308.726 814.125 300.995 813.812 291.14C813.812 290.765 813.812 290.391 813.812 290.009C814.726 290.612 815.679 291.156 816.665 291.636C821.452 294.071 826.948 294.773 832.203 293.622L828.092 289.089C827.106 288.007 826.078 286.835 825.864 285.402C825.65 283.97 826.242 282.692 826.752 281.415C830.657 271.649 830.863 259.369 823.34 251.914C816.986 245.648 815.44 237.559 808.543 231.838C803.503 227.646 800.733 221.502 798.118 215.561C795.907 210.54 793.679 205.478 792.413 200.156C791.426 195.997 791.032 191.692 789.675 187.632C788.319 183.571 785.779 179.624 781.808 177.809C780.394 177.166 778.824 176.8 777.533 175.945C775.839 174.814 774.82 172.975 773.595 171.364C767.372 163.225 746.532 168.019 736.666 171.323C733.984 172.155 731.501 173.517 729.366 175.327L729.457 175.18C729.531 175.058 729.621 174.936 729.703 174.814C728.623 175.678 727.691 176.709 726.941 177.866C725.502 180.12 724.902 182.749 723.702 185.19C722.255 188.079 714.207 196.144 717.668 199.391C717.91 199.609 718.188 199.785 718.49 199.912C719.789 200.447 721.22 200.589 722.6 200.319L722.452 200.669C721.27 203.534 720.664 206.599 720.668 209.694C720.668 223.065 731.808 233.905 745.561 233.905C748.147 233.907 750.718 233.515 753.182 232.741C753.24 233.05 753.289 233.359 753.347 233.669C753.347 233.791 753.388 233.913 753.404 234.035L752.969 234.637C752.947 234.6 752.922 234.565 752.895 234.531L739.988 252.386C738.015 253.762 726.653 261.9 726.012 268.003C725.338 274.685 724.664 282.505 724.664 282.505L724.573 284.182C724.009 284.648 723.349 284.988 722.64 285.178C721.93 285.368 721.187 285.402 720.463 285.28C716.434 284.629 716.434 299.929 716.434 299.929C716.434 299.929 713.754 302.37 711.913 300.254C710.071 298.139 705.205 305.308 705.205 305.308L674.705 306.61L674.006 306.651L672.362 301.613C672.185 301.082 671.803 300.641 671.3 300.387C670.796 300.132 670.212 300.085 669.673 300.254C669.546 300.296 669.422 300.348 669.303 300.409L669.188 300.474L668.975 300.621L668.868 300.718C668.809 300.771 668.754 300.828 668.703 300.889L668.605 301.003L668.555 301.052C668.365 301.312 668.24 301.612 668.188 301.929C668.137 302.245 668.161 302.569 668.259 302.875L669.673 307.196C663.787 308.368 657.769 311.672 662.677 320.771L637.8 316.221L645.849 322.911L687.398 331.399C686.847 332.375 687.209 333.791 688.927 335.785C696.326 344.387 709.808 346.723 715.234 347.325C716.667 350.498 718.457 353.501 720.57 356.277L720.101 364.846C720.101 364.846 706.364 430.163 703.848 433.475C705.118 432.05 706.28 430.535 707.326 428.942C703.338 442.362 697.765 460.729 696.301 463.48C693.95 467.874 691.771 485.656 694.451 486.795C695.274 487.145 697.625 486.975 700.979 486.722V488.195L700.831 544.014C700.831 544.014 701.505 578.251 699.655 581.515C697.806 584.778 697.312 591.622 697.312 591.622C697.312 591.622 689.913 605.123 684.052 610.551C684.012 610.593 683.968 610.632 683.92 610.665L683.739 609.396C683.739 609.396 676.694 618.201 661.107 617.705C661.107 617.705 651.727 623.743 665.637 624.069C679.547 624.394 697.312 623.58 697.312 623.58C697.312 623.58 709.718 604.863 720.109 607.304V621.489H723.291V607.076C724.766 606.115 726.029 604.867 727.003 603.408C727.976 601.949 728.641 600.309 728.955 598.588C729.227 596.815 729.028 595.001 728.376 593.327C727.725 591.653 726.643 590.176 725.239 589.042C724.608 588.478 724.102 587.79 723.753 587.023C723.403 586.255 723.218 585.424 723.209 584.583L723.093 584.68C723.093 584.395 723.019 584.103 722.987 583.801C722.074 576.477 720.931 561.365 724.968 550.183C730.501 534.851 732.178 513.497 728.149 500.785C726.85 496.722 725.782 492.589 724.951 488.407C724.853 487.878 724.762 487.373 724.68 486.901C727.434 487.27 730.16 487.814 732.844 488.529C742.174 491.076 762.587 491.548 780.016 491.41C780.057 491.882 780.106 492.378 780.164 492.875C780.474 496.325 781.124 499.738 782.104 503.063C784.291 509.574 785.294 538.277 785.294 538.277C785.294 538.277 788.113 561.877 786.576 571.48C785.754 576.819 784.932 582.182 784.463 587.569V587.675C784.463 587.675 779.843 600.696 776.464 607.768C776.382 607.947 776.292 608.126 776.209 608.297C775.309 608.378 774.422 608.572 773.57 608.875C773.57 608.875 769.041 617.827 764.527 619.308C760.014 620.789 761.51 625.664 771.729 623.873C781.948 622.083 797.378 620.618 797.378 620.618L798.044 611.487L801.185 607.597L800.363 616.704L803.709 616.053L803.265 604.977L808.403 598.613C808.403 598.613 814.61 593.144 805.386 582.385V582.621C805.287 582.467 805.197 582.304 805.09 582.149V582.101C803.561 579.757 802.344 575.387 804.572 567.631C808.6 553.617 810.943 540.897 810.943 540.897C810.943 540.897 819.937 506.823 809.126 490.702H809.603C808.495 488.433 807.712 486.023 807.277 483.54C807.222 483.247 807.172 482.946 807.129 482.637C815.128 482.181 822.979 480.749 829.383 477.656C829.358 477.624 825.503 396.764 822.313 383.889ZM720.759 327.493V327.655L719.114 327.737L720.759 327.493ZM715.119 328.266C714.849 328.325 714.596 328.445 714.379 328.616C713.672 329.606 713.228 330.756 713.088 331.96L710.524 331.391C710.524 331.391 708.723 331.008 706.134 330.577L704.909 329.356C708.279 329.08 711.781 328.673 715.119 328.266Z" fill="url(#paint1_linear)"/>
<path d="M799.985 605.091L799.006 616.622L802.286 615.971L801.793 603.463L799.985 605.091Z" fill="#1D2366"/>
<path d="M725.149 550.338C721.194 561.487 722.312 576.534 723.2 583.842C723.529 586.544 723.833 588.188 723.833 588.188C723.833 588.188 717.922 601.518 717.429 602.023C716.936 602.527 700.034 612.74 700.034 612.74L688.22 619.568C688.22 619.568 676.234 614.368 681.98 612.578C683.154 612.111 684.212 611.398 685.08 610.486C690.834 605.074 698.061 591.622 698.061 591.622C698.061 591.622 698.554 584.794 700.362 581.547C702.171 578.3 701.513 544.177 701.513 544.177L701.653 488.553V481.302L724.137 481.465C724.279 483.927 724.603 486.375 725.107 488.789C725.915 492.957 726.96 497.076 728.24 501.127C732.202 513.814 730.558 535.062 725.149 550.338Z" fill="#FFB0B1"/>
<path opacity="0.1" d="M723.833 588.188C723.833 588.188 717.922 601.518 717.429 602.023C716.936 602.527 700.034 612.74 700.034 612.74L688.22 619.568C688.22 619.568 676.234 614.368 681.98 612.578C683.154 612.111 684.212 611.398 685.08 610.486L685.589 614.042L689.527 613.88L723.233 583.858C723.529 586.544 723.833 588.188 723.833 588.188Z" fill="black"/>
<path d="M723.422 584.615L689.527 614.84L685.589 615.003L684.767 609.306C684.767 609.306 677.878 618.079 662.57 617.591C662.57 617.591 653.379 623.605 667.002 623.93C680.624 624.256 698.019 623.442 698.019 623.442C698.019 623.442 710.17 604.724 720.339 607.166V621.302H723.463V607.036C724.916 606.068 726.156 604.819 727.108 603.364C728.06 601.91 728.705 600.28 729.004 598.572C729.275 596.813 729.083 595.014 728.449 593.35C727.814 591.685 726.756 590.21 725.379 589.067C724.764 588.496 724.273 587.806 723.936 587.041C723.6 586.275 723.425 585.45 723.422 584.615Z" fill="#1D2366"/>
<path d="M803.109 567.721C800.922 575.452 802.114 579.806 803.61 582.141V582.19C805.529 585.074 806.864 588.299 807.54 591.687L807.671 592.42L792.249 614.677L783.88 617.933C783.88 617.933 770.422 613.383 772.88 612.081C773.497 611.764 774.459 610.071 775.56 607.736C778.849 600.696 783.386 587.708 783.386 587.708V587.602C783.863 582.239 784.62 576.892 785.458 571.57C786.963 561.991 784.2 538.48 784.2 538.48C784.2 538.48 783.214 509.891 781.076 503.389C780.111 500.083 779.47 496.693 779.161 493.265C778.717 489.196 778.618 485.843 778.618 485.843C778.618 485.843 787.481 473.636 803.725 486.82C805.024 487.871 806.167 489.099 807.12 490.466C818.342 506.27 809.307 541.085 809.307 541.085C809.307 541.085 807.046 553.747 803.109 567.721Z" fill="#FFB0B1"/>
<path opacity="0.1" d="M807.696 592.42L792.273 614.677L783.904 617.933C783.904 617.933 770.446 613.383 772.905 612.081C773.521 611.764 774.483 610.071 775.585 607.735C781.282 607.687 784.233 613.058 784.233 613.058L791.451 611.918C791.451 611.918 800.971 593.396 803.108 592.265C805.246 591.134 803.437 583.81 803.437 583.81V581.946C803.495 582.011 803.544 582.084 803.61 582.149V582.198C805.529 585.082 806.863 588.307 807.539 591.695L807.696 592.42Z" fill="black"/>
<path d="M784.726 613.538C784.726 613.538 780.616 606.067 772.74 608.826C772.74 608.826 768.309 617.778 763.878 619.226C759.447 620.675 760.926 625.558 770.94 623.776C780.953 621.993 796.047 620.52 796.047 620.52L796.704 611.414L806.882 598.58C806.882 598.58 812.949 593.136 803.922 582.418V584.282C803.922 584.282 805.731 591.606 803.594 592.737C801.456 593.868 791.969 612.399 791.969 612.399L784.726 613.538Z" fill="#1D2366"/>
<path opacity="0.1" d="M724.162 481.449C724.304 483.91 724.628 486.358 725.132 488.773C715.875 487.43 707.284 488.098 701.653 488.537V481.286L724.162 481.449Z" fill="black"/>
<path opacity="0.1" d="M808.033 492.492C808.033 492.492 794.879 493.127 779.194 493.257C778.75 489.188 778.651 485.835 778.651 485.835C778.651 485.835 787.513 473.628 803.758 486.812C805.057 487.863 806.2 489.091 807.153 490.458C807.408 491.151 807.702 491.831 808.033 492.492Z" fill="black"/>
<path d="M808.033 491.027C808.033 491.027 750.42 493.786 732.86 488.911C715.3 484.037 697.896 488.26 695.274 487.129C692.651 485.998 694.78 468.281 697.082 463.895C699.384 459.508 712.012 415.148 712.012 415.148L724.162 352.436L736.962 348.945L737.867 348.692L760.17 342.605L776.514 338.137C776.514 338.137 809.011 463.732 806.224 472.993C805.212 476.54 805.049 480.27 805.748 483.89C806.173 486.362 806.942 488.764 808.033 491.027Z" fill="#1D2366"/>
<path d="M681.808 309.548C681.808 309.548 670.298 321.755 679.012 328.559C687.727 335.362 693.457 329.21 693.457 329.21L681.808 309.548Z" fill="#C7DAF5"/>
<path opacity="0.1" d="M681.808 309.548C681.808 309.548 670.298 321.755 679.012 328.559C687.727 335.362 693.457 329.21 693.457 329.21L681.808 309.548Z" fill="black"/>
<path d="M774.795 229.29C774.795 229.29 773.447 230.56 771.417 232.432C768.523 235.109 764.24 239.024 760.442 242.303C755.18 246.836 750.839 250.165 752.393 247.324C753.947 244.484 753.651 239.536 752.878 234.906C752.821 234.596 752.771 234.287 752.714 233.986C752.074 230.585 751.226 227.226 750.174 223.927C750.174 223.927 758.674 213.055 763.376 208.766C765.128 207.139 766.352 206.471 766.426 207.602C766.509 209.124 767.66 212.485 769.09 216.05C769.131 216.164 769.172 216.269 769.222 216.383C770.175 218.825 771.252 221.331 772.198 223.496C773.644 226.816 774.795 229.29 774.795 229.29Z" fill="#FFB0B1"/>
<path opacity="0.1" d="M769.221 216.383C768.423 220.637 766.484 224.6 763.609 227.858C760.735 231.116 757.028 233.55 752.878 234.906C752.225 231.191 751.321 227.523 750.174 223.927C750.174 223.927 766.18 203.46 766.426 207.602C766.484 209.173 767.733 212.656 769.221 216.383Z" fill="black"/>
<path opacity="0.1" d="M751.283 240.374L753.355 237.485C753.355 237.485 754.728 245.77 759.776 242.116C764.823 238.462 765.07 269.615 765.07 269.615L759.652 349.799L720.504 347.48L721.614 308.734L726.045 289.203L737.003 260.809L743.523 251.426L751.283 240.374Z" fill="black"/>
<path d="M765.07 270.111L760.137 342.613L759.619 350.295L737.793 349.002L736.97 348.953L720.528 347.976L721.638 309.223L726.069 289.691L737.028 261.297L743.547 251.914L751.308 240.822L753.38 237.941C753.38 237.941 754.752 246.226 759.8 242.572L759.907 242.498C764.84 239.406 765.07 270.111 765.07 270.111Z" fill="#1D2366"/>
<path d="M726.62 282.904C726.62 282.904 724.655 286.973 720.709 286.314C716.763 285.655 716.772 300.962 716.772 300.962C716.772 300.962 714.149 303.404 712.34 301.288C710.532 299.172 705.764 306.325 705.764 306.325L675.888 307.628C675.888 307.628 689.182 313.642 686.576 331.838C686.576 331.838 731.709 329.071 733.189 324.848C734.669 320.624 726.62 282.904 726.62 282.904Z" fill="white"/>
<path opacity="0.03" d="M726.62 282.904C726.62 282.904 724.655 286.973 720.709 286.314C716.763 285.655 716.772 300.962 716.772 300.962C716.772 300.962 714.149 303.404 712.34 301.288C710.532 299.172 705.764 306.325 705.764 306.325L675.888 307.628C675.888 307.628 689.182 313.642 686.576 331.838C686.576 331.838 731.709 329.071 733.189 324.848C734.669 320.624 726.62 282.904 726.62 282.904Z" fill="black"/>
<path d="M639.798 317.19L647.674 323.847L712.505 337.332L704.465 329.21L639.798 317.19Z" fill="white"/>
<path d="M751.407 242.938C750.33 244.566 747.247 252.899 744.674 260.174C742.528 266.237 740.736 271.568 740.736 271.568C740.736 271.568 736.551 298.537 734.414 303.412C732.276 308.287 733.435 327.297 733.435 327.297L725.469 374.246C725.469 374.246 721.86 398.457 716.287 412.918C710.787 427.152 704.662 433.825 704.473 434.036C706.939 430.732 720.381 365.676 720.381 365.676L724.82 283.628C724.82 283.628 725.469 275.832 726.127 269.167C726.785 262.502 740.103 253.404 740.103 253.404L752.944 235.329C754.235 237.038 753.371 240.016 751.407 242.938Z" fill="white"/>
<path d="M717.922 348.383C717.922 348.383 699.014 347.569 689.856 336.68C680.698 325.792 711.025 332.335 711.025 332.335L718.909 334.125L717.922 348.383Z" fill="#FFB0B1"/>
<path opacity="0.1" d="M806.224 473.001C805.212 476.548 805.049 480.279 805.747 483.898C785.121 485.347 763.056 479.829 763.056 479.829C758.945 483.573 748.118 489.09 748.118 489.09L742.216 416.661C738.442 406.896 736.962 355.732 736.962 355.732C736.962 355.732 737.299 353.054 737.784 349.042C737.784 348.945 737.784 348.839 737.826 348.741C739.297 337.535 742.216 316.498 743.646 313.658C745.619 309.752 737.579 299.359 737.579 299.359L741.237 268.475L741.681 264.748C749.392 261.338 755.303 250.449 755.303 250.449L759.841 242.58C764.774 239.447 765.029 270.152 765.029 270.152L760.096 342.654L776.44 338.186C776.44 338.186 809.011 463.74 806.224 473.001Z" fill="black"/>
<path d="M827.393 478.006C804.909 489.058 764.042 478.82 764.042 478.82C759.932 482.564 749.105 488.081 749.105 488.081L743.194 415.652C739.429 405.887 737.949 354.723 737.949 354.723C737.949 354.723 742.701 316.547 744.674 312.649C745.249 311.509 744.97 309.817 744.287 307.994C740.933 299.317 739.699 289.978 740.686 280.739L742.265 267.466L742.701 263.747C750.42 260.329 756.331 249.44 756.331 249.44L760.442 242.311L768.005 229.176L771.589 222.959L772.198 223.504L776.842 227.671C776.842 227.671 778.815 229.299 781.775 231.74C788.212 237.111 799.335 246.568 805.073 252.354C810.121 257.448 811.716 277.264 812.176 292.181C812.48 302.004 812.299 309.703 812.299 309.703C807.211 317.995 820.52 384.573 820.52 384.573C823.62 397.439 827.393 478.006 827.393 478.006Z" fill="white"/>
<path opacity="0.03" d="M784.233 249.277C784.233 249.277 768.802 278.355 770.594 289.406C772.387 300.458 777.484 312.966 775.026 315.888C774.181 316.995 773.089 317.893 771.836 318.513C770.582 319.133 769.201 319.457 767.799 319.46C765.333 319.623 758.756 324.172 758.756 324.661C758.756 325.149 752.681 325.149 747.247 327.427C741.813 329.706 733.789 331 733.789 331C733.789 331 718.169 330.512 716.714 331.977C715.259 333.442 713.763 342.206 716.879 349.197C719.994 356.187 723.455 361.404 726.07 362.356C728.684 363.308 745.274 357.807 758.732 356.505C772.189 355.203 786.798 344.648 786.798 344.648C786.798 344.648 802.886 338.951 805.706 329.372C808.526 319.794 802.262 267.149 802.262 267.149C802.262 267.149 797.526 242.612 784.233 249.277Z" fill="black"/>
<path opacity="0.03" d="M782.26 246.836C782.26 246.836 766.829 275.922 768.638 286.965C770.446 298.008 775.527 310.525 773.061 313.454C772.219 314.562 771.129 315.462 769.877 316.082C768.624 316.702 767.243 317.025 765.843 317.027C763.376 317.19 756.8 321.739 756.8 322.227C756.8 322.716 750.724 322.716 745.29 324.986C739.856 327.257 731.832 328.559 731.832 328.559C731.832 328.559 716.212 328.07 714.766 329.535C713.319 331 711.806 339.773 714.93 346.755C718.054 353.738 721.507 358.963 724.121 359.915C726.735 360.867 743.325 355.365 756.783 354.072C770.241 352.778 784.85 342.206 784.85 342.206C784.85 342.206 800.93 336.51 803.717 326.939C806.504 317.369 800.272 264.707 800.272 264.707C800.272 264.707 795.553 240.179 782.26 246.836Z" fill="black"/>
<path d="M783.748 247.813C783.748 247.813 768.317 276.898 770.126 287.942C771.934 298.985 777.015 311.501 774.557 314.423C773.715 315.534 772.625 316.435 771.37 317.057C770.116 317.678 768.733 318.002 767.331 318.004C764.864 318.166 758.288 322.716 758.288 323.196C758.288 323.676 752.221 323.684 746.778 325.963C741.336 328.241 733.32 329.535 733.32 329.535C733.32 329.535 717.701 329.047 716.245 330.512C714.79 331.977 713.294 340.75 716.41 347.732C719.526 354.714 722.987 359.939 725.601 360.891C728.215 361.843 744.805 356.342 758.263 355.04C771.721 353.738 786.329 343.183 786.329 343.183C786.329 343.183 802.418 337.486 805.238 327.908C808.058 318.329 801.834 265.684 801.834 265.684C801.834 265.684 797.033 241.188 783.748 247.813Z" fill="white"/>
<path opacity="0.1" d="M783.411 325.824C783.411 325.824 771.08 323.383 775.371 327.452C779.662 331.521 779.638 335.085 784.891 334.923C790.144 334.76 783.411 325.824 783.411 325.824Z" fill="black"/>
<path opacity="0.1" d="M804.252 413.374C804.252 413.374 798.678 417.109 809.34 425.719C820.002 434.329 804.252 413.374 804.252 413.374Z" fill="black"/>
<path opacity="0.1" d="M793.613 444.079C793.613 444.567 791.64 461.982 799.023 466.336C806.405 470.69 793.613 444.079 793.613 444.079Z" fill="black"/>
<path d="M676.398 307.587C670.446 307.79 657.588 309.589 664.256 321.902C670.15 332.799 680.057 325.515 685.631 319.989C684.271 314.837 680.966 310.398 676.398 307.587Z" fill="#FFB0B1"/>
<path d="M685.704 319.891L685.956 319.639L685.704 319.891Z" fill="#FFB0B1"/>
<path opacity="0.1" d="M781.775 232.236C775.461 236.509 770.167 240.114 769.131 240.863C766.303 242.938 760.91 255.121 757.433 261.338C754.662 266.343 745.66 267.629 742.265 267.946L742.701 264.227C750.42 260.809 756.331 249.92 756.331 249.92L771.589 223.439L776.842 228.167C776.842 228.167 778.815 229.795 781.775 232.236Z" fill="black"/>
<path d="M781.775 231.748C775.461 236.021 770.167 239.626 769.131 240.383C766.303 242.45 760.91 254.632 757.433 260.85C754.662 265.855 745.66 267.141 742.265 267.458L742.701 263.739C750.42 260.321 756.331 249.432 756.331 249.432L771.589 222.951L776.842 227.663C776.842 227.663 778.815 229.274 781.775 231.748Z" fill="#DCE7FF"/>
<path d="M769.624 211.012C769.628 215.897 768.131 220.668 765.333 224.692C762.028 229.45 757.11 232.878 751.471 234.353C745.832 235.828 739.845 235.253 734.597 232.733C729.349 230.213 725.188 225.913 722.869 220.616C720.549 215.318 720.225 209.372 721.954 203.858C723.684 198.344 727.353 193.626 732.296 190.561C737.24 187.496 743.129 186.286 748.896 187.152C754.663 188.017 759.925 190.9 763.728 195.278C767.532 199.656 769.623 205.238 769.624 211.012Z" fill="#FFB0B1"/>
<path opacity="0.1" d="M812.176 292.19C808.838 290.157 806.119 287.265 804.309 283.824C802.936 281.138 802.023 278.037 799.68 276.133C797.568 274.424 794.748 274.009 792.117 273.244C783.469 270.713 776.218 262.901 775.946 253.981C775.815 249.782 777.138 245.591 776.538 241.432C776.197 239.079 775.252 236.851 773.792 234.963C773.068 234.059 772.274 233.213 771.417 232.432C770.266 231.357 769.057 230.316 768.005 229.176C767.342 228.471 766.763 227.693 766.278 226.857C765.887 226.173 765.571 225.45 765.333 224.7C763.689 219.72 765.185 213.812 763.376 208.774L763.278 208.498C762.595 206.707 761.206 204.917 759.274 204.778C757.342 204.64 755.69 206.227 753.848 206.935C749.993 208.416 745.833 205.893 742.618 203.322C739.404 200.75 735.779 197.812 731.693 198.382C728.988 198.764 726.851 200.587 724.36 201.531C723.797 201.747 723.217 201.913 722.625 202.028C724.733 196.824 728.606 192.509 733.579 189.824C738.552 187.14 744.314 186.253 749.875 187.317C755.436 188.381 760.449 191.329 764.053 195.655C767.657 199.98 769.627 205.413 769.624 211.02C769.627 212.714 769.448 214.402 769.09 216.058C769.131 216.172 769.172 216.278 769.222 216.392C770.175 218.833 771.252 221.339 772.198 223.504L776.842 227.671C776.842 227.671 778.815 229.299 781.775 231.74C788.212 237.111 799.335 246.568 805.073 252.354C810.121 257.464 811.7 277.273 812.176 292.19Z" fill="black"/>
<path d="M724.072 186.663C725.247 184.295 725.831 181.642 727.237 179.396C729.3 176.141 732.901 174.057 736.601 172.796C746.26 169.5 766.673 164.715 772.773 172.796C773.973 174.423 774.968 176.23 776.629 177.353C777.895 178.208 779.424 178.574 780.813 179.217C784.702 181.023 787.184 184.962 788.508 188.982C789.832 193.003 790.226 197.316 791.196 201.458C792.438 206.772 794.616 211.81 796.787 216.815C799.343 222.723 802.056 228.851 806.989 233.026C813.722 238.722 815.21 246.787 821.458 253.037C828.857 260.459 828.618 272.707 824.804 282.432C824.302 283.71 823.735 285.044 823.932 286.403C824.13 287.762 825.149 288.999 826.111 290.082L830.156 294.598C820.586 296.885 809.759 291.937 805.304 283.254C803.931 280.568 803.018 277.476 800.667 275.563C798.562 273.854 795.734 273.448 793.112 272.683C784.463 270.144 777.212 262.323 776.941 253.404C776.81 249.212 778.133 245.021 777.533 240.871C777.199 238.501 776.25 236.258 774.779 234.36C772.518 231.439 769.106 229.478 767.265 226.222C764.149 220.778 766.517 213.706 764.273 207.863C763.582 206.072 762.201 204.282 760.269 204.144C758.337 204.005 756.685 205.592 754.835 206.3C750.987 207.781 746.828 205.267 743.613 202.687C740.399 200.107 736.773 197.178 732.679 197.755C729.974 198.13 727.845 199.953 725.354 200.905C723.513 201.605 719.78 202.231 718.169 200.693C714.766 197.593 722.65 189.56 724.072 186.663Z" fill="#591D4B"/>
<path opacity="0.1" d="M807.589 280.568C806.208 277.883 805.304 274.79 802.952 272.886C800.848 271.177 798.02 270.762 795.389 269.997C786.749 267.466 779.498 259.645 779.218 250.726C779.087 246.535 780.41 242.336 779.818 238.185C779.474 235.831 778.526 233.604 777.064 231.716C774.795 228.794 771.384 226.833 769.55 223.577C766.435 218.141 768.802 211.069 766.55 205.218C765.867 203.436 764.478 201.645 762.554 201.499C760.631 201.352 758.962 202.956 757.12 203.664C753.273 205.145 749.105 202.622 745.899 200.05C742.692 197.479 739.051 194.541 734.965 195.11C732.26 195.493 730.123 197.316 727.64 198.26C725.798 198.96 722.058 199.595 720.446 198.056C717.059 194.801 724.943 186.785 726.357 183.904C727.533 181.528 728.117 178.883 729.531 176.637C729.605 176.515 729.687 176.393 729.769 176.271C728.711 177.138 727.799 178.165 727.064 179.314C725.659 181.561 725.075 184.197 723.899 186.582C722.477 189.463 714.593 197.503 717.988 200.734C719.633 202.28 723.332 201.645 725.174 200.945C727.64 199.993 729.794 198.17 732.498 197.796C736.609 197.218 740.226 200.156 743.432 202.728C746.639 205.299 750.831 207.822 754.662 206.341C756.504 205.633 758.115 204.038 760.088 204.184C762.061 204.331 763.376 206.113 764.092 207.904C766.336 213.747 763.968 220.819 767.084 226.263C768.926 229.461 772.337 231.463 774.598 234.401C776.069 236.299 777.018 238.542 777.352 240.912C777.952 245.062 776.629 249.253 776.76 253.444C777.032 262.396 784.282 270.184 792.931 272.723C795.537 273.488 798.381 273.895 800.486 275.604C802.845 277.517 803.774 280.609 805.123 283.295C809.578 291.978 820.405 296.926 829.975 294.639L828.068 292.507C819.773 292.629 811.379 287.958 807.589 280.568Z" fill="black"/>
<path opacity="0.1" d="M750.913 243.426C749.836 245.054 746.753 253.387 744.18 260.663C741.772 259.735 739.585 253.819 739.585 253.819L752.426 235.736C753.741 237.526 752.878 240.497 750.913 243.426Z" fill="black"/>
<path d="M751.407 242.938C750.33 244.566 747.247 252.899 744.674 260.174C742.265 259.255 740.078 253.33 740.078 253.33L752.919 235.256C754.235 237.038 753.371 240.016 751.407 242.938Z" fill="#DCE7FF"/>
<path d="M676.744 326.077L669.624 303.851C669.54 303.591 669.508 303.317 669.531 303.045C669.554 302.773 669.631 302.507 669.758 302.265C669.885 302.022 670.059 301.806 670.27 301.63C670.481 301.454 670.726 301.321 670.989 301.239C671.519 301.075 672.092 301.125 672.585 301.378C673.078 301.632 673.45 302.067 673.619 302.59L680.739 324.791L680.032 329.438L676.744 326.077Z" fill="#BE8B87"/>
<path opacity="0.1" d="M670.298 301.898C670.829 301.732 671.405 301.781 671.9 302.034C672.394 302.287 672.767 302.724 672.937 303.249L680.057 325.45L679.522 328.933L680.04 329.47L680.747 324.823L673.587 302.623C673.417 302.1 673.045 301.664 672.552 301.411C672.06 301.158 671.486 301.108 670.956 301.272C670.51 301.415 670.125 301.701 669.863 302.085C670.002 302.011 670.148 301.949 670.298 301.898Z" fill="white"/>
<path d="M676.743 326.077L680.739 324.823L680.155 328.632L680.032 329.47L678.864 328.266L676.743 326.077Z" fill="#EFC8C4"/>
<path d="M678.865 328.266C678.934 328.179 679.021 328.107 679.12 328.054C679.177 328.018 679.244 327.999 679.313 327.999C679.381 327.999 679.448 328.018 679.506 328.054C679.562 328.121 679.609 328.195 679.646 328.274C679.7 328.364 679.774 328.44 679.862 328.498C679.951 328.556 680.051 328.593 680.156 328.608L680.032 329.421L678.865 328.266Z" fill="#727A9C"/>
<path d="M669.583 311.745C669.583 311.745 683.863 311.664 680.5 317.678C677.138 323.692 671.885 324.416 671.885 324.416L669.583 311.745Z" fill="#FFB0B1"/>
<path d="M580.771 41.846H580.155C555.623 41.846 533.928 54.696 521.449 73.6578C508.969 54.696 487.274 41.846 462.742 41.846H462.126C443.716 42.0197 426.119 49.3786 413.159 62.3236C400.199 75.2687 392.923 92.7537 392.913 110.979C392.913 133.611 402.926 165.724 422.451 192.148C459.651 242.498 521.449 286.55 521.449 286.55C521.449 286.55 583.246 242.507 620.438 192.148C639.971 165.724 649.976 133.611 649.976 110.979C649.966 92.7551 642.692 75.2713 629.733 62.3265C616.775 49.3817 599.18 42.0218 580.771 41.846ZM571.95 196.022C569.156 196.011 566.431 195.165 564.132 193.593C561.833 192.022 560.068 189.799 559.068 187.216H544.402C543.436 187.211 542.496 186.906 541.714 186.346C540.931 185.786 540.345 184.998 540.036 184.091L535.531 170.656L521.276 219.964C520.998 220.913 520.417 221.748 519.62 222.342C518.822 222.936 517.851 223.259 516.853 223.26H516.565C515.524 223.21 514.531 222.808 513.753 222.121C512.975 221.434 512.459 220.503 512.29 219.484L497.6 132.016L486.863 183.774C486.617 184.757 486.045 185.631 485.239 186.255C484.433 186.878 483.439 187.217 482.415 187.216H461.756C461.137 187.242 460.518 187.144 459.939 186.927C459.359 186.711 458.829 186.38 458.381 185.955C457.934 185.531 457.578 185.021 457.335 184.457C457.091 183.892 456.966 183.285 456.966 182.671C456.966 182.058 457.091 181.451 457.335 180.886C457.578 180.322 457.934 179.812 458.381 179.387C458.829 178.963 459.359 178.632 459.939 178.415C460.518 178.199 461.137 178.1 461.756 178.126H478.798L494.007 108.538C494.257 107.509 494.86 106.598 495.713 105.96C496.566 105.323 497.616 104.998 498.684 105.042C499.752 105.087 500.771 105.497 501.568 106.203C502.364 106.908 502.888 107.866 503.05 108.912L518.053 198.138L530.829 154.021C531.095 153.092 531.657 152.273 532.432 151.686C533.207 151.1 534.153 150.777 535.128 150.766H535.219C536.185 150.766 537.126 151.069 537.909 151.63C538.691 152.191 539.275 152.982 539.576 153.891L547.723 178.151H558.887C559.681 175.763 561.125 173.64 563.062 172.014C564.998 170.388 567.35 169.324 569.858 168.937C572.367 168.551 574.935 168.859 577.278 169.826C579.621 170.794 581.649 172.383 583.137 174.419C584.626 176.455 585.517 178.859 585.712 181.364C585.908 183.87 585.4 186.381 584.246 188.619C583.091 190.857 581.334 192.736 579.169 194.048C577.003 195.36 574.514 196.054 571.975 196.054L571.95 196.022Z" fill="#215A58"/>
</g>
<defs>
<linearGradient id="paint0_linear" x1="293.423" y1="630.595" x2="293.423" y2="129.827" gradientUnits="userSpaceOnUse">
<stop stop-color="#808080" stop-opacity="0.25"/>
<stop offset="0.54" stop-color="#808080" stop-opacity="0.12"/>
<stop offset="1" stop-color="#808080" stop-opacity="0.1"/>
</linearGradient>
<linearGradient id="paint1_linear" x1="183506" y1="377836" x2="183506" y2="120788" gradientUnits="userSpaceOnUse">
<stop stop-color="#808080" stop-opacity="0.25"/>
<stop offset="0.54" stop-color="#808080" stop-opacity="0.12"/>
<stop offset="1" stop-color="#808080" stop-opacity="0.1"/>
</linearGradient>
<clipPath id="clip0">
<rect width="908.454" height="637" fill="white" transform="translate(0.483521)"/>
</clipPath>
</defs>
</svg>
