<svg width="1024" height="1024" viewBox="0 0 989 1024" fill="none" xmlns="http://www.w3.org/2000/svg">
<path d="M-25 6.48683C-25 6.48683 1162.5 -348.026 966.5 6.48683C770.5 361 1150.18 703.5 832.5 1030.73C514.817 1357.96 -25 1030.73 -25 1030.73V6.48683Z" fill="#E8EFEF"/>
<g clip-path="url(#clip0)">
<path opacity="0.1" d="M319.88 830.642C363.661 830.642 399.152 824.94 399.152 817.906C399.152 810.872 363.661 805.17 319.88 805.17C276.1 805.17 240.608 810.872 240.608 817.906C240.608 824.94 276.1 830.642 319.88 830.642Z" fill="#007FA3"/>
<path opacity="0.1" d="M750.791 831C805.422 831 849.71 825.298 849.71 818.264C849.71 811.23 805.422 805.528 750.791 805.528C696.159 805.528 651.872 811.23 651.872 818.264C651.872 825.298 696.159 831 750.791 831Z" fill="#007FA3"/>
<path opacity="0.1" d="M32.2594 469.23H114.826V581.804H38.3041C38.1007 582.959 37.9054 584.123 37.6939 585.287H114.826V676.075C114.688 676.035 114.566 675.986 114.436 675.937C112.255 675.074 110.091 674.163 107.927 673.186L106.544 672.56C104.375 671.534 102.205 670.449 100.036 669.305C99.2793 668.906 98.5227 668.491 97.7742 668.068C85.7304 661.319 74.7891 652.767 65.33 642.709C65.0534 642.441 64.7931 642.156 64.5165 641.895C63.1986 640.463 61.905 639.015 60.6522 637.533L59.2691 635.906C57.7885 634.091 56.3566 632.227 54.9655 630.339C54.7621 630.063 54.5668 629.786 54.3553 629.526C48.6975 621.678 43.9997 613.181 40.3623 604.216C40.2484 603.948 40.1508 603.655 40.0451 603.402C38.9278 600.527 37.938 597.624 37.0756 594.695C36.7014 593.466 36.3434 592.253 36.0343 590.976C35.9204 590.601 35.8228 590.235 35.7333 589.869C31.1123 571.827 30.5673 553.085 30.5673 534.473C30.5673 532.3 30.5673 530.119 30.5673 527.962C30.5673 520.435 30.6568 512.858 30.7869 505.29C30.7869 503.328 30.8683 501.375 30.9089 499.406C31.0228 494.409 31.1856 489.412 31.3971 484.415C31.4459 483.024 31.511 481.64 31.5842 480.257C31.5842 479.459 31.6249 478.662 31.7062 477.864C31.9015 474.967 32.0642 472.094 32.2594 469.23Z" fill="#007FA3"/>
<path opacity="0.1" d="M114.826 343.887H69.5361C76.8983 332.36 84.9423 321.284 93.6252 310.716C100.353 302.448 107.455 294.391 114.826 286.628V343.887Z" fill="#007FA3"/>
<path opacity="0.1" d="M114.826 347.37V465.747H32.5198C32.5198 465.405 32.5768 465.055 32.6012 464.713C32.6744 463.777 32.7476 462.841 32.829 461.914C32.9185 460.823 33.0161 459.725 33.1219 458.658C33.2276 457.592 33.3415 456.29 33.4635 455.11C33.5856 453.93 33.6995 452.734 33.8378 451.554C33.9761 450.374 34.0981 449.194 34.2446 448.022C34.391 446.85 34.5212 445.662 34.6757 444.49C34.7978 443.514 34.9279 442.545 35.0581 441.569C35.2452 440.193 35.4405 438.81 35.652 437.442C35.652 437.239 35.7089 437.027 35.7415 436.832C37.2263 426.824 39.2496 416.902 41.8024 407.112C44.4745 396.842 47.8868 386.778 52.0124 377.001C56.3971 366.773 61.531 356.883 67.3721 347.411L114.826 347.37Z" fill="#007FA3"/>
<path opacity="0.1" d="M134.538 469.222V581.804H310.891V469.222H134.538ZM134.538 585.279V681.959C135.547 682.171 136.548 682.374 137.54 682.545C138.891 682.806 140.233 683.042 141.608 683.245C141.868 683.286 142.137 683.326 142.422 683.351C142.959 683.44 143.512 683.514 144.049 683.587C145.407 683.774 146.758 683.929 148.116 684.051C148.759 684.116 149.41 684.173 150.061 684.222L151.631 684.344C152.485 684.409 153.331 684.458 154.169 684.482C154.69 684.482 155.211 684.531 155.748 684.547C156.154 684.547 156.561 684.547 156.984 684.547C157.407 684.547 158.009 684.547 158.522 684.547C159.221 684.547 159.921 684.547 160.613 684.547H161.548C162.248 684.547 162.947 684.547 163.639 684.482H163.688C164.168 684.482 164.656 684.482 165.144 684.417C165.279 684.425 165.415 684.425 165.551 684.417C165.958 684.417 166.364 684.417 166.755 684.36H167.04L169.765 684.148C170.66 684.067 171.563 683.961 172.474 683.864L174.329 683.644C181.875 682.586 189.338 680.998 196.661 678.891C213.111 674.301 229.203 667.88 245.644 663.177C266.902 657.114 290.389 654.135 310.931 661.549V585.279H134.538ZM310.891 343.887V194.008C291.583 193.799 272.328 196.058 253.593 200.73C208.937 211.953 168.87 236.294 134.538 267.381V343.879H143.39V347.354H134.538V465.747H310.891V347.362H179.731V343.887H310.891ZM537.406 293.26C526.358 292.87 515.375 289.37 505.442 283.966C486.446 273.631 471.273 257.672 454.319 244.204C419.092 216.152 375.405 199.225 330.587 195.025V343.887H582.338L582.964 343.228L537.406 293.26ZM560.34 289.191L584.657 315.884V282.192C576.513 283.201 569.378 285.602 560.372 289.159L560.34 289.191ZM584.657 705.967V585.279H532.842C532.704 584.766 532.565 584.245 532.403 583.724C532.557 584.245 532.687 584.766 532.834 585.279H330.619V672.56C332.539 673.984 334.435 675.481 336.314 677.003C338.34 678.631 340.341 680.348 342.35 682.032L344.376 683.709C345.344 684.523 346.32 685.337 347.305 686.102C349.257 687.686 351.229 689.248 353.219 690.789C354.204 691.603 355.213 692.335 356.213 693.1C372.099 705.25 388.858 716.215 406.352 725.905C410.273 728.075 414.23 730.194 418.222 732.261C420.882 733.62 423.558 734.971 426.243 736.281C430.278 738.25 434.346 740.149 438.446 741.978C476.249 758.952 516.222 770.6 557.224 776.589C566.33 777.934 575.472 778.992 584.649 779.763V705.958H585.462L584.657 705.967ZM330.619 347.362V465.747H584.689V347.362H330.619ZM330.619 469.222V581.804H584.689V469.222H330.619ZM604.41 282.046V319.628L635.446 285.562C625.163 283.901 614.817 282.716 604.41 282.005V282.046ZM604.41 469.262V581.804H851.524V469.222L604.41 469.262ZM850.621 714.902L851.491 585.279H604.41V781.057C620.327 781.726 636.268 781.535 652.165 780.487V780.487H652.441C660.034 780.01 667.592 779.315 675.115 778.404H675.286C715.418 773.731 754.661 763.257 791.785 747.308L850.621 714.902ZM899.173 487.76C898.246 485.571 897.278 483.398 896.293 481.25C894.455 477.181 892.51 473.226 890.509 469.271H871.228V581.804H919.976C919.951 549.935 911.889 517.383 899.198 487.72L899.173 487.76ZM871.228 585.32V696.811C884.961 683.644 896.562 668.58 904.917 651.36C914.964 630.624 919.561 608.171 919.935 585.303L871.228 585.32ZM871.228 436.458V465.755H888.703C883.416 455.67 877.591 445.876 871.252 436.417L871.228 436.458ZM703.638 304.133C702.352 303.644 701.067 303.148 699.773 302.668C686.131 297.628 672.19 293.437 658.03 290.119L610.536 342.26L609.624 343.228L610.235 343.895H779.273C755.731 327.685 730.35 314.324 703.662 304.092L703.638 304.133ZM784.227 347.403H607.875L604.41 350.577V465.747H634.787H634.836H851.556V409.96C831.952 386.242 809.324 365.197 784.252 347.362L784.227 347.403Z" fill="#007FA3"/>
<path opacity="0.1" d="M114.826 407.079V465.747H32.5198C32.5198 465.405 32.5768 465.055 32.6012 464.713C32.6744 463.777 32.7476 462.841 32.829 461.914C32.9185 460.823 33.0161 459.725 33.1219 458.658C33.2276 457.592 33.3415 456.29 33.4635 455.11C33.5856 453.93 33.6995 452.734 33.8378 451.554C33.9761 450.374 34.0981 449.194 34.2446 448.022C34.391 446.85 34.5212 445.662 34.6757 444.49C34.7978 443.514 34.9279 442.545 35.0581 441.569C35.2452 440.193 35.4405 438.81 35.652 437.442C35.652 437.239 35.7089 437.027 35.7415 436.832C37.2263 426.824 39.2496 416.902 41.8024 407.112L114.826 407.079Z" fill="#007FA3"/>
<path opacity="0.1" d="M32.2594 469.23H114.826V581.804H38.3041C38.1007 582.959 37.9054 584.123 37.6939 585.287H114.826V676.075C114.688 676.035 114.566 675.986 114.436 675.937C112.255 675.074 110.091 674.163 107.927 673.186L106.544 672.56C104.375 671.534 102.205 670.449 100.036 669.305C99.2793 668.906 98.5227 668.491 97.7742 668.068C85.7304 661.319 74.7891 652.767 65.33 642.709C65.0534 642.441 64.7931 642.156 64.5165 641.895C63.1986 640.463 61.905 639.015 60.6522 637.533L59.2691 635.906C57.7885 634.091 56.3566 632.227 54.9655 630.339C54.7621 630.063 54.5668 629.786 54.3553 629.526C48.6975 621.678 43.9997 613.181 40.3623 604.216C40.2484 603.948 40.1508 603.655 40.0451 603.402C38.9278 600.527 37.938 597.624 37.0756 594.695C36.7014 593.466 36.3434 592.253 36.0343 590.976C35.9204 590.601 35.8228 590.235 35.7333 589.869C31.1123 571.827 30.5673 553.085 30.5673 534.473C30.5673 532.3 30.5673 530.119 30.5673 527.962C30.5673 520.435 30.6568 512.858 30.7869 505.29C30.7869 503.328 30.8683 501.375 30.9089 499.406C31.0228 494.409 31.1856 489.412 31.3971 484.415C31.4459 483.024 31.511 481.64 31.5842 480.257C31.5842 479.459 31.6249 478.662 31.7062 477.864C31.9015 474.967 32.0642 472.094 32.2594 469.23Z" fill="#007FA3"/>
<path opacity="0.1" d="M196.62 364.314V465.747H134.538V364.314H143.39V329.971H179.723V364.314H196.62Z" fill="#007FA3"/>
<path opacity="0.1" d="M196.62 469.222H134.547V581.796H196.62V469.222Z" fill="#007FA3"/>
<path opacity="0.1" d="M134.538 585.287H196.62V678.875C189.297 680.98 181.834 682.565 174.288 683.619L172.433 683.847C171.522 683.953 170.619 684.043 169.724 684.132C168.829 684.222 167.902 684.287 166.999 684.344H166.714C166.324 684.344 165.901 684.392 165.518 684.401H165.103C164.615 684.401 164.127 684.449 163.639 684.466C162.947 684.506 162.256 684.515 161.548 684.523C161.247 684.523 160.962 684.523 160.661 684.523C159.962 684.523 159.27 684.523 158.571 684.523H157.033C156.618 684.523 156.219 684.523 155.788 684.523L154.218 684.466C153.405 684.466 152.526 684.376 151.68 684.319L150.118 684.205L148.173 684.026C146.807 683.904 145.448 683.75 144.106 683.562L142.479 683.335L141.665 683.221C140.306 683.009 138.964 682.781 137.597 682.521C136.597 682.35 135.604 682.138 134.595 681.935L134.538 585.287Z" fill="#007FA3"/>
<path opacity="0.1" d="M584.689 352.334H533.501V465.739H584.689V352.334Z" fill="#007FA3"/>
<path opacity="0.1" d="M584.697 469.222V581.804H330.619V533.244H465.952V561.89H533.501V469.222H584.697Z" fill="#007FA3"/>
<path opacity="0.1" d="M585.503 705.991H584.689V779.844C575.523 779.068 566.384 778.013 557.273 776.678C516.251 770.671 476.261 758.998 438.446 741.994C427.529 737.078 416.833 731.713 406.36 725.897C388.866 716.202 372.105 705.237 356.213 693.092C352.221 690.032 348.281 686.902 344.392 683.701C341.7 681.479 339.023 679.2 336.314 676.987C334.435 675.465 332.539 673.968 330.619 672.535V585.287H532.826C532.687 584.766 532.549 584.245 532.403 583.733C532.557 584.245 532.704 584.766 532.842 585.287H584.689V705.942C584.966 705.95 585.234 705.975 585.503 705.991Z" fill="#007FA3"/>
<path opacity="0.1" d="M718.192 343.887H684.837V333.519H699.79V302.635C701.086 303.107 702.377 303.593 703.662 304.092V333.519H718.192V343.887Z" fill="#007FA3"/>
<path opacity="0.1" d="M798.554 465.747H634.804C634.804 465.747 634.804 465.747 634.861 465.787L634.787 465.747H604.41V352.343H613.017V436.165H652.352V386.523H684.845V347.37H718.2V386.555H750.693V436.197H798.554V465.747Z" fill="#007FA3"/>
<path opacity="0.1" d="M604.41 469.222V581.804H798.554V469.222H604.41ZM851.255 714.324L851.524 625.212H798.554V585.336H604.41V781.057C620.327 781.725 636.268 781.535 652.165 780.487V780.487H652.441C660.034 780.009 667.592 779.315 675.115 778.404H675.286C715.418 773.731 754.661 763.257 791.785 747.308" fill="#007FA3"/>
<path opacity="0.1" d="M874.677 585.287H919.967C919.569 608.147 914.98 630.6 904.941 651.336C896.586 668.564 884.977 683.628 871.26 696.787V625.172H874.677V585.287Z" fill="#007FA3"/>
<path opacity="0.1" d="M919.992 581.804H874.677V487.72H899.198C911.889 517.383 919.951 549.935 919.992 581.804Z" fill="#007FA3"/>
<path opacity="0.1" d="M584.697 383.861H557.273V419.417H584.697V383.861Z" fill="#007FA3"/>
<path opacity="0.1" d="M584.697 457.56H557.273V465.747H584.697V457.56Z" fill="#007FA3"/>
<path opacity="0.1" d="M584.697 469.222H557.273V493.107H584.697V469.222Z" fill="#007FA3"/>
<path opacity="0.1" d="M584.697 531.258H557.273V566.814H584.697V531.258Z" fill="#007FA3"/>
<path opacity="0.1" d="M584.697 604.957H557.273V640.512H584.697V604.957Z" fill="#007FA3"/>
<path opacity="0.1" d="M584.689 705.942C584.966 705.942 585.234 705.942 585.503 705.991H584.689V714.251H557.273V678.655H584.689V705.942Z" fill="#007FA3"/>
<path opacity="0.1" d="M584.689 752.337V779.803C575.523 779.028 566.384 777.972 557.273 776.638V752.337H584.689Z" fill="#007FA3"/>
<path opacity="0.1" d="M448.152 579.192H330.619V581.804H448.152V579.192Z" fill="#007FA3"/>
<path opacity="0.1" d="M448.152 585.279H330.619V595.289H448.152V585.279Z" fill="#007FA3"/>
<path opacity="0.1" d="M448.152 628.101H330.619V644.199H448.152V628.101Z" fill="#007FA3"/>
<path opacity="0.1" d="M448.144 677.011V693.108H356.213C352.221 690.059 348.278 686.929 344.384 683.717C341.691 681.495 339.023 679.217 336.306 677.011H448.144Z" fill="#007FA3"/>
<path opacity="0.1" d="M448.144 725.913V741.994H438.438C427.531 737.073 416.839 731.705 406.36 725.889L448.144 725.913Z" fill="#007FA3"/>
<path opacity="0.1" d="M675.31 480.135H652.173V503.28H675.31V480.135Z" fill="#007FA3"/>
<path opacity="0.1" d="M174.345 372.297H151.208V395.442H174.345V372.297Z" fill="#007FA3"/>
<path opacity="0.1" d="M174.345 426.057H151.208V449.202H174.345V426.057Z" fill="#007FA3"/>
<path opacity="0.1" d="M174.345 479.817H151.208V502.962H174.345V479.817Z" fill="#007FA3"/>
<path opacity="0.1" d="M174.345 533.57H151.208V556.714H174.345V533.57Z" fill="#007FA3"/>
<path opacity="0.1" d="M174.345 587.33H151.208V610.474H174.345V587.33Z" fill="#007FA3"/>
<path opacity="0.1" d="M174.345 641.09H151.208V664.234H174.345V641.09Z" fill="#007FA3"/>
<path opacity="0.1" d="M763.637 480.135H740.499V503.28H763.637V480.135Z" fill="#007FA3"/>
<path opacity="0.1" d="M675.31 537.224H652.173V560.368H675.31V537.224Z" fill="#007FA3"/>
<path opacity="0.1" d="M763.637 537.224H740.499V560.368H763.637V537.224Z" fill="#007FA3"/>
<path opacity="0.1" d="M675.31 594.304H652.173V617.449H675.31V594.304Z" fill="#007FA3"/>
<path opacity="0.1" d="M763.637 594.304H740.499V617.449H763.637V594.304Z" fill="#007FA3"/>
<path opacity="0.1" d="M675.31 651.393H652.173V674.537H675.31V651.393Z" fill="#007FA3"/>
<path opacity="0.1" d="M763.637 651.393H740.499V674.537H763.637V651.393Z" fill="#007FA3"/>
<path opacity="0.1" d="M675.31 708.481H652.173V731.626H675.31V708.481Z" fill="#007FA3"/>
<path opacity="0.1" d="M763.637 708.481H740.499V731.626H763.637V708.481Z" fill="#007FA3"/>
<path opacity="0.1" d="M652.173 780.487V765.562H675.302V778.363L652.173 780.487Z" fill="#007FA3"/>
<path opacity="0.1" d="M35.6438 436.816V450.056H114.826V436.816H35.6438ZM43.5352 449.226H37.0756V437.63H43.584L43.5352 449.226ZM51.4184 449.226H44.9101V437.63H51.4184V449.226ZM59.2854 449.226H52.7771V437.63H59.2854V449.226ZM67.1687 449.226H60.6684V437.63H67.1768L67.1687 449.226ZM75.0438 449.226H68.5354V437.63H75.0438V449.226ZM82.927 449.226H76.4187V437.63H82.927V449.226ZM90.8103 449.226H84.3019V437.63H90.8103V449.226ZM98.6854 449.226H92.177V437.63H98.6854V449.226ZM106.561 449.226H100.052V437.63H106.561V449.226ZM114.436 449.226H107.927V437.63H114.436V449.226Z" fill="#007FA3"/>
<path opacity="0.1" d="M35.6438 475.342V488.582H114.826V475.342H35.6438ZM43.5352 487.744H37.0756V476.18H43.584L43.5352 487.744ZM51.4184 487.744H44.9101V476.18H51.4184V487.744ZM59.2854 487.744H52.7771V476.18H59.2854V487.744ZM67.1687 487.744H60.6684V476.18H67.1768L67.1687 487.744ZM75.0438 487.744H68.5354V476.18H75.0438V487.744ZM82.927 487.744H76.4187V476.18H82.927V487.744ZM90.8103 487.744H84.3019V476.18H90.8103V487.744ZM98.6854 487.744H92.177V476.18H98.6854V487.744ZM106.561 487.744H100.052V476.18H106.561V487.744ZM114.436 487.744H107.927V476.18H114.436V487.744Z" fill="#007FA3"/>
<path opacity="0.1" d="M35.6438 513.883V527.149H114.826V513.883H35.6438ZM43.5352 526.286H37.0756V514.714H43.584L43.5352 526.286ZM51.4184 526.286H44.9101V514.714H51.4184V526.286ZM59.2854 526.286H52.7771V514.714H59.2854V526.286ZM67.1687 526.286H60.6684V514.714H67.1768L67.1687 526.286ZM75.0438 526.286H68.5354V514.714H75.0438V526.286ZM82.927 526.286H76.4187V514.714H82.927V526.286ZM90.8103 526.286H84.3019V514.714H90.8103V526.286ZM98.6854 526.286H92.177V514.714H98.6854V526.286ZM106.561 526.286H100.052V514.714H106.561V526.286ZM114.436 526.286H107.927V514.714H114.436V526.286Z" fill="#007FA3"/>
<path opacity="0.1" d="M35.6438 552.425V565.65H114.826V552.425H35.6438ZM43.5352 564.828H37.0756V553.247H43.584L43.5352 564.828ZM51.4184 564.828H44.9101V553.247H51.4184V564.828ZM59.2854 564.828H52.7771V553.247H59.2854V564.828ZM67.1687 564.828H60.6684V553.247H67.1768L67.1687 564.828ZM75.0438 564.828H68.5354V553.247H75.0438V564.828ZM82.927 564.828H76.4187V553.247H82.927V564.828ZM90.8103 564.828H84.3019V553.247H90.8103V564.828ZM98.6854 564.828H92.177V553.247H98.6854V564.828ZM106.561 564.828H100.052V553.247H106.561V564.828ZM114.436 564.828H107.927V553.247H114.436V564.828Z" fill="#007FA3"/>
<path opacity="0.1" d="M35.9855 590.959C36.3028 592.204 36.6608 593.449 37.035 594.678V591.789H43.5434V603.362H40.0614C40.1672 603.63 40.2729 603.923 40.3787 604.175H114.826V590.959H35.9855ZM51.4429 603.362H44.9345V591.789H51.4429V603.362ZM59.3099 603.362H52.8015V591.789H59.3099V603.362ZM67.1931 603.362H60.6685V591.789H67.1769L67.1931 603.362ZM75.0682 603.362H68.5599V591.789H75.0682V603.362ZM82.9515 603.362H76.4431V591.789H82.9515V603.362ZM90.8347 603.362H84.3264V591.789H90.8347V603.362ZM98.7099 603.362H92.2015V591.789H98.7099V603.362ZM106.585 603.362H100.077V591.789H106.585V603.362ZM114.46 603.362H107.952V591.789H114.46V603.362Z" fill="#007FA3"/>
<path opacity="0.1" d="M54.3716 629.501C54.575 629.762 54.7703 630.055 54.9818 630.315H59.2855V635.873C59.7492 636.427 60.2048 636.98 60.6766 637.501V630.282H67.185V641.895H64.5491C64.8094 642.164 65.0616 642.449 65.3626 642.709H114.851V629.501H54.3716ZM75.0438 641.895H68.5355V630.331H75.0438V641.895ZM82.9271 641.895H76.4187V630.331H82.9271V641.895ZM90.8103 641.895H84.302V630.331H90.8103V641.895ZM98.6854 641.895H92.1771V630.331H98.6854V641.895ZM106.561 641.895H100.052V630.331H106.561V641.895ZM114.436 641.895H107.927V630.331H114.436V641.895Z" fill="#007FA3"/>
<path opacity="0.1" d="M97.8068 668.035C98.5471 668.458 99.3037 668.849 100.068 669.272V668.865H106.577V672.527L107.96 673.17V668.865H114.468V675.904C114.593 675.967 114.724 676.016 114.859 676.051V668.035H97.8068Z" fill="#007FA3"/>
<path opacity="0.1" d="M634.804 465.747H634.852H634.804ZM584.689 705.934H585.503H584.689ZM532.403 583.724C532.557 584.245 532.687 584.766 532.834 585.279C532.704 584.766 532.565 584.245 532.403 583.724ZM634.804 465.722H634.852H634.804ZM143.422 343.863V347.338H179.763V343.863H143.422ZM584.689 705.934H585.503H584.689ZM532.403 583.724C532.557 584.245 532.687 584.766 532.834 585.279C532.704 584.766 532.565 584.245 532.403 583.724ZM634.804 465.722H634.852H634.804ZM584.689 705.91H585.503H584.689ZM532.403 583.724C532.557 584.245 532.687 584.766 532.834 585.279C532.704 584.766 532.565 584.245 532.403 583.724Z" fill="#007FA3"/>
<path d="M396.532 502.978C396.532 502.978 393.327 502.531 393.327 497.86C393.327 493.188 391.033 484.464 391.033 484.464C391.033 484.424 389.048 469.271 386.306 466.862C383.565 464.453 380.042 450.309 380.042 450.309C380.042 450.309 379.44 442.635 378.211 440.983C376.983 439.331 375.323 435.286 372.875 429.516C370.426 423.746 360.216 419.75 360.216 419.75C360.216 419.75 341.756 409.041 336.525 405.549C336.05 405.262 335.606 404.927 335.199 404.548C334.288 403.352 330.318 403.328 330.318 403.328C329.903 400.707 329.504 397.696 329.374 394.97C329.374 394.677 329.374 394.384 329.334 394.091C335.167 390.642 339.56 385.204 341.708 378.775C341.805 378.466 341.887 378.14 341.976 377.831C342.326 377.716 342.647 377.529 342.92 377.282C343.194 377.036 343.412 376.735 343.563 376.399C344.034 375.349 344.043 374.12 344.628 373.144C345.312 371.988 346.613 371.369 347.638 370.499C350.225 368.301 350.893 364.599 350.771 361.229C350.689 358.503 350.25 355.752 350.421 353.042L350.47 352.359C350.518 351.952 350.575 351.545 350.649 351.154C351.047 349.136 351.918 347.232 352.406 345.23C352.894 343.228 352.943 340.974 351.804 339.248C350.136 336.717 346.662 336.213 343.611 335.953C340.154 335.66 337.062 336.042 334.849 333.169C333.814 331.668 332.649 330.26 331.367 328.962C330.912 328.539 326.486 325.837 326.486 325.658C322.167 323.657 317.271 323.281 312.697 324.6C310.402 325.267 308.238 326.358 305.912 326.903C300.892 328.091 295.116 326.805 290.853 329.678C288.477 331.306 287.054 333.894 285.719 336.416C284.635 338.494 283.534 340.57 282.416 342.642C280.619 346.052 278.788 349.519 278.031 353.295C277.872 354.116 277.774 354.949 277.739 355.785V355.826C277.739 356.127 277.739 356.428 277.739 356.729V357.112C277.739 357.396 277.739 357.673 277.787 357.925C277.836 358.178 277.828 358.259 277.852 358.43C277.877 358.601 277.918 358.983 277.966 359.244C278.015 359.504 278.113 359.96 278.21 360.318C278.251 360.473 278.308 360.619 278.357 360.765C278.438 361.042 278.536 361.311 278.642 361.579C278.699 361.718 278.756 361.864 278.821 362.003C278.943 362.287 279.089 362.564 279.236 362.816C279.301 362.93 279.349 363.036 279.415 363.142C279.641 363.52 279.891 363.884 280.163 364.232C281.904 366.405 284.467 367.789 286.362 369.823C286.362 369.905 286.362 369.986 286.362 370.059C286.362 370.287 286.362 370.507 286.362 370.735C286.463 375.272 287.67 379.716 289.879 383.68C292.088 387.645 295.232 391.009 299.037 393.481C299.037 393.79 299.078 394.107 299.094 394.416C299.253 396.832 299.223 399.256 299.005 401.667C298.673 401.277 298.259 400.966 297.791 400.758C297.324 400.549 296.815 400.449 296.304 400.463C295.954 400.446 295.604 400.476 295.262 400.553L295.189 400.496V400.569C293.399 401.008 291.195 402.872 289.088 408.17C289.088 408.17 282.677 415.396 277.796 415.095C272.914 414.794 260.557 422.615 260.557 422.615C260.557 422.615 248.5 430.444 245.913 438.419C244.467 442.941 242.733 447.367 240.722 451.668L225.818 482.389L223.068 506.763C223.068 506.763 224.59 517.603 224.289 519.255C223.988 520.907 230.545 535.807 230.545 535.807C230.545 535.807 252.21 573.886 261.061 575.839L261.695 575.391C262.074 575.589 262.476 575.739 262.891 575.839L264.714 574.553C264.823 575.986 264.777 577.427 264.575 578.85C263.355 582.61 265.031 607.146 267.163 611.955C269.294 616.765 268.537 679.827 268.537 679.827L268.236 685.393C268.236 685.393 268.236 685.572 268.31 685.882L268.236 687.2L268.456 687.314C268.684 689.08 268.61 690.871 268.236 692.612C267.472 695.053 267.163 701.954 267.163 701.954C267.163 701.954 261.069 740.92 263.957 748.748C266.845 756.577 269.302 765.155 269.302 765.155C269.302 765.155 272.353 774.921 269.449 776.589C266.544 778.257 258.287 781.057 259.987 785.126C261.533 788.885 267.398 798.96 268.269 800.433L268.196 801.207L267 814.17C267.193 815.882 267.658 817.552 268.375 819.118C269.684 821.942 272.231 824.872 277.071 824.555C277.885 824.498 278.829 824.4 279.74 824.278C288.599 823.09 299.509 819.135 299.509 819.135C298.943 818.775 298.423 818.346 297.963 817.857V817.857C297.528 817.435 297.183 816.929 296.949 816.369C296.716 815.81 296.598 815.208 296.605 814.602C296.735 812.242 292.317 800.995 291.219 798.228C291.048 797.829 290.959 797.601 290.959 797.601C290.959 797.601 301.03 787.071 299.355 777.736C299.355 777.736 288.209 771.226 291.878 767.653C295.547 764.081 302.104 753.818 302.104 753.818C302.104 753.818 302.405 715.447 302.104 709.718C301.79 705.742 301.979 701.741 302.666 697.812C302.788 697.218 302.934 696.64 303.089 696.071C308.163 696.828 313.285 697.217 318.416 697.234C320.287 697.234 322.191 697.234 324.111 697.12C324.111 697.663 324.135 698.249 324.184 698.878C324.607 708.384 325.396 725.05 326.039 731.243C326.95 740.122 331.986 764.048 331.986 764.048C331.986 764.048 322.378 770.217 333.662 785.419C333.662 785.419 333.662 790.928 332.913 791.726C332.114 794.333 331.47 796.985 330.985 799.668C330.513 802.533 330.318 805.43 331.083 806.936C332.913 810.533 343.896 810.24 343.896 810.24L344.165 810.191C346.238 809.977 348.333 810.176 350.329 810.778C352.325 811.38 354.181 812.373 355.79 813.698C359.964 817.051 375.803 815.578 384.378 814.512C387.738 814.089 389.983 813.698 389.983 813.698C390.092 813.318 390.131 812.921 390.097 812.527C390.008 810.419 388.356 805.796 377.162 801.67C377.162 801.67 366.635 794.59 366.781 788.422H366.561H365.341C366.228 788.373 366.797 788.422 366.797 788.422C366.797 788.422 362.673 773.366 364.357 772.145C366.041 770.925 360.997 754.242 360.997 754.242C360.997 754.242 358.109 726.247 357.954 724.285C357.961 722.602 358.216 720.93 358.711 719.321L357.954 703.973C357.954 703.973 357.808 698.87 357.954 697.21C357.93 695.769 357.813 694.331 357.604 692.905C357.531 692.335 357.458 691.741 357.377 691.155C361.322 690.154 363.885 689.226 363.885 689.226L363.429 635.8C366.781 629.29 367.399 615.007 367.383 604.875C367.383 598.365 367.09 593.547 367.09 593.547L371.671 586.068C371.671 586.068 372.728 577.116 371.052 575.155C370.312 574.268 370.645 573.348 371.256 572.592C371.572 572.34 371.907 572.112 372.256 571.908C372.256 571.908 372.207 571.835 372.151 571.729C372.47 571.462 372.81 571.22 373.167 571.005C373.167 571.005 371.54 568.482 372.997 567.416C374.363 568.343 375.584 569.043 376.511 569.613C376.446 570.207 376.381 570.549 376.381 570.549L376.771 569.735C377.666 570.24 378.211 570.549 378.211 570.549C378.211 570.549 385.387 556.25 385.232 554.143C385.078 552.035 390.114 543.156 390.114 543.156C390.114 543.156 390.724 538.493 393.474 536.54C396.223 534.587 395.605 520.435 395.605 520.435C395.605 520.435 396.37 513.062 398.2 510.05C400.031 507.039 396.532 502.978 396.532 502.978ZM259.239 496.704L259.377 500.114C258.563 498.804 257.978 497.86 257.978 497.86L259.239 496.704Z" fill="url(#paint0_linear)"/>
<path d="M378.602 564.372L376.845 571.859C376.845 571.859 362.77 564.673 360.232 555.542C357.694 546.411 364.479 542.945 364.479 542.945L377.593 548.503L378.602 564.372Z" fill="white"/>
<path opacity="0.1" d="M378.602 564.372L376.845 571.859C376.845 571.859 362.77 564.673 360.232 555.542C357.694 546.411 364.479 542.945 364.479 542.945L377.593 548.503L378.602 564.372Z" fill="black"/>
<path d="M299.615 819.183C299.615 819.183 286.598 823.969 277.649 824.571C272.898 824.888 270.4 821.975 269.115 819.167C268.413 817.606 267.96 815.945 267.773 814.244L268.936 801.345L269.554 794.476L288.567 789.536L291.26 797.772L291.512 798.399C292.594 801.15 296.93 812.339 296.8 814.675C296.795 815.273 296.91 815.866 297.139 816.418C297.369 816.971 297.707 817.471 298.134 817.89C298.571 818.382 299.068 818.817 299.615 819.183V819.183Z" fill="white"/>
<path d="M388.527 812.624C388.56 813.016 388.521 813.41 388.413 813.788C388.413 813.788 360.574 818.435 354.879 813.788C353.273 812.43 351.402 811.424 349.384 810.832C347.367 810.241 345.248 810.078 343.164 810.354C343.164 810.354 332.393 810.647 330.595 807.099C329.846 805.609 330.041 802.72 330.505 799.872C330.978 797.203 331.608 794.564 332.393 791.97L332.824 791.628L335.386 789.569L365.39 788.682H365.618C365.471 794.818 375.803 801.858 375.803 801.858C386.778 805.927 388.397 810.525 388.527 812.624Z" fill="white"/>
<path opacity="0.1" d="M388.527 812.624C388.556 813.016 388.514 813.41 388.405 813.788C388.405 813.788 360.574 818.435 354.879 813.788C353.274 812.432 351.404 811.425 349.388 810.834C347.372 810.243 345.255 810.079 343.172 810.354C343.172 810.354 332.393 810.647 330.603 807.098C329.854 805.601 330.041 802.72 330.505 799.872C334.654 800.287 341.203 801.32 343.774 803.786C347.663 807.538 354.252 811.281 358.296 811.574C361.461 811.778 380.392 812.38 388.527 812.624Z" fill="black"/>
<path opacity="0.1" d="M299.615 819.183C299.615 819.183 286.598 823.969 277.649 824.571C272.898 824.888 270.4 821.975 269.123 819.159C272.434 820.274 277.031 821.446 279.447 820.372C282.311 819.102 292.464 818.28 298.159 817.93C298.592 818.405 299.081 818.826 299.615 819.183V819.183Z" fill="black"/>
<path d="M318.928 433.561C308.19 429.386 294.376 415.592 297.825 409.146C298.591 407.52 299.046 405.764 299.167 403.971C299.389 401.535 299.422 399.087 299.265 396.646C299.023 392.65 298.542 388.671 297.825 384.732C297.825 384.732 331.351 385.489 329.399 390.429C328.829 391.877 328.74 394.392 328.894 397.208C329.049 400.024 329.456 403.206 329.879 405.899C330.464 409.594 331.05 412.41 331.05 412.41C331.05 412.41 329 415.283 327.796 415.437C326.592 415.592 334.337 439.51 318.928 433.561Z" fill="#CF6F80"/>
<path opacity="0.1" d="M291.488 798.399L291.235 798.676C281.212 786.55 269.091 801.662 269.091 801.662L268.912 801.345L269.53 794.476L288.542 789.536L291.235 797.772L291.488 798.399Z" fill="black"/>
<path opacity="0.1" d="M365.626 789.536C365.626 789.536 358.304 789.382 354.399 792.832C350.494 796.283 331.62 793.581 332.433 792.832C332.674 792.461 332.82 792.036 332.856 791.595L335.419 789.536L365.422 788.649C365.536 789.195 365.626 789.536 365.626 789.536Z" fill="black"/>
<path d="M303.959 694.313C303.414 695.661 303 697.06 302.723 698.488C302.044 702.399 301.856 706.379 302.161 710.337C302.462 716.033 302.161 754.209 302.161 754.209C302.161 754.209 295.726 764.39 292.138 767.979C288.551 771.568 299.46 778.013 299.46 778.013C301.087 787.29 291.227 797.772 291.227 797.772C281.204 785.646 269.083 800.767 269.083 800.767C269.083 800.767 262.493 789.374 260.849 785.305C259.206 781.236 267.285 778.42 270.124 776.768C272.963 775.116 269.986 765.375 269.986 765.375C269.986 765.375 267.586 756.838 264.738 749.05C261.891 741.261 267.878 702.492 267.878 702.492C267.878 702.492 268.188 695.607 268.928 693.206C269.301 691.474 269.376 689.69 269.148 687.933C269.099 687.338 269.042 686.842 269.001 686.508C268.96 686.175 268.928 686.02 268.928 686.02L269.042 685.825L273.11 678.24C273.11 678.24 305.912 689.536 303.959 694.313Z" fill="#007FA3"/>
<path d="M365.626 788.641C365.626 788.641 358.304 788.487 354.399 791.897C350.494 795.306 331.62 792.645 332.433 791.897C333.247 791.148 333.182 785.606 333.182 785.606C322.109 770.485 331.555 764.349 331.555 764.349C331.555 764.349 326.608 740.545 325.713 731.715C325.087 725.547 324.314 708.969 323.899 699.505C323.72 695.436 323.614 692.636 323.614 692.636L332.661 690.813L333.824 690.577L355.644 686.199C355.644 686.199 356.246 690.268 356.652 693.597C356.855 695.018 356.969 696.45 356.994 697.885C356.848 699.513 356.994 704.607 356.994 704.607L357.734 719.883C357.251 721.485 357.001 723.149 356.994 724.823C357.141 726.768 359.98 754.616 359.98 754.616C359.98 754.616 364.918 771.234 363.234 772.43C361.55 773.627 365.626 788.641 365.626 788.641Z" fill="#007FA3"/>
<path opacity="0.1" d="M329.399 390.429C328.829 391.877 328.74 394.392 328.894 397.208C324.404 399.913 319.241 401.296 314 401.198C308.759 401.1 303.652 399.525 299.265 396.654C299.023 392.655 298.543 388.674 297.825 384.732C297.825 384.732 331.351 385.473 329.399 390.429Z" fill="black"/>
<path d="M342.358 372.444C342.365 375.376 341.904 378.291 340.992 381.078C338.953 387.323 334.774 392.646 329.192 396.106C323.61 399.567 316.984 400.942 310.487 399.988C303.989 399.035 298.037 395.815 293.684 390.896C289.33 385.978 286.855 379.678 286.696 373.111C286.696 372.883 286.696 372.672 286.696 372.444C286.633 368.747 287.306 365.075 288.676 361.641C290.047 358.208 292.087 355.081 294.678 352.445C297.269 349.808 300.359 347.714 303.768 346.285C307.176 344.855 310.835 344.119 314.531 344.119C318.227 344.119 321.886 344.855 325.295 346.285C328.703 347.714 331.793 349.808 334.384 352.445C336.975 355.081 339.015 358.208 340.386 361.641C341.756 365.075 342.43 368.747 342.367 372.444H342.358Z" fill="#CF6F80"/>
<path opacity="0.1" d="M318.928 433.561C308.19 429.386 294.376 415.592 297.825 409.146C298.591 407.52 299.046 405.764 299.167 403.971L313.868 416.056L322.964 423.518L329.879 405.907C330.464 409.602 331.05 412.418 331.05 412.418C331.05 412.418 329 415.291 327.796 415.445C326.592 415.6 334.337 439.51 318.928 433.561Z" fill="black"/>
<path d="M356.945 486.971L344.669 693.271L328.658 694.321L287.2 574.699L294.001 432.682L295.433 402.677L313.868 417.822L322.972 425.284L330.09 407.161L343.327 418.701L356.945 486.971Z" fill="#007FA3"/>
<path opacity="0.1" d="M303.959 694.313C303.414 695.661 303 697.06 302.723 698.488C291.073 696.688 279.758 693.152 269.156 687.998L268.936 687.884L269.009 686.574L269.05 685.89L273.118 678.305C273.118 678.305 305.912 689.536 303.959 694.313Z" fill="black"/>
<path opacity="0.1" d="M332.848 698.52C329.87 699.027 326.866 699.369 323.85 699.546C323.671 695.477 323.566 692.677 323.566 692.677L332.612 690.854L332.848 698.52Z" fill="black"/>
<path opacity="0.1" d="M356.604 693.637C350.819 695.143 341.887 696.836 333.889 695.778L333.776 690.618L355.595 686.24C355.595 686.24 356.197 690.268 356.604 693.637Z" fill="black"/>
<path opacity="0.1" d="M333.743 696.722C300.388 702.418 269.839 686.085 269.839 686.085L270.132 680.551C270.132 680.551 270.889 617.815 268.79 613.005C266.691 608.196 265.055 583.806 266.243 580.062C267.431 576.319 261.907 520.182 261.907 520.182L261.012 497.396L228.259 484.123L242.903 453.588C244.88 449.307 246.582 444.904 247.995 440.405C250.542 432.478 262.363 424.69 262.363 424.69C262.363 424.69 274.484 416.91 279.276 417.203C284.068 417.496 290.349 410.318 290.349 410.318C294.986 398.494 299.184 403.848 299.184 403.848C299.184 404.41 299.184 403.849 298.956 405.598C297.329 418.578 325.266 459.594 325.665 460.319L328.325 525.147L331.018 607.187L333.743 696.722Z" fill="black"/>
<path d="M332.848 696.722C299.493 702.418 268.936 686.085 268.936 686.085L269.237 680.551C269.237 680.551 269.994 617.815 267.887 613.005C265.779 608.196 264.152 583.806 265.348 580.062C266.544 576.319 261.012 520.182 261.012 520.182L260.109 497.396L227.339 484.074L241.983 453.54C243.957 449.257 245.658 444.853 247.076 440.356C249.614 432.429 261.443 424.641 261.443 424.641C261.443 424.641 273.565 416.861 278.349 417.154C283.132 417.447 289.421 410.269 289.421 410.269C294.066 398.445 299.184 403.8 299.184 403.8C299.184 404.361 298.695 404.613 298.956 405.549C302.535 418.139 324.371 459.546 324.77 460.27L327.462 525.098L330.155 607.138L332.848 696.722Z" fill="white"/>
<path opacity="0.1" d="M323.859 462.117C320.271 460.62 301.266 438.915 301.266 438.915V433.976C300.575 432.348 296.466 433.341 293.131 434.48L294.563 404.475L296.19 405.826C299.753 418.408 323.444 461.393 323.859 462.117Z" fill="black"/>
<path d="M324.762 460.319C321.166 458.821 302.161 437.117 302.161 437.117V432.177C301.47 430.55 297.361 431.542 294.026 432.682L295.466 402.677L297.093 404.028C300.664 416.609 324.363 459.602 324.762 460.319Z" fill="white"/>
<path opacity="0.1" d="M269.839 568.563C270.287 568.563 293.033 566.171 293.033 566.171C293.033 566.171 306.807 593.262 305.904 599.854C305 606.446 303.365 612.281 297.825 611.247C292.285 610.214 268.009 612.061 268.009 612.061L269.839 568.563Z" fill="black"/>
<path d="M268.936 566.765C269.384 566.765 292.13 564.372 292.13 564.372C292.13 564.372 305.895 591.472 305 598.056C304.106 604.639 302.454 610.482 296.922 609.449C291.39 608.415 267.106 610.263 267.106 610.263L268.936 566.765Z" fill="white"/>
<path d="M286.077 554.045C286.077 554.045 306.953 565.267 307.4 568.693C307.848 572.12 296.776 567.196 294.384 566.602C292.809 566.222 291.207 565.972 289.592 565.853L273.638 566.285L286.077 554.045Z" fill="#CF6F80"/>
<path opacity="0.1" d="M318.033 463.517C319.247 463.517 320.23 462.533 320.23 461.32C320.23 460.106 319.247 459.122 318.033 459.122C316.82 459.122 315.837 460.106 315.837 461.32C315.837 462.533 316.82 463.517 318.033 463.517Z" fill="black"/>
<path d="M318.033 462.622C319.247 462.622 320.23 461.638 320.23 460.424C320.23 459.211 319.247 458.227 318.033 458.227C316.82 458.227 315.837 459.211 315.837 460.424C315.837 461.638 316.82 462.622 318.033 462.622Z" fill="#3F3D56"/>
<path opacity="0.1" d="M322.077 558.635C323.29 558.635 324.273 557.651 324.273 556.437C324.273 555.224 323.29 554.24 322.077 554.24C320.864 554.24 319.88 555.224 319.88 556.437C319.88 557.651 320.864 558.635 322.077 558.635Z" fill="black"/>
<path d="M322.077 557.731C323.29 557.731 324.273 556.748 324.273 555.534C324.273 554.321 323.29 553.337 322.077 553.337C320.864 553.337 319.88 554.321 319.88 555.534C319.88 556.748 320.864 557.731 322.077 557.731Z" fill="#3F3D56"/>
<path opacity="0.1" d="M320.222 511.076C321.435 511.076 322.419 510.092 322.419 508.879C322.419 507.665 321.435 506.681 320.222 506.681C319.009 506.681 318.025 507.665 318.025 508.879C318.025 510.092 319.009 511.076 320.222 511.076Z" fill="black"/>
<path d="M320.222 510.181C321.435 510.181 322.419 509.197 322.419 507.983C322.419 506.77 321.435 505.786 320.222 505.786C319.009 505.786 318.025 506.77 318.025 507.983C318.025 509.197 319.009 510.181 320.222 510.181Z" fill="#3F3D56"/>
<path d="M370.857 565.398C370.857 565.398 372.354 567.644 370.857 568.693C369.36 569.743 371.003 572.282 371.003 572.282C371.003 572.282 367.269 574.471 368.913 576.441C370.556 578.41 369.515 587.305 369.515 587.305L365.024 594.743C365.024 594.743 365.292 599.537 365.309 606.015C365.309 616.122 364.715 630.331 361.428 636.809L361.884 689.959C361.884 689.959 346.158 695.704 332.995 693.955L331.042 608.668C331.042 608.668 333.889 560.303 334.939 551.026C335.553 546.209 335.803 541.353 335.687 536.499C335.687 536.499 335.24 521.981 333.735 515.243C333.735 515.243 332.108 486.051 331.945 477.97C331.872 474.105 332.075 462.825 332.303 452.099C332.555 440.372 332.84 429.313 332.84 429.313L329.871 405.81C329.871 405.81 332.84 405.509 333.735 406.705C334.136 407.08 334.572 407.415 335.037 407.706V407.706C340.162 411.173 358.271 421.834 358.271 421.834C358.271 421.834 368.294 425.821 370.694 431.534C373.094 437.247 374.762 441.3 375.925 442.928C377.089 444.555 377.723 452.205 377.723 452.205C377.723 452.205 381.173 466.284 383.866 468.668C386.558 471.053 388.527 486.222 388.527 486.222L364.731 504.94C364.731 504.94 362.64 536.076 362.193 537.28C361.745 538.485 370.857 565.398 370.857 565.398Z" fill="white"/>
<path d="M371.76 565.398C371.76 565.398 373.249 567.644 371.76 568.693C370.271 569.743 371.898 572.282 371.898 572.282C371.898 572.282 368.189 574.496 369.816 576.465C371.443 578.435 370.418 587.33 370.418 587.33L365.927 594.768C365.927 594.768 366.195 599.561 366.22 606.039C366.22 616.147 365.626 630.356 362.339 636.834L362.787 689.983C362.787 689.983 347.036 695.729 333.889 693.979L331.945 608.692C331.945 608.692 334.793 560.327 335.842 551.05C336.457 546.234 336.704 541.378 336.582 536.524C336.582 536.524 336.135 522.005 334.638 515.267C334.638 515.267 333.011 486.076 332.84 477.995C332.767 474.129 332.978 462.85 333.198 452.124C333.45 440.397 333.735 429.337 333.735 429.337L329.814 405.517C329.814 405.517 333.735 405.517 334.638 406.729C335.035 407.108 335.471 407.444 335.94 407.73C341.065 411.197 359.183 421.858 359.183 421.858C359.183 421.858 369.197 425.846 371.597 431.559C373.997 437.272 375.665 441.324 376.837 442.952C378.008 444.58 378.626 452.229 378.626 452.229C378.626 452.229 382.076 466.308 384.769 468.693C387.461 471.077 389.406 486.214 389.406 486.214L365.61 504.932C365.61 504.932 363.519 536.068 363.063 537.272C362.608 538.477 371.76 565.398 371.76 565.398Z" fill="white"/>
<path opacity="0.1" d="M343.261 436.246L345.409 442.513L334.101 453.906C334.353 442.187 334.638 431.119 334.638 431.119L330.717 407.299C330.717 407.299 334.638 407.299 335.541 408.512C335.937 408.89 336.373 409.223 336.843 409.504L346.459 437.255L343.261 436.246Z" fill="black"/>
<path d="M342.359 434.448L344.514 440.714L333.206 452.107C333.458 440.38 333.743 429.321 333.743 429.321L329.814 405.501C329.814 405.501 333.743 405.501 334.638 406.713C335.037 407.09 335.473 407.425 335.94 407.714L345.564 435.457L342.359 434.448Z" fill="white"/>
<path opacity="0.1" d="M342.358 372.444C342.365 375.376 341.904 378.291 340.992 381.078C340.838 381.102 340.681 381.095 340.53 381.057C340.379 381.02 340.237 380.952 340.113 380.858C339.902 373.534 336.298 366.657 331.864 360.806C330.619 359.04 329.11 357.475 327.389 356.167C325.65 354.861 323.486 354.248 321.32 354.45C318.88 354.784 316.724 356.444 314.259 356.656C311.004 356.924 308.092 354.67 304.862 354.556C303.549 354.569 302.254 354.861 301.063 355.414C299.872 355.967 298.812 356.768 297.955 357.763C296.258 359.77 294.998 362.11 294.254 364.631C292.974 368.455 292.278 372.449 292.187 376.48C292.146 378.759 291.927 381.615 289.812 382.445C289.971 380.77 289.78 379.079 289.252 377.481C288.725 375.882 287.871 374.411 286.745 373.16L286.696 373.111C286.696 372.883 286.696 372.672 286.696 372.444C286.633 368.747 287.306 365.075 288.676 361.641C290.047 358.208 292.087 355.081 294.678 352.445C297.269 349.808 300.359 347.714 303.768 346.285C307.176 344.855 310.835 344.119 314.531 344.119C318.227 344.119 321.886 344.855 325.295 346.285C328.703 347.714 331.793 349.808 334.384 352.445C336.975 355.081 339.015 358.208 340.386 361.641C341.756 365.075 342.43 368.747 342.367 372.444H342.358Z" fill="black"/>
<path d="M326.055 328.229C321.828 326.24 317.019 325.864 312.534 327.172C310.28 327.839 308.157 328.921 305.871 329.466C300.99 330.646 295.295 329.369 291.105 332.225C288.778 333.853 287.379 336.425 286.077 338.923L282.823 345.124C281.05 348.518 279.26 351.968 278.52 355.704C277.779 359.439 278.227 363.622 280.594 366.625C282.319 368.814 284.865 370.189 286.736 372.248C287.857 373.501 288.708 374.971 289.234 376.568C289.76 378.164 289.952 379.852 289.795 381.526C291.919 380.712 292.122 377.847 292.171 375.569C292.262 371.538 292.958 367.543 294.237 363.72C294.98 361.197 296.241 358.858 297.939 356.851C298.797 355.857 299.856 355.057 301.047 354.504C302.238 353.951 303.533 353.658 304.846 353.645C308.1 353.759 311.021 356.005 314.242 355.736C316.683 355.533 318.847 353.864 321.304 353.539C323.47 353.334 325.635 353.946 327.373 355.256C329.093 356.562 330.6 358.126 331.839 359.895C336.281 365.746 339.885 372.606 340.097 379.947C341.016 380.622 342.342 379.744 342.798 378.702C343.253 377.66 343.27 376.439 343.847 375.447C344.514 374.299 345.792 373.689 346.792 372.826C349.331 370.637 349.965 366.95 349.868 363.606C349.77 360.261 349.119 356.867 349.754 353.58C350.136 351.561 350.998 349.673 351.47 347.679C351.942 345.686 351.999 343.448 350.884 341.731C349.257 339.208 345.832 338.711 342.847 338.475C339.454 338.182 336.42 338.557 334.256 335.7C333.24 334.21 332.097 332.81 330.839 331.517C330.407 331.094 326.055 328.409 326.055 328.229Z" fill="#512E4E"/>
<path opacity="0.1" d="M237.631 499.845L229.129 484.123L226.436 508.382C226.436 508.382 227.933 519.157 227.632 520.809C227.331 522.461 233.766 537.272 233.766 537.272C233.766 537.272 255.024 575.147 263.705 577.1L293.033 556.136L285.256 546.257C285.256 546.257 282.563 545.207 281.888 546.257C281.888 546.257 267.447 521.403 265.95 519.605C264.453 517.806 264.746 514.217 264.746 514.217C264.746 514.217 262.501 511.825 263.249 509.578C263.998 507.332 258.913 499.544 258.913 499.544L263.55 495.207L237.631 499.845Z" fill="black"/>
<path d="M229.577 482.332L227.331 484.123L224.638 508.382C224.638 508.382 226.135 519.157 225.834 520.809C225.533 522.461 231.977 537.272 231.977 537.272C231.977 537.272 253.226 575.147 261.907 577.1L291.243 556.136L283.458 546.257C283.458 546.257 280.765 545.207 280.09 546.257C280.09 546.257 265.649 521.403 264.152 519.605C262.655 517.806 262.956 514.217 262.956 514.217C262.956 514.217 260.711 511.825 261.46 509.578C262.208 507.332 257.115 499.544 257.115 499.544L261.752 495.207L229.577 482.332Z" fill="white"/>
<path opacity="0.1" d="M368.913 577.369C370.54 579.346 369.515 588.225 369.515 588.225L365.024 595.663C365.024 595.663 365.292 600.464 365.309 606.934L357.759 609.294C357.077 609.507 356.353 609.554 355.649 609.431C354.945 609.308 354.281 609.018 353.711 608.585C353.142 608.153 352.685 607.59 352.377 606.945C352.069 606.3 351.92 605.59 351.942 604.875L353.244 562.875L370.857 569.613C369.36 570.655 371.003 573.21 371.003 573.21C371.003 573.21 367.269 575.391 368.913 577.369Z" fill="black"/>
<path d="M369.816 576.465C371.443 578.443 370.418 587.33 370.418 587.33L365.927 594.768C365.927 594.768 366.195 599.561 366.22 606.039L358.532 608.44C357.864 608.648 357.155 608.693 356.466 608.571C355.777 608.45 355.127 608.166 354.57 607.742C354.013 607.318 353.565 606.768 353.263 606.136C352.962 605.505 352.816 604.81 352.837 604.11L354.147 561.979L371.768 568.718C370.263 569.76 371.906 572.307 371.906 572.307C371.906 572.307 368.189 574.496 369.816 576.465Z" fill="white"/>
<path d="M375.649 556.446C375.649 556.446 374.453 564.087 371.459 564.535C368.465 564.982 367.123 576.897 364.137 576.473C361.151 576.05 363.128 565.398 363.234 563.33C363.34 561.263 359.98 552.702 362.494 550.757C365.008 548.812 372.964 550.757 372.964 550.757L375.649 556.446Z" fill="#CF6F80"/>
<path opacity="0.1" d="M382.019 497.599L387.665 486.206C387.665 486.206 389.91 494.889 389.91 499.528C389.91 504.167 393.05 504.622 393.05 504.622C393.05 504.622 396.492 508.691 394.678 511.654C392.863 514.616 392.131 521.989 392.131 521.989C392.131 521.989 392.725 536.06 390.032 538.005C387.339 539.95 386.778 544.597 386.778 544.597C386.778 544.597 381.832 553.426 381.986 555.526C382.141 557.626 375.104 571.843 375.104 571.843C375.104 571.843 378.545 554.175 358.491 546.542C358.491 546.542 358.337 540.544 359.833 538.9C361.33 537.256 363.665 536.507 362.201 528.198C360.737 519.889 361.778 509.961 361.778 507.967C361.778 505.973 366.269 493.538 366.269 493.538L382.019 497.599Z" fill="black"/>
<path d="M384.459 484.578L389.39 486.206C389.39 486.206 391.643 494.889 391.643 499.528C391.643 504.167 394.783 504.622 394.783 504.622C394.783 504.622 398.225 508.691 396.41 511.654C394.596 514.616 393.872 521.989 393.872 521.989C393.872 521.989 394.466 536.06 391.773 538.005C389.08 539.95 388.478 544.597 388.478 544.597C388.478 544.597 383.54 553.426 383.695 555.526C383.849 557.626 376.804 571.843 376.804 571.843C376.804 571.843 380.253 554.175 360.191 546.542C360.191 546.542 360.045 540.544 361.542 538.9C363.039 537.256 365.374 536.507 363.909 528.198C362.445 519.889 363.486 509.961 363.486 507.967C363.486 505.973 367.977 493.538 367.977 493.538L384.459 484.578Z" fill="white"/>
<path opacity="0.1" d="M275.566 779.885C275.566 779.885 283.425 774.945 288.583 778.534C293.741 782.123 275.566 779.885 275.566 779.885Z" fill="black"/>
<path opacity="0.1" d="M336.631 764.61C336.631 764.61 343.587 763.714 349.428 770.005C355.269 776.296 336.631 764.61 336.631 764.61Z" fill="black"/>
<g opacity="0.1">
<path opacity="0.1" d="M346.809 371.044C345.808 371.907 344.522 372.525 343.855 373.673C343.286 374.657 343.27 375.87 342.814 376.928C342.358 377.986 341.032 378.848 340.113 378.181C339.902 370.857 336.289 363.98 331.856 358.121C330.616 356.352 329.109 354.787 327.389 353.482C325.648 352.172 323.481 351.56 321.312 351.765C318.871 352.098 316.724 353.759 314.259 353.962C311.004 354.239 308.084 351.985 304.854 351.871C303.541 351.884 302.247 352.177 301.057 352.732C299.867 353.286 298.81 354.088 297.955 355.085C296.257 357.089 294.996 359.426 294.254 361.946C292.975 365.769 292.278 369.764 292.187 373.795C292.138 376.065 291.927 378.897 289.828 379.744C289.877 380.345 289.877 380.949 289.828 381.55C291.943 380.736 292.155 377.872 292.203 375.593C292.294 371.562 292.991 367.568 294.27 363.744C295.012 361.222 296.273 358.882 297.971 356.875C298.828 355.882 299.886 355.081 301.075 354.529C302.265 353.976 303.559 353.683 304.87 353.669C308.124 353.783 311.053 356.029 314.275 355.761C316.716 355.557 318.88 353.889 321.328 353.563C323.497 353.359 325.664 353.971 327.405 355.28C329.125 356.586 330.632 358.151 331.872 359.919C336.306 365.77 339.918 372.631 340.129 379.971C341.049 380.647 342.375 379.768 342.83 378.726C343.286 377.685 343.302 376.464 343.872 375.471C344.539 374.324 345.824 373.713 346.825 372.851C349.363 370.661 349.998 366.975 349.9 363.63C349.9 363.524 349.9 363.419 349.9 363.321C349.745 366.218 348.973 369.172 346.809 371.044Z" fill="black"/>
<path opacity="0.1" d="M286.753 370.466C284.882 368.407 282.327 367.032 280.61 364.851C279.165 362.92 278.339 360.596 278.243 358.186C277.987 361.198 278.828 364.201 280.61 366.641C282.327 368.83 284.882 370.206 286.753 372.265C288.549 374.279 289.628 376.831 289.82 379.524C289.944 377.885 289.737 376.238 289.21 374.682C288.683 373.126 287.847 371.692 286.753 370.466V370.466Z" fill="black"/>
<path opacity="0.1" d="M351.486 345.897C351.006 347.891 350.152 349.787 349.762 351.797C349.53 353.141 349.446 354.505 349.51 355.866C349.537 355.091 349.621 354.318 349.762 353.555C350.152 351.537 351.006 349.649 351.486 347.655C351.766 346.555 351.857 345.416 351.755 344.286C351.704 344.829 351.615 345.367 351.486 345.897V345.897Z" fill="black"/>
</g>
<path opacity="0.1" d="M128.982 812.974C172.762 812.974 208.254 807.272 208.254 800.238C208.254 793.204 172.762 787.502 128.982 787.502C85.2012 787.502 49.71 793.204 49.71 800.238C49.71 807.272 85.2012 812.974 128.982 812.974Z" fill="#007FA3"/>
<path d="M131.536 556.258H126.435V671.144H131.536V556.258Z" fill="#535461"/>
<path d="M163.59 670.794L163.273 675.97L162.817 683.294L162.63 686.337L162.183 693.662L161.987 696.705L161.532 704.03L156.39 787.095C156.167 790.669 154.59 794.023 151.982 796.476C149.373 798.928 145.928 800.294 142.348 800.295H115.615C112.036 800.294 108.593 798.928 105.985 796.475C103.378 794.023 101.803 790.668 101.582 787.095L96.4645 703.973L96.0089 696.648L95.8218 693.605L95.3662 686.281L95.1791 683.237L94.7235 675.913L94.3981 670.737C94.3415 669.741 94.4891 668.743 94.8316 667.806C95.1742 666.869 95.7046 666.012 96.3902 665.287C97.0758 664.563 97.9022 663.986 98.8187 663.592C99.7352 663.198 100.723 662.996 101.72 662.998H156.398C157.392 663.006 158.373 663.218 159.282 663.621C160.191 664.024 161.007 664.608 161.681 665.339C162.355 666.069 162.872 666.93 163.2 667.869C163.529 668.807 163.661 669.802 163.59 670.794V670.794Z" fill="#3F3D56"/>
<path d="M163.273 675.97L162.817 683.269H95.1465L94.6909 675.97H163.273Z" fill="#9D9CB5"/>
<path d="M162.63 686.313L162.183 693.621H95.7892L95.3336 686.313H162.63Z" fill="#9D9CB5"/>
<path d="M161.987 696.673L161.54 703.973H96.4319L95.9763 696.673H161.987Z" fill="#9D9CB5"/>
<path d="M86.9053 599.317C116.608 620.818 129.006 654.444 129.006 654.444C129.006 654.444 93.2103 653.216 63.4996 631.715C33.7889 610.214 21.4149 576.596 21.4149 576.596C21.4149 576.596 57.1946 577.816 86.9053 599.317Z" fill="#7BC0BE"/>
<path d="M21.3905 576.596C21.3905 576.596 58.5533 597.226 70.4717 614.307C82.3901 631.389 129.006 654.444 129.006 654.444" stroke="#535461" stroke-width="2" stroke-miterlimit="10"/>
<path d="M106.081 556.006C122.246 567.701 129.006 586.003 129.006 586.003C129.006 586.003 109.522 585.336 93.3486 573.641C77.1753 561.947 70.431 543.636 70.431 543.636C70.431 543.636 89.9073 544.304 106.081 556.006Z" fill="#7BC0BE"/>
<path d="M70.431 543.636C70.431 543.636 90.6558 554.867 97.1397 564.161C103.624 573.454 129.006 586.003 129.006 586.003" stroke="#535461" stroke-width="2" stroke-miterlimit="10"/>
<path d="M152.477 585.075C133.904 605.494 129.974 632.179 129.974 632.179C129.974 632.179 156.162 625.75 174.719 605.323C193.276 584.896 197.222 558.22 197.222 558.22C197.222 558.22 171.05 564.657 152.477 585.075Z" fill="#7BC0BE"/>
<path d="M197.238 558.228C197.238 558.228 173.043 579.159 166.893 593.58C160.743 608 129.974 632.179 129.974 632.179" stroke="#535461" stroke-width="2" stroke-miterlimit="10"/>
<path d="M834.277 577.889C834.277 577.889 820.845 511.043 825.987 502.726C825.987 502.726 826.174 494.995 825.865 485.14C825.865 484.765 825.865 484.391 825.865 484.009C826.769 484.612 827.712 485.156 828.688 485.636C833.425 488.071 838.864 488.773 844.064 487.622L839.996 483.089C839.02 482.007 838.003 480.835 837.791 479.402C837.58 477.97 838.166 476.692 838.67 475.415C842.534 465.649 842.738 453.369 835.294 445.914C829.005 439.648 827.476 431.559 820.65 425.838C815.663 421.646 812.921 415.502 810.334 409.561C808.146 404.54 805.941 399.478 804.688 394.156C803.712 389.997 803.321 385.692 801.979 381.632C800.637 377.571 798.123 373.624 794.193 371.809C792.794 371.166 791.24 370.8 789.963 369.945C788.287 368.814 787.278 366.975 786.066 365.364C779.908 357.225 759.284 362.019 749.522 365.323C746.868 366.155 744.41 367.517 742.297 369.327L742.387 369.18C742.46 369.058 742.55 368.936 742.631 368.814C741.562 369.678 740.639 370.709 739.897 371.866C738.474 374.12 737.88 376.749 736.692 379.19C735.26 382.079 727.296 390.144 730.721 393.391C730.961 393.609 731.236 393.785 731.534 393.912C732.82 394.447 734.236 394.589 735.602 394.319L735.455 394.669C734.286 397.534 733.686 400.599 733.69 403.694C733.69 417.065 744.714 427.905 758.324 427.905C760.883 427.907 763.427 427.515 765.866 426.741C765.923 427.05 765.972 427.359 766.028 427.669C766.028 427.791 766.069 427.913 766.085 428.035L765.654 428.637C765.633 428.6 765.608 428.565 765.581 428.531L752.808 446.386C750.856 447.762 739.613 455.9 738.978 462.003C738.311 468.685 737.644 476.505 737.644 476.505L737.554 478.182C736.996 478.648 736.343 478.988 735.641 479.178C734.939 479.368 734.204 479.402 733.487 479.28C729.5 478.629 729.5 493.929 729.5 493.929C729.5 493.929 726.848 496.37 725.026 494.254C723.203 492.139 718.387 499.308 718.387 499.308L688.205 500.61L687.513 500.651L685.886 495.613C685.711 495.082 685.333 494.641 684.835 494.387C684.337 494.132 683.759 494.085 683.226 494.254C683.1 494.296 682.977 494.348 682.86 494.409L682.746 494.474L682.534 494.621L682.429 494.718C682.37 494.771 682.316 494.828 682.266 494.889L682.168 495.003L682.119 495.052C681.932 495.312 681.807 495.612 681.756 495.929C681.705 496.245 681.729 496.569 681.827 496.875L683.226 501.196C677.401 502.368 671.446 505.672 676.303 514.771L651.685 510.221L659.649 516.911L700.766 525.399C700.221 526.375 700.579 527.791 702.279 529.785C709.601 538.387 722.943 540.723 728.312 541.325C729.73 544.498 731.502 547.501 733.592 550.277L733.129 558.846C733.129 558.846 719.534 624.163 717.045 627.475C718.302 626.05 719.452 624.535 720.486 622.942C716.54 636.362 711.025 654.729 709.577 657.48C707.25 661.874 705.094 679.656 707.746 680.795C708.56 681.145 710.886 680.975 714.206 680.722V682.195L714.059 738.014C714.059 738.014 714.726 772.251 712.896 775.515C711.065 778.778 710.577 785.622 710.577 785.622C710.577 785.622 703.255 799.123 697.455 804.551C697.415 804.593 697.372 804.632 697.325 804.665L697.146 803.396C697.146 803.396 690.173 812.201 674.749 811.705C674.749 811.705 665.466 817.743 679.231 818.069C692.996 818.394 710.577 817.58 710.577 817.58C710.577 817.58 722.854 798.863 733.137 801.304V815.489H736.285V801.076C737.745 800.115 738.995 798.867 739.959 797.408C740.922 795.949 741.579 794.309 741.891 792.588C742.16 790.815 741.963 789.001 741.318 787.327C740.673 785.653 739.603 784.176 738.213 783.042C737.589 782.478 737.088 781.79 736.742 781.023C736.397 780.255 736.213 779.424 736.204 778.583L736.09 778.68C736.09 778.395 736.017 778.103 735.984 777.801C735.081 770.477 733.95 755.365 737.945 744.183C743.42 728.851 745.08 707.497 741.093 694.785C739.807 690.722 738.75 686.589 737.929 682.407C737.831 681.878 737.741 681.373 737.66 680.901C740.385 681.27 743.083 681.814 745.739 682.529C754.972 685.076 775.173 685.548 792.42 685.41C792.461 685.882 792.509 686.378 792.566 686.875C792.874 690.325 793.517 693.738 794.486 697.063C796.65 703.574 797.643 732.277 797.643 732.277C797.643 732.277 800.433 755.877 798.912 765.48C798.098 770.819 797.285 776.182 796.821 781.569V781.675C796.821 781.675 792.249 794.696 788.905 801.768C788.824 801.947 788.735 802.126 788.653 802.297C787.762 802.378 786.884 802.572 786.042 802.875C786.042 802.875 781.559 811.827 777.093 813.308C772.626 814.789 774.107 819.664 784.219 817.873C794.332 816.083 809.602 814.618 809.602 814.618L810.261 805.487L813.369 801.597L812.555 810.704L815.866 810.053L815.427 798.977L820.512 792.613C820.512 792.613 826.654 787.144 817.526 776.385V776.621C817.428 776.467 817.339 776.304 817.233 776.149V776.101C815.72 773.757 814.516 769.387 816.72 761.631C820.707 747.617 823.025 734.897 823.025 734.897C823.025 734.897 831.926 700.823 821.227 684.702H821.699C820.603 682.433 819.828 680.023 819.397 677.54C819.343 677.247 819.294 676.946 819.251 676.637C827.166 676.181 834.936 674.749 841.273 671.656C841.249 671.624 837.433 590.764 834.277 577.889ZM733.78 521.493V521.655L732.152 521.737L733.78 521.493ZM728.199 522.266C727.931 522.325 727.681 522.445 727.466 522.616C726.767 523.606 726.328 524.756 726.189 525.96L723.651 525.391C723.651 525.391 721.869 525.008 719.307 524.577L718.094 523.356C721.43 523.08 724.896 522.673 728.199 522.266V522.266Z" fill="url(#paint1_linear)"/>
<path d="M812.181 799.091L811.213 810.622L814.459 809.971L813.971 797.463L812.181 799.091Z" fill="#1D2366"/>
<path d="M738.124 744.338C734.211 755.487 735.317 770.534 736.196 777.842C736.521 780.544 736.822 782.188 736.822 782.188C736.822 782.188 730.973 795.518 730.485 796.023C729.996 796.527 713.27 806.74 713.27 806.74L701.579 813.568C701.579 813.568 689.718 808.368 695.405 806.578C696.566 806.111 697.613 805.398 698.472 804.486C704.166 799.074 711.317 785.622 711.317 785.622C711.317 785.622 711.806 778.794 713.595 775.547C715.385 772.3 714.734 738.177 714.734 738.177L714.873 682.553V675.302L737.123 675.465C737.263 677.927 737.584 680.375 738.083 682.789C738.882 686.957 739.917 691.076 741.183 695.127C745.104 707.814 743.477 729.062 738.124 744.338Z" fill="#FFB0B1"/>
<path opacity="0.1" d="M736.822 782.188C736.822 782.188 730.973 795.518 730.485 796.023C729.997 796.527 713.27 806.74 713.27 806.74L701.579 813.568C701.579 813.568 689.718 808.368 695.405 806.578C696.566 806.111 697.613 805.398 698.472 804.486L698.976 808.042L702.873 807.88L736.228 777.858C736.521 780.544 736.822 782.188 736.822 782.188Z" fill="black"/>
<path d="M736.415 778.615L702.873 808.84L698.976 809.003L698.162 803.306C698.162 803.306 691.345 812.079 676.197 811.591C676.197 811.591 667.101 817.605 680.582 817.93C694.062 818.256 711.277 817.442 711.277 817.442C711.277 817.442 723.301 798.724 733.365 801.166V815.302H736.456V801.036C737.893 800.068 739.12 798.819 740.063 797.364C741.005 795.91 741.643 794.28 741.939 792.572C742.207 790.813 742.018 789.014 741.389 787.35C740.761 785.685 739.715 784.21 738.352 783.067C737.743 782.496 737.257 781.806 736.924 781.041C736.591 780.275 736.418 779.45 736.415 778.615V778.615Z" fill="#1D2366"/>
<path d="M815.272 761.721C813.108 769.452 814.288 773.806 815.769 776.141V776.19C817.668 779.074 818.988 782.299 819.657 785.687L819.787 786.42L804.525 808.677L796.244 811.933C796.244 811.933 782.926 807.383 785.358 806.081C785.969 805.764 786.92 804.071 788.01 801.736C791.265 794.696 795.755 781.708 795.755 781.708V781.602C796.227 776.239 796.976 770.892 797.806 765.57C799.294 755.991 796.561 732.48 796.561 732.48C796.561 732.48 795.585 703.891 793.469 697.389C792.514 694.083 791.88 690.693 791.574 687.265C791.134 683.196 791.037 679.843 791.037 679.843C791.037 679.843 799.807 667.636 815.883 680.82C817.168 681.871 818.299 683.099 819.242 684.466C830.347 700.27 821.406 735.085 821.406 735.085C821.406 735.085 819.169 747.747 815.272 761.721Z" fill="#FFB0B1"/>
<path opacity="0.1" d="M819.812 786.42L804.55 808.677L796.268 811.933C796.268 811.933 782.95 807.383 785.383 806.081C785.993 805.764 786.945 804.071 788.035 801.735C793.673 801.687 796.593 807.058 796.593 807.058L803.736 805.918C803.736 805.918 813.157 787.396 815.272 786.265C817.387 785.134 815.598 777.81 815.598 777.81V775.946C815.655 776.011 815.703 776.084 815.769 776.149V776.198C817.668 779.082 818.988 782.307 819.657 785.695L819.812 786.42Z" fill="black"/>
<path d="M797.081 807.538C797.081 807.538 793.014 800.067 785.22 802.826C785.22 802.826 780.835 811.778 776.45 813.226C772.065 814.675 773.529 819.558 783.438 817.776C793.347 815.993 808.284 814.52 808.284 814.52L808.935 805.414L819.006 792.58C819.006 792.58 825.01 787.136 816.078 776.418V778.282C816.078 778.282 817.868 785.606 815.752 786.737C813.637 787.868 804.249 806.399 804.249 806.399L797.081 807.538Z" fill="#1D2366"/>
<path opacity="0.1" d="M737.148 675.449C737.288 677.91 737.609 680.358 738.107 682.773C728.947 681.43 720.446 682.098 714.873 682.537V675.286L737.148 675.449Z" fill="black"/>
<path opacity="0.1" d="M820.145 686.492C820.145 686.492 807.129 687.127 791.606 687.257C791.167 683.188 791.069 679.835 791.069 679.835C791.069 679.835 799.839 667.628 815.915 680.812C817.2 681.863 818.332 683.091 819.275 684.458C819.527 685.151 819.818 685.831 820.145 686.492V686.492Z" fill="black"/>
<path d="M820.145 685.027C820.145 685.027 763.132 687.786 745.755 682.911C728.378 678.037 711.155 682.26 708.56 681.129C705.964 679.998 708.072 662.281 710.349 657.895C712.627 653.508 725.123 609.148 725.123 609.148L737.148 546.436L749.814 542.945L750.709 542.692L772.781 536.605L788.954 532.137C788.954 532.137 821.113 657.732 818.356 666.993C817.354 670.54 817.192 674.271 817.884 677.89C818.305 680.362 819.066 682.764 820.145 685.027V685.027Z" fill="#1D2366"/>
<path d="M695.234 503.548C695.234 503.548 683.844 515.755 692.468 522.559C701.091 529.362 706.762 523.21 706.762 523.21L695.234 503.548Z" fill="#C7DAF5"/>
<path opacity="0.1" d="M695.234 503.548C695.234 503.548 683.844 515.755 692.468 522.559C701.091 529.362 706.762 523.21 706.762 523.21L695.234 503.548Z" fill="black"/>
<path d="M787.254 423.29C787.254 423.29 785.92 424.56 783.91 426.432C781.046 429.109 776.808 433.024 773.049 436.303C767.843 440.836 763.547 444.165 765.085 441.324C766.622 438.484 766.329 433.536 765.565 428.906C765.508 428.596 765.459 428.287 765.402 427.986C764.769 424.585 763.929 421.226 762.888 417.927C762.888 417.927 771.3 407.055 775.954 402.766C777.687 401.139 778.899 400.471 778.972 401.602C779.053 403.124 780.192 406.485 781.608 410.05C781.649 410.164 781.689 410.269 781.738 410.383C782.682 412.825 783.747 415.331 784.683 417.496C786.115 420.816 787.254 423.29 787.254 423.29Z" fill="#FFB0B1"/>
<path opacity="0.1" d="M781.738 410.383C780.947 414.637 779.029 418.6 776.184 421.858C773.339 425.116 769.672 427.55 765.565 428.906C764.918 425.191 764.024 421.523 762.888 417.927C762.888 417.927 778.728 397.46 778.972 401.602C779.029 403.173 780.265 406.656 781.738 410.383Z" fill="black"/>
<path opacity="0.1" d="M763.986 434.374L766.037 431.485C766.037 431.485 767.395 439.77 772.39 436.116C777.386 432.462 777.63 463.615 777.63 463.615L772.268 543.799L733.527 541.48L734.626 502.734L739.011 483.203L749.855 454.809L756.307 445.426L763.986 434.374Z" fill="black"/>
<path d="M777.63 464.111L772.748 536.613L772.236 544.295L750.636 543.002L749.823 542.953L733.552 541.976L734.65 503.223L739.035 483.691L749.88 455.297L756.331 445.914L764.011 434.822L766.061 431.941C766.061 431.941 767.42 440.226 772.415 436.572L772.52 436.498C777.402 433.406 777.63 464.111 777.63 464.111Z" fill="#1D2366"/>
<path d="M739.58 476.904C739.58 476.904 737.636 480.973 733.731 480.314C729.826 479.655 729.834 494.962 729.834 494.962C729.834 494.962 727.239 497.404 725.449 495.288C723.659 493.172 718.94 500.325 718.94 500.325L689.376 501.628C689.376 501.628 702.531 507.642 699.952 525.838C699.952 525.838 744.616 523.071 746.08 518.848C747.545 514.624 739.58 476.904 739.58 476.904Z" fill="white"/>
<path opacity="0.03" d="M739.58 476.904C739.58 476.904 737.636 480.973 733.731 480.314C729.826 479.655 729.834 494.962 729.834 494.962C729.834 494.962 727.239 497.404 725.449 495.288C723.659 493.172 718.94 500.325 718.94 500.325L689.376 501.628C689.376 501.628 702.531 507.642 699.952 525.838C699.952 525.838 744.616 523.071 746.08 518.848C747.545 514.624 739.58 476.904 739.58 476.904Z" fill="black"/>
<path d="M653.661 511.19L661.455 517.847L725.611 531.332L717.655 523.21L653.661 511.19Z" fill="white"/>
<path d="M764.108 436.938C763.043 438.566 759.992 446.899 757.445 454.174C755.322 460.237 753.549 465.568 753.549 465.568C753.549 465.568 749.408 492.537 747.292 497.412C745.177 502.287 746.324 521.297 746.324 521.297L738.441 568.246C738.441 568.246 734.87 592.457 729.354 606.918C723.911 621.152 717.85 627.825 717.663 628.036C720.104 624.732 733.405 559.676 733.405 559.676L737.798 477.628C737.798 477.628 738.441 469.832 739.092 463.167C739.743 456.502 752.922 447.404 752.922 447.404L765.63 429.329C766.907 431.038 766.053 434.016 764.108 436.938Z" fill="white"/>
<path d="M730.973 542.383C730.973 542.383 712.261 541.569 703.198 530.68C694.135 519.792 724.147 526.335 724.147 526.335L731.949 528.125L730.973 542.383Z" fill="#FFB0B1"/>
<path opacity="0.1" d="M818.356 667.001C817.354 670.548 817.192 674.279 817.884 677.898C797.472 679.347 775.636 673.829 775.636 673.829C771.569 677.573 760.854 683.09 760.854 683.09L755.013 610.661C751.279 600.896 749.814 549.732 749.814 549.732C749.814 549.732 750.148 547.054 750.628 543.042C750.628 542.945 750.628 542.839 750.669 542.741C752.125 531.535 755.013 510.498 756.429 507.658C758.381 503.752 750.425 493.359 750.425 493.359L754.045 462.475L754.484 458.748C762.115 455.338 767.965 444.449 767.965 444.449L772.455 436.58C777.337 433.447 777.589 464.152 777.589 464.152L772.708 536.654L788.881 532.186C788.881 532.186 821.113 657.74 818.356 667.001Z" fill="black"/>
<path d="M839.304 672.006C817.054 683.058 776.613 672.82 776.613 672.82C772.545 676.564 761.831 682.081 761.831 682.081L755.981 609.652C752.255 599.887 750.791 548.723 750.791 548.723C750.791 548.723 755.493 510.547 757.446 506.649C758.015 505.509 757.738 503.817 757.063 501.994C753.743 493.317 752.522 483.978 753.5 474.739L755.062 461.466L755.493 457.747C763.132 454.329 768.982 443.44 768.982 443.44L773.049 436.311L780.534 423.176L784.081 416.959L784.683 417.504L789.28 421.671C789.28 421.671 791.232 423.299 794.161 425.74C800.531 431.111 811.538 440.568 817.217 446.354C822.212 451.448 823.79 471.264 824.246 486.181C824.547 496.004 824.368 503.703 824.368 503.703C819.332 511.995 832.503 578.573 832.503 578.573C835.57 591.439 839.304 672.006 839.304 672.006Z" fill="white"/>
<path opacity="0.03" d="M796.593 443.277C796.593 443.277 781.323 472.355 783.097 483.406C784.87 494.458 789.914 506.966 787.482 509.888C786.646 510.995 785.565 511.893 784.325 512.513C783.084 513.133 781.717 513.457 780.331 513.46C777.89 513.623 771.382 518.172 771.382 518.661C771.382 519.149 765.369 519.149 759.992 521.427C754.614 523.706 746.674 525 746.674 525C746.674 525 731.217 524.512 729.777 525.977C728.337 527.442 726.856 536.206 729.94 543.197C733.023 550.187 736.448 555.404 739.035 556.356C741.622 557.308 758.039 551.807 771.357 550.505C784.675 549.203 799.132 538.648 799.132 538.648C799.132 538.648 815.053 532.951 817.843 523.372C820.634 513.794 814.434 461.149 814.434 461.149C814.434 461.149 809.748 436.612 796.593 443.277Z" fill="black"/>
<path opacity="0.03" d="M794.641 440.836C794.641 440.836 779.371 469.922 781.16 480.965C782.95 492.008 787.978 504.525 785.537 507.454C784.705 508.562 783.626 509.462 782.386 510.082C781.147 510.702 779.78 511.025 778.394 511.027C775.954 511.19 769.445 515.739 769.445 516.227C769.445 516.716 763.433 516.716 758.056 518.986C752.678 521.257 744.738 522.559 744.738 522.559C744.738 522.559 729.281 522.07 727.849 523.535C726.417 525 724.92 533.773 728.011 540.755C731.103 547.738 734.52 552.963 737.107 553.915C739.694 554.867 756.111 549.365 769.429 548.072C782.747 546.778 797.204 536.206 797.204 536.206C797.204 536.206 813.117 530.51 815.874 520.939C818.632 511.369 812.466 458.707 812.466 458.707C812.466 458.707 807.796 434.179 794.641 440.836Z" fill="black"/>
<path d="M796.113 441.813C796.113 441.813 780.843 470.898 782.633 481.942C784.423 492.985 789.45 505.501 787.018 508.423C786.185 509.534 785.106 510.435 783.864 511.057C782.623 511.678 781.255 512.002 779.867 512.004C777.426 512.166 770.918 516.716 770.918 517.196C770.918 517.676 764.914 517.684 759.528 519.963C754.143 522.241 746.21 523.535 746.21 523.535C746.21 523.535 730.753 523.047 729.313 524.512C727.873 525.977 726.392 534.75 729.476 541.732C732.559 548.714 735.984 553.939 738.571 554.891C741.158 555.843 757.576 550.342 770.893 549.04C784.211 547.738 798.668 537.183 798.668 537.183C798.668 537.183 814.589 531.486 817.379 521.908C820.17 512.329 814.011 459.684 814.011 459.684C814.011 459.684 809.26 435.188 796.113 441.813Z" fill="white"/>
<path opacity="0.1" d="M795.78 519.824C795.78 519.824 783.577 517.383 787.823 521.452C792.07 525.521 792.046 529.085 797.244 528.923C802.443 528.76 795.78 519.824 795.78 519.824Z" fill="black"/>
<path opacity="0.1" d="M816.403 607.374C816.403 607.374 810.887 611.109 821.439 619.719C831.991 628.329 816.403 607.374 816.403 607.374Z" fill="black"/>
<path opacity="0.1" d="M805.876 638.079C805.876 638.567 803.923 655.982 811.229 660.336C818.535 664.69 805.876 638.079 805.876 638.079Z" fill="black"/>
<path d="M689.881 501.587C683.99 501.79 671.267 503.589 677.865 515.902C683.698 526.799 693.501 519.515 699.017 513.989C697.671 508.837 694.401 504.398 689.881 501.587V501.587Z" fill="#FFB0B1"/>
<path d="M699.09 513.891L699.334 513.639L699.09 513.891Z" fill="#FFB0B1"/>
<path opacity="0.1" d="M794.161 426.236C787.913 430.509 782.674 434.114 781.648 434.863C778.85 436.938 773.513 449.121 770.072 455.338C767.33 460.343 758.422 461.629 755.062 461.946L755.493 458.227C763.132 454.809 768.982 443.92 768.982 443.92L784.081 417.439L789.28 422.167C789.28 422.167 791.232 423.795 794.161 426.236Z" fill="black"/>
<path d="M794.161 425.748C787.913 430.021 782.674 433.626 781.648 434.383C778.85 436.45 773.513 448.632 770.072 454.85C767.33 459.855 758.422 461.141 755.062 461.458L755.493 457.739C763.132 454.321 768.982 443.432 768.982 443.432L784.081 416.951L789.28 421.663C789.28 421.663 791.232 423.274 794.161 425.748Z" fill="#DCE7FF"/>
<path d="M782.137 405.012C782.14 409.897 780.659 414.668 777.89 418.692C774.62 423.45 769.753 426.878 764.172 428.353C758.591 429.828 752.667 429.253 747.474 426.733C742.281 424.213 738.163 419.913 735.867 414.616C733.572 409.318 733.251 403.372 734.963 397.858C736.674 392.344 740.306 387.626 745.197 384.561C750.089 381.496 755.917 380.286 761.624 381.152C767.331 382.017 772.538 384.9 776.302 389.278C780.066 393.656 782.136 399.238 782.137 405.012V405.012Z" fill="#FFB0B1"/>
<path opacity="0.1" d="M824.246 486.19C820.942 484.157 818.251 481.265 816.46 477.824C815.101 475.138 814.198 472.037 811.88 470.133C809.789 468.424 806.999 468.009 804.395 467.244C795.837 464.713 788.661 456.901 788.393 447.981C788.263 443.782 789.572 439.591 788.978 435.432C788.641 433.079 787.705 430.851 786.261 428.963C785.544 428.059 784.758 427.213 783.91 426.432C782.771 425.357 781.575 424.316 780.534 423.176C779.878 422.471 779.305 421.693 778.825 420.857C778.439 420.173 778.125 419.45 777.89 418.7C776.263 413.72 777.743 407.812 775.954 402.774L775.856 402.498C775.181 400.707 773.806 398.917 771.894 398.778C769.982 398.64 768.347 400.227 766.525 400.935C762.709 402.416 758.593 399.893 755.412 397.322C752.231 394.75 748.643 391.812 744.6 392.382C741.923 392.764 739.808 394.587 737.343 395.531C736.786 395.747 736.212 395.913 735.626 396.028C737.712 390.824 741.545 386.509 746.466 383.824C751.387 381.14 757.089 380.253 762.593 381.317C768.096 382.381 773.057 385.329 776.624 389.655C780.19 393.98 782.139 399.413 782.137 405.02C782.139 406.714 781.962 408.402 781.608 410.058C781.648 410.172 781.689 410.278 781.738 410.392C782.682 412.833 783.747 415.339 784.683 417.504L789.28 421.671C789.28 421.671 791.232 423.299 794.161 425.74C800.531 431.111 811.538 440.568 817.217 446.354C822.212 451.464 823.774 471.273 824.246 486.19Z" fill="black"/>
<path d="M737.058 380.663C738.221 378.295 738.799 375.642 740.19 373.396C742.232 370.141 745.796 368.057 749.457 366.796C759.016 363.5 779.216 358.715 785.253 366.796C786.44 368.423 787.425 370.23 789.068 371.353C790.321 372.208 791.834 372.574 793.209 373.217C797.057 375.023 799.514 378.962 800.824 382.982C802.134 387.003 802.524 391.316 803.484 395.458C804.713 400.772 806.868 405.81 809.016 410.815C811.546 416.723 814.231 422.851 819.112 427.026C825.775 432.722 827.248 440.787 833.431 447.037C840.753 454.459 840.517 466.707 836.742 476.432C836.246 477.71 835.684 479.044 835.879 480.403C836.075 481.762 837.084 482.999 838.035 484.082L842.038 488.598C832.568 490.885 821.854 485.937 817.444 477.254C816.086 474.568 815.183 471.476 812.856 469.563C810.773 467.854 807.975 467.448 805.38 466.683C796.821 464.144 789.646 456.323 789.377 447.404C789.247 443.212 790.557 439.021 789.963 434.871C789.632 432.501 788.693 430.258 787.238 428.36C785 425.439 781.624 423.478 779.802 420.222C776.718 414.778 779.061 407.706 776.84 401.863C776.157 400.072 774.79 398.282 772.878 398.144C770.967 398.005 769.331 399.592 767.501 400.3C763.694 401.781 759.577 399.267 756.396 396.687C753.215 394.107 749.627 391.178 745.576 391.755C742.899 392.13 740.792 393.953 738.327 394.905C736.505 395.605 732.811 396.231 731.217 394.693C727.849 391.593 735.651 383.56 737.058 380.663Z" fill="#591D4B"/>
<path opacity="0.1" d="M819.706 474.568C818.339 471.883 817.444 468.79 815.118 466.886C813.035 465.177 810.236 464.762 807.633 463.997C799.083 461.466 791.907 453.645 791.631 444.726C791.501 440.535 792.81 436.336 792.225 432.185C791.884 429.831 790.946 427.604 789.499 425.716C787.254 422.794 783.878 420.833 782.063 417.577C778.98 412.141 781.323 405.069 779.094 399.218C778.419 397.436 777.044 395.645 775.14 395.499C773.236 395.352 771.585 396.956 769.763 397.664C765.955 399.145 761.831 396.622 758.658 394.05C755.485 391.479 751.881 388.541 747.838 389.11C745.161 389.493 743.046 391.316 740.589 392.26C738.767 392.96 735.065 393.595 733.47 392.056C730.119 388.801 737.921 380.785 739.32 377.904C740.483 375.528 741.061 372.883 742.46 370.637C742.533 370.515 742.615 370.393 742.696 370.271C741.649 371.138 740.746 372.165 740.019 373.314C738.628 375.561 738.051 378.197 736.887 380.582C735.48 383.463 727.678 391.503 731.038 394.734C732.665 396.28 736.326 395.645 738.148 394.945C740.589 393.993 742.72 392.17 745.397 391.796C749.465 391.218 753.044 394.156 756.217 396.728C759.39 399.299 763.539 401.822 767.33 400.341C769.152 399.633 770.747 398.038 772.7 398.184C774.652 398.331 775.954 400.113 776.662 401.904C778.883 407.747 776.539 414.819 779.623 420.263C781.445 423.461 784.821 425.463 787.059 428.401C788.515 430.299 789.454 432.542 789.784 434.912C790.378 439.062 789.068 443.253 789.198 447.444C789.467 456.396 796.642 464.184 805.201 466.723C807.78 467.488 810.594 467.895 812.677 469.604C815.012 471.517 815.931 474.609 817.266 477.295C821.675 485.978 832.389 490.926 841.859 488.639L839.972 486.507C831.763 486.629 823.457 481.958 819.706 474.568Z" fill="black"/>
<path opacity="0.1" d="M763.62 437.426C762.555 439.054 759.504 447.387 756.957 454.663C754.574 453.735 752.41 447.819 752.41 447.819L765.117 429.736C766.419 431.526 765.565 434.497 763.62 437.426Z" fill="black"/>
<path d="M764.108 436.938C763.043 438.566 759.992 446.899 757.445 454.174C755.062 453.255 752.898 447.33 752.898 447.33L765.605 429.256C766.907 431.038 766.053 434.016 764.108 436.938Z" fill="#DCE7FF"/>
<path d="M690.222 520.077L683.177 497.851C683.094 497.591 683.062 497.317 683.085 497.045C683.108 496.773 683.184 496.507 683.31 496.265C683.435 496.022 683.607 495.806 683.816 495.63C684.025 495.454 684.267 495.321 684.527 495.239V495.239C685.052 495.075 685.62 495.125 686.107 495.378C686.595 495.632 686.963 496.067 687.131 496.59L694.176 518.791L693.476 523.438L690.222 520.077Z" fill="#BE8B87"/>
<path opacity="0.1" d="M683.844 495.898C684.37 495.732 684.939 495.781 685.429 496.034C685.918 496.287 686.288 496.724 686.456 497.249L693.501 519.45L692.972 522.933L693.485 523.47L694.184 518.823L687.098 496.623C686.93 496.1 686.562 495.664 686.075 495.411C685.587 495.158 685.019 495.108 684.495 495.272V495.272C684.054 495.415 683.673 495.701 683.413 496.085C683.551 496.011 683.695 495.949 683.844 495.898V495.898Z" fill="white"/>
<path d="M690.222 520.077L694.176 518.823L693.598 522.632L693.476 523.47L692.321 522.266L690.222 520.077Z" fill="#EFC8C4"/>
<path d="M692.321 522.266C692.39 522.179 692.476 522.107 692.573 522.054C692.631 522.018 692.697 521.999 692.765 521.999C692.832 521.999 692.899 522.018 692.956 522.054C693.011 522.121 693.058 522.195 693.094 522.274C693.148 522.364 693.221 522.44 693.308 522.498C693.396 522.556 693.495 522.593 693.599 522.608L693.477 523.421L692.321 522.266Z" fill="#727A9C"/>
<path d="M683.136 505.745C683.136 505.745 697.268 505.664 693.94 511.678C690.613 517.692 685.414 518.416 685.414 518.416L683.136 505.745Z" fill="#FFB0B1"/>
<path d="M595.249 235.846H594.639C570.363 235.846 548.893 248.696 536.544 267.658C524.194 248.696 502.725 235.846 478.448 235.846H477.838C459.62 236.02 442.206 243.379 429.381 256.324C416.555 269.269 409.356 286.754 409.346 304.979C409.346 327.611 419.255 359.724 438.576 386.148C475.389 436.498 536.544 480.55 536.544 480.55C536.544 480.55 597.698 436.507 634.503 386.148C653.832 359.724 663.733 327.611 663.733 304.979C663.723 286.755 656.525 269.271 643.701 256.326C630.878 243.382 613.466 236.022 595.249 235.846V235.846ZM586.52 390.022C583.755 390.011 581.058 389.165 578.783 387.593C576.508 386.022 574.761 383.799 573.771 381.216H559.258C558.302 381.211 557.372 380.906 556.598 380.346C555.823 379.786 555.243 378.998 554.938 378.091L550.48 364.656L536.373 413.964C536.098 414.913 535.523 415.748 534.734 416.342C533.944 416.936 532.984 417.259 531.996 417.26H531.711C530.68 417.21 529.698 416.808 528.928 416.121C528.158 415.434 527.647 414.503 527.481 413.484L512.943 326.016L502.318 377.774C502.074 378.757 501.508 379.631 500.711 380.255C499.913 380.878 498.929 381.217 497.916 381.216H477.472C476.859 381.242 476.247 381.144 475.674 380.927C475.1 380.711 474.576 380.38 474.133 379.955C473.69 379.531 473.338 379.021 473.097 378.457C472.856 377.892 472.732 377.285 472.732 376.671C472.732 376.058 472.856 375.451 473.097 374.886C473.338 374.322 473.69 373.812 474.133 373.387C474.576 372.963 475.1 372.632 475.674 372.415C476.247 372.199 476.859 372.1 477.472 372.126H494.337L509.387 302.538C509.635 301.509 510.231 300.598 511.075 299.96C511.92 299.323 512.959 298.998 514.016 299.042C515.073 299.087 516.081 299.497 516.87 300.203C517.658 300.908 518.176 301.866 518.336 302.912L533.184 392.138L545.826 348.021C546.089 347.092 546.646 346.273 547.413 345.686C548.18 345.1 549.116 344.777 550.081 344.766H550.17C551.127 344.766 552.058 345.069 552.832 345.63C553.607 346.191 554.184 346.982 554.482 347.891L562.545 372.151H573.592C574.378 369.763 575.807 367.64 577.723 366.014C579.639 364.388 581.967 363.324 584.45 362.937C586.932 362.551 589.473 362.859 591.792 363.826C594.111 364.794 596.117 366.383 597.59 368.419C599.063 370.455 599.945 372.859 600.138 375.364C600.332 377.87 599.83 380.381 598.687 382.619C597.544 384.857 595.806 386.736 593.663 388.048C591.52 389.36 589.056 390.054 586.544 390.054L586.52 390.022Z" fill="#215A58"/>
</g>
<defs>
<linearGradient id="paint0_linear" x1="310.891" y1="824.595" x2="310.891" y2="323.827" gradientUnits="userSpaceOnUse">
<stop stop-color="#808080" stop-opacity="0.25"/>
<stop offset="0.54" stop-color="#808080" stop-opacity="0.12"/>
<stop offset="1" stop-color="#808080" stop-opacity="0.1"/>
</linearGradient>
<linearGradient id="paint1_linear" x1="181617" y1="378030" x2="181617" y2="120982" gradientUnits="userSpaceOnUse">
<stop stop-color="#808080" stop-opacity="0.25"/>
<stop offset="0.54" stop-color="#808080" stop-opacity="0.12"/>
<stop offset="1" stop-color="#808080" stop-opacity="0.1"/>
</linearGradient>
<clipPath id="clip0">
<rect width="899" height="637" fill="white" transform="translate(21 194)"/>
</clipPath>
</defs>
</svg>
