<svg width="1112" height="822" viewBox="0 0 1112 822" fill="none" xmlns="http://www.w3.org/2000/svg">
<g clip-path="url(#clip0)">
<path opacity="0.1" d="M962.497 554.91C961.62 555.405 960.735 555.862 959.849 556.348V555.872H952.23V560.168C951.678 560.407 951.154 560.664 950.611 560.911V555.872H942.992V564.122C942.847 564.187 942.697 564.241 942.544 564.284V554.91H962.497Z" fill="#007FA3"/>
<path opacity="0.1" d="M692.984 807.091C641.733 807.091 600.185 800.416 600.185 792.183C600.185 783.949 641.733 777.274 692.984 777.274C744.236 777.274 785.784 783.949 785.784 792.183C785.784 800.416 744.236 807.091 692.984 807.091Z" fill="#007FA3"/>
<path d="M586.147 397.963C586.17 397.869 586.22 397.783 586.29 397.715C587.709 396.315 605.804 370.718 605.804 370.718C605.804 370.718 606.757 367.86 608.299 364.145C607.805 363.504 607.434 362.777 607.204 362.001C607.121 361.672 607.06 361.338 607.023 361.001C607.023 360.896 606.947 360.81 606.919 360.706C606.588 359.414 606.621 358.055 607.014 356.781C607.12 357.108 607.25 357.426 607.404 357.733C607.763 356.624 608.242 355.557 608.833 354.552C611.233 350.417 614.661 346.931 617.185 342.901C621.007 336.64 622.526 329.242 621.48 321.981C621.48 322.353 621.48 322.734 621.48 323.105C621.385 321.665 621.194 320.233 620.909 318.818C620.511 317.208 619.979 315.634 619.318 314.112C617.052 308.92 613.385 304.395 611.157 299.184C610.409 297.427 609.841 295.598 609.461 293.726C608.676 290.599 608.39 287.368 608.614 284.152C608.614 284.914 608.738 285.676 608.852 286.429C609.093 278.696 612.214 271.333 617.604 265.785C625.385 257.964 636.556 254.925 647.242 253.325C651.732 252.801 656.021 251.163 659.718 248.561C663.823 245.904 669.128 245.265 673.927 245.846C679.444 246.443 684.571 248.978 688.394 253.001C693.47 258.583 695.67 266.49 701.594 271.196C705.184 274.054 709.737 275.388 713.918 277.331C718.099 279.274 722.051 282.094 723.394 286.267C723.394 286.267 723.394 286.21 723.394 286.181V286.419L723.451 286.572C724.841 291.506 722.156 296.527 720.756 301.452C719.299 306.548 719.203 311.931 719.127 317.199C719.022 323.639 718.927 330.088 719.032 336.537C719.079 339.071 719.165 341.634 719.356 344.158C721.61 344.84 723.799 345.72 725.898 346.788C728.032 348.178 736.013 356.8 736.013 356.8L751.622 416.454L751.413 416.692L751.622 417.502L750.832 417.321C748.622 419.702 742.022 426.485 734.898 430.715L734.232 442.413C734.232 442.413 733.432 454.15 722.641 458.999C722.394 463.066 721.622 479.585 725.194 486.13C727.667 490.911 728.83 496.262 728.565 501.638C728.565 501.638 727.318 511.565 728.737 516.785C729.566 520.274 729.627 523.902 728.918 527.417C728.918 527.417 728.918 528.569 728.918 530.551C728.918 541.116 728.794 574.972 728.918 578.802C729.098 583.327 728.918 650.249 728.918 650.249C728.918 650.249 729.803 683.697 732.641 692.756C735.479 701.816 734.765 731.814 734.765 731.814C734.765 731.814 736.546 767.547 730.251 774.597C730.251 774.911 730.308 775.235 730.317 775.549C730.317 775.692 730.317 775.854 730.317 775.997C730.394 778.712 729.87 781.599 727.537 782.485C722.775 784.314 716.48 789.801 715.289 791.373C714.099 792.945 707.175 796.86 698.146 795.812C692.49 795.176 686.799 794.915 681.108 795.031C681.108 795.031 677.547 794.383 678.699 789.953C679.442 787.191 682.223 782.942 684.204 780.151C683.842 780.246 683.489 780.322 683.156 780.389L682.813 780.456H682.546C682.401 780.464 682.254 780.464 682.108 780.456H681.918C681.74 780.47 681.562 780.47 681.385 780.456C678.994 780.227 670.08 784.38 668.489 787.124C666.899 789.868 661.289 791.954 657.061 792.478C654.547 792.783 648.204 792.268 642.88 791.582C640.199 791.305 637.544 790.821 634.937 790.134C633.68 789.658 633.414 788.134 633.775 786.419C634.203 784.241 635.367 782.277 637.071 780.856C638.614 779.76 640.652 776.874 642.156 774.511L642.556 773.873C639.899 771.339 635.099 763.051 633.642 761.336C631.871 759.25 636.499 682.953 636.499 682.953V644.705L629.404 608.505L624.442 589.348L620.185 560.426C620.185 560.426 612.738 526.645 615.033 523.33C615.033 523.263 616.938 488.483 618.938 480.128C619.804 476.403 619.585 468.02 619.071 459.865C618.533 459.331 618.159 458.656 617.99 457.917C617.821 457.179 617.866 456.407 618.118 455.693C618.261 455.204 618.445 454.729 618.671 454.273C618.671 454.131 618.671 453.978 618.671 453.835C614.557 451.942 610.258 450.48 605.842 449.472C598.747 448.081 600.519 444.423 600.519 444.423C600.519 444.423 598.919 441.289 597.861 439.374C596.804 437.459 597.681 420.56 597.861 419.169C597.928 418.607 598.366 415.501 598.871 411.976C596.595 410.357 593.633 408.347 590.404 406.442C584.262 402.803 585.643 398.963 586.147 397.963ZM678.718 639.485C678.718 639.485 684.042 653.069 681.908 656.546C679.775 660.023 682.261 672.932 682.261 672.932L684.042 692.089C684.042 692.089 689.004 727.622 687.232 735.977C685.842 742.531 685.327 762.108 685.165 770.272C685.287 770.319 685.405 770.377 685.518 770.443L685.756 770.567C684.937 767.357 685.28 760.86 689.346 747.79L689.689 693.804C689.689 693.804 690.318 631.444 685.394 624.471C680.47 617.498 678.727 605.657 678.727 605.657C678.727 605.657 679.794 622.737 680.489 627.262C681.185 631.787 678.718 639.485 678.718 639.485ZM688.632 773.673C688.68 773.787 688.737 773.901 688.775 774.006L689.042 773.663C688.906 773.677 688.769 773.68 688.632 773.673Z" fill="url(#paint0_linear)"/>
<path d="M634.337 795.069C637.09 796.126 652.013 797.927 656.185 797.422C660.356 796.917 665.88 794.802 667.451 792.04C669.023 789.277 677.832 785.104 680.194 785.371C681.162 785.4 682.128 785.265 683.051 784.971C684.681 784.478 686.272 783.866 687.813 783.142C688.028 781.941 687.993 780.709 687.708 779.522C687.653 779.283 687.583 779.047 687.499 778.817C686.943 777.254 685.793 775.974 684.299 775.254L683.956 775.092C683.296 774.807 682.606 774.596 681.899 774.464C674.413 773.025 643.528 775.912 643.528 775.912C643.528 775.912 642.661 777.464 641.471 779.389C639.985 781.77 637.966 784.676 636.442 785.771C634.754 787.215 633.609 789.191 633.194 791.373C632.833 793.059 633.099 794.602 634.337 795.069Z" fill="white"/>
<path opacity="0.1" d="M634.338 795.069C637.09 796.126 652.004 797.927 656.176 797.422C660.347 796.917 665.871 794.793 667.452 792.04C669.033 789.287 677.823 785.104 680.185 785.371C682.547 785.638 687.804 783.142 687.804 783.142C687.804 783.142 688.623 779.331 686.242 776.731L681.48 780.113C681.48 780.113 668.737 784.066 666.375 787.734C664.014 791.401 659.709 793.45 653.49 793.821C648.842 794.126 638.166 792.316 633.166 791.411C632.833 793.059 633.09 794.602 634.338 795.069Z" fill="black"/>
<path d="M679.928 799.927C685.545 799.818 691.164 800.082 696.747 800.718C705.689 801.766 712.518 797.86 713.708 796.25C714.899 794.64 721.061 789.201 725.794 787.295C728.108 786.4 728.651 783.485 728.546 780.76C728.546 780.618 728.546 780.456 728.546 780.313C728.459 778.587 728.204 776.874 727.785 775.197L690.728 774.406L687.518 778.76L687.023 779.427L685.071 782.085C685.071 782.085 684.185 783.247 683.023 784.943C681.061 787.8 678.318 792.021 677.585 794.812C676.414 799.28 679.928 799.927 679.928 799.927Z" fill="white"/>
<path opacity="0.1" d="M679.928 799.927C685.545 799.818 691.164 800.082 696.747 800.718C705.68 801.766 712.518 797.86 713.699 796.25C714.88 794.64 721.061 789.153 725.794 787.315C728.108 786.419 728.651 783.504 728.546 780.779C725.899 781.399 720.337 782.98 718.156 785.733C715.299 789.41 710.185 795.593 702.918 795.984C697.051 796.298 682.766 795.25 677.528 794.831C676.404 799.28 679.928 799.927 679.928 799.927Z" fill="black"/>
<path opacity="0.1" d="M684.337 775.216C684.766 778.398 686.089 779.255 687.042 779.446C687.274 779.491 687.514 779.491 687.746 779.446C687.872 779.437 687.996 779.418 688.118 779.389C688.118 779.389 721.394 786.743 728.118 780.789C728.288 780.636 728.447 780.47 728.594 780.294C728.506 778.568 728.251 776.855 727.832 775.178L690.775 774.387L687.566 778.741C687.01 777.178 685.86 775.898 684.366 775.178L684.337 775.216Z" fill="black"/>
<path opacity="0.1" d="M641.48 779.351C642.223 780.17 642.842 780.637 643.233 780.475C644.985 779.77 659.347 777.321 663.909 779.427C668.47 781.532 683.908 779.77 683.908 779.77C683.908 779.77 683.908 777.941 683.994 775.007C683.334 774.721 682.644 774.51 681.937 774.378C674.451 772.939 643.566 775.826 643.566 775.826C643.566 775.826 642.661 777.426 641.48 779.351Z" fill="black"/>
<path d="M619.747 563.865L623.957 592.958L628.852 612.239L635.861 648.687V687.269C635.861 687.269 631.309 764.032 633.061 766.128C634.814 768.224 641.471 780.16 643.223 779.465C644.976 778.77 659.337 776.312 663.899 778.407C668.461 780.503 683.899 778.76 683.899 778.76C683.899 778.76 684.252 748.971 686.004 740.559C687.756 732.148 682.852 696.395 682.852 696.395L681.099 677.123C681.099 677.123 678.642 664.148 680.747 660.643C682.852 657.137 677.594 643.495 677.594 643.495C677.594 643.495 680.042 635.769 679.337 631.216C678.633 626.662 677.594 609.486 677.594 609.486C677.594 609.486 679.337 621.413 684.204 628.415C689.071 635.417 688.451 698.167 688.451 698.167L688.109 752.467C679.337 781.218 688.109 778.407 688.109 778.407C688.109 778.407 721.385 785.771 728.108 779.808C734.832 773.844 732.908 736.311 732.908 736.311C732.908 736.311 733.603 706.169 730.804 697.062C728.004 687.955 727.118 654.298 727.118 654.298C727.118 654.298 727.299 586.994 727.118 582.45C726.984 578.64 727.118 544.526 727.118 533.866C727.118 531.885 727.118 530.713 727.118 530.713L723.099 520.729L675.48 514.766H652.699C652.699 514.766 618.414 522.825 614.871 526.302C614.796 526.36 614.731 526.431 614.681 526.512C612.385 529.874 619.747 563.865 619.747 563.865Z" fill="#007FA3"/>
<path opacity="0.1" d="M677.565 716.686C677.565 716.686 667.089 741.922 662.147 743.674C657.204 745.427 677.565 716.686 677.565 716.686Z" fill="black"/>
<path opacity="0.1" d="M673.689 753.839C673.689 753.839 638.318 755.592 638.671 759.45C639.023 763.308 673.689 753.839 673.689 753.839Z" fill="black"/>
<path opacity="0.1" d="M721.013 743.751C719.613 745.075 694.032 747.561 696.137 749.981C698.241 752.401 718.908 757.107 718.908 757.107L721.013 743.751Z" fill="black"/>
<path opacity="0.1" d="M725.213 700.215C725.213 701.263 719.956 733.862 718.546 735.263C717.137 736.663 705.584 738.063 705.584 738.063L725.213 700.215Z" fill="black"/>
<path d="M687.07 254.63C692.089 260.241 694.261 268.195 700.108 272.939C703.661 275.797 708.156 277.16 712.289 279.103C716.423 281.046 720.518 284.009 721.746 288.41C723.118 293.364 720.47 298.422 719.08 303.376C717.642 308.501 717.556 313.855 717.47 319.218C717.375 325.706 717.27 332.193 717.384 338.681C717.556 348.788 718.394 359.362 723.756 367.927C704.394 374.09 683.804 374.929 663.499 375.719C659.597 375.998 655.678 375.899 651.795 375.424C648.43 374.753 645.102 373.911 641.823 372.899C635.341 371.184 628.662 370.329 621.957 370.356C619.033 370.356 616.052 370.537 613.233 369.775C610.414 369.013 607.7 367.06 606.938 364.24C606.262 361.706 607.252 359.01 608.547 356.733C610.909 352.58 614.262 349.112 616.795 345.016C619.381 340.689 620.915 335.815 621.274 330.787C621.633 325.758 620.807 320.716 618.862 316.065C616.614 310.835 612.995 306.282 610.785 301.042C608.522 295.417 607.921 289.26 609.052 283.302C610.183 277.345 612.999 271.837 617.166 267.433C624.852 259.564 635.88 256.516 646.433 254.897C650.876 254.372 655.115 252.733 658.756 250.133C662.804 247.466 668.052 246.818 672.794 247.409C678.266 248.022 683.334 250.585 687.07 254.63Z" fill="#3F3D56"/>
<g opacity="0.1">
<path opacity="0.1" d="M618.567 310.568C620.508 315.159 621.34 320.143 620.995 325.115C620.782 321.559 619.96 318.067 618.567 314.789C616.328 309.559 612.709 305.005 610.5 299.766C608.694 295.391 607.934 290.654 608.281 285.933C608.477 289.242 609.227 292.494 610.5 295.555C612.709 300.794 616.328 305.339 618.567 310.568Z" fill="black"/>
<path opacity="0.1" d="M717.184 317.923C717.127 321.657 717.07 325.401 717.061 329.135C717.061 323.991 717.108 318.856 717.184 313.722C717.261 308.396 717.356 303.005 718.794 297.87C719.746 294.612 721.156 291.306 721.651 288.02C722.499 292.688 720.089 297.422 718.794 302.081C717.356 307.168 717.261 312.598 717.184 317.923Z" fill="black"/>
<path opacity="0.1" d="M612.909 364.326C615.766 365.097 618.7 364.926 621.624 364.907C628.323 364.864 635 365.703 641.48 367.403C644.759 368.41 648.088 369.249 651.452 369.918C655.337 370.4 659.261 370.502 663.166 370.222C682.785 369.451 702.68 368.622 721.47 363.011C722.028 364.257 722.664 365.466 723.375 366.631C704.013 372.785 683.423 373.633 663.128 374.424C659.223 374.704 655.299 374.601 651.414 374.119C648.061 373.457 644.746 372.62 641.48 371.613C635.013 369.908 628.35 369.059 621.662 369.089C618.738 369.089 615.766 369.27 612.947 368.498C610.128 367.727 607.414 365.793 606.652 362.973C606.331 361.667 606.364 360.299 606.747 359.01C607.595 361.677 610.214 363.535 612.909 364.326Z" fill="black"/>
</g>
<path d="M641.118 353.037C641.823 354.618 644.795 368.279 645.499 369.679C646.204 371.08 650.052 393.495 650.404 394.753C650.756 396.01 675.766 389.494 675.766 389.494L690.823 376.872L706.299 361.468C706.299 361.468 706.756 347.569 695.356 343.111C694.581 342.806 693.785 342.558 692.975 342.367C679.147 339.043 680.537 296.984 680.537 296.984L652.156 309.244C652.156 309.244 657.413 333.784 657.233 338.519C657.185 340.11 655.937 341.1 654.309 341.701C651.791 342.417 649.169 342.701 646.556 342.539C646.556 342.539 640.414 351.465 641.118 353.037Z" fill="#FBBEBE"/>
<path d="M590.309 399.125L586.281 400.183C586.281 400.183 583.3 404.717 590.309 408.938C594.76 411.642 599.032 414.63 603.1 417.883L623.814 424.189L627.804 411.662L608.528 397.03L590.309 399.125Z" fill="#007FA3"/>
<path opacity="0.1" d="M590.309 399.125L586.281 400.183C586.281 400.183 583.3 404.717 590.309 408.938C594.76 411.642 599.032 414.63 603.1 417.883L623.814 424.189L627.804 411.662L608.528 397.03L590.309 399.125Z" fill="black"/>
<path d="M741.48 411.224L749.537 419.112C749.537 419.112 735.003 435.935 723.823 436.983C712.642 438.031 705.432 424.189 705.432 424.189L715.108 408.947L741.48 411.224Z" fill="#007FA3"/>
<path opacity="0.1" d="M741.48 411.224L749.537 419.112C749.537 419.112 735.003 435.935 723.823 436.983C712.642 438.031 705.432 424.189 705.432 424.189L715.108 408.947L741.48 411.224Z" fill="black"/>
<path opacity="0.1" d="M664.947 324.467C649.467 324.467 636.918 311.915 636.918 296.431C636.918 280.948 649.467 268.395 664.947 268.395C680.426 268.395 692.975 280.948 692.975 296.431C692.975 311.915 680.426 324.467 664.947 324.467Z" fill="black"/>
<path d="M664.947 322.362C649.467 322.362 636.918 309.81 636.918 294.326C636.918 278.842 649.467 266.29 664.947 266.29C680.426 266.29 692.975 278.842 692.975 294.326C692.975 309.81 680.426 322.362 664.947 322.362Z" fill="#FBBEBE"/>
<path opacity="0.1" d="M614.661 529.694C621.043 530.424 627.33 531.832 633.414 533.895C643.89 537.381 725.984 533.952 727.127 533.895C727.127 531.913 727.127 530.741 727.127 530.741L723.108 520.758L675.489 514.794H652.709C652.709 514.794 618.423 522.854 614.88 526.331C614.737 528.427 614.661 529.694 614.661 529.694Z" fill="black"/>
<path opacity="0.1" d="M641.118 353.037C641.823 354.618 644.795 368.279 645.499 369.679C646.204 371.08 650.052 393.495 650.404 394.753C650.756 396.01 675.766 389.494 675.766 389.494L690.823 376.872L706.299 361.468C706.299 361.468 706.756 347.569 695.356 343.111L667.051 375.662L654.309 341.701C651.791 342.417 649.169 342.701 646.556 342.539C646.556 342.539 640.414 351.465 641.118 353.037Z" fill="black"/>
<path d="M667.052 376.71L696.023 343.368C697.719 342.285 699.657 341.641 701.663 341.493C703.67 341.345 705.682 341.698 707.518 342.52C714.004 345.33 722.061 347.607 724.165 349.007C726.27 350.408 734.156 359.077 734.156 359.077L710.67 420.531L721.013 461.009C721.013 461.009 719.432 481.69 723.461 489.226C725.914 494.044 727.063 499.42 726.794 504.82C726.794 504.82 725.565 514.813 726.965 520.062C727.783 523.572 727.845 527.216 727.146 530.751C727.146 530.751 643.918 534.257 633.414 530.751C627.331 528.683 621.045 527.274 614.662 526.55C614.662 526.55 616.566 491.493 618.471 483.081C620.376 474.669 616.89 442.604 616.89 442.604L619.166 408.252L605.509 373.004C605.509 373.004 612.909 350.408 620.623 348.131C620.623 348.131 634.633 344.797 637.614 343.225C640.595 341.653 649.356 340.243 649.356 340.243L653.956 341.786L667.052 376.71Z" fill="#007FA3"/>
<path opacity="0.1" d="M626.631 407.092L687.594 402.945C689.137 402.84 690.473 404.006 690.578 405.55L697.123 501.829C697.228 503.372 696.062 504.708 694.519 504.813L633.556 508.96C632.013 509.065 630.677 507.899 630.572 506.356L624.027 410.076C623.922 408.533 625.088 407.197 626.631 407.092Z" fill="black"/>
<path d="M624.531 405.001L685.495 400.854C687.037 400.749 688.373 401.915 688.478 403.459L695.023 499.738C695.128 501.281 693.962 502.617 692.419 502.722L631.456 506.869C629.913 506.974 628.577 505.808 628.473 504.265L621.928 407.985C621.823 406.442 622.988 405.106 624.531 405.001Z" fill="#3F3D56"/>
<path d="M626.543 412.548L684.523 408.604L690.481 496.254L632.501 500.197L626.543 412.548Z" fill="white"/>
<path opacity="0.1" d="M631.742 434.92L679.104 431.604L680.028 444.807L632.666 448.123L631.742 434.92Z" fill="black"/>
<path opacity="0.1" d="M633.456 487.39L640.972 486.879L641.439 493.76L633.924 494.271L633.456 487.39Z" fill="black"/>
<path opacity="0.1" d="M640.87 470.783L679.342 468.166L679.81 475.047L641.337 477.664L640.87 470.783Z" fill="black"/>
<path d="M633.719 409.271L673.779 406.546L674.498 417.124L634.438 419.849L633.719 409.271Z" fill="#3F3D56"/>
<path opacity="0.1" d="M633.719 409.271L673.779 406.546L674.498 417.124L634.438 419.849L633.719 409.271Z" fill="black"/>
<path opacity="0.1" d="M663.546 527.76C663.546 527.76 663.899 579.64 677.565 609.429C677.565 609.429 661.089 570.171 661.089 568.599C661.089 567.027 651.985 550.547 654.423 545.641C656.861 540.735 663.546 527.76 663.546 527.76Z" fill="black"/>
<path opacity="0.1" d="M662.804 287.315C663.328 282.723 662.204 278.094 659.633 274.254C659.938 278.103 658.85 281.934 656.567 285.047C654.283 288.16 650.957 290.348 647.195 291.211C647.516 290.932 647.745 290.563 647.852 290.151C647.959 289.74 647.939 289.306 647.795 288.906C645.842 291.116 644.347 293.735 642.138 295.679C639.928 297.622 636.614 298.784 634.014 297.403C630.481 295.498 630.442 290.477 631.357 286.572C633.319 278.254 637.344 270.564 643.061 264.213C644.488 262.294 646.339 260.73 648.471 259.646C650.602 258.562 652.956 257.986 655.347 257.964C660.756 257.545 666.375 258.021 671.223 260.45C673.951 261.939 676.506 263.725 678.842 265.776L692.175 276.655C693.458 277.579 694.556 278.736 695.413 280.065C695.986 281.176 696.329 282.391 696.423 283.638C696.763 287.2 696.104 290.788 694.52 293.997C692.935 297.206 690.487 299.91 687.451 301.804C687.516 298.988 686.741 296.217 685.227 293.842C683.713 291.467 681.527 289.596 678.947 288.467C678.543 288.805 678.216 289.226 677.987 289.701C677.759 290.176 677.635 290.694 677.623 291.22L674.813 286.21C674.396 285.298 673.737 284.517 672.909 283.952C671.175 282.999 669.014 284.123 667.537 285.467C666.061 286.81 664.623 288.486 662.642 288.696L662.566 281.237" fill="black"/>
<path d="M662.804 286.267C663.329 281.672 662.205 277.04 659.633 273.197C660.49 280.818 654.747 288.686 647.185 290.154C647.506 289.877 647.736 289.509 647.843 289.099C647.95 288.689 647.93 288.256 647.785 287.858C645.833 290.068 644.337 292.678 642.128 294.631C639.918 296.584 636.604 297.737 634.004 296.346C630.471 294.44 630.433 289.42 631.347 285.524C633.309 277.206 637.335 269.516 643.052 263.165C644.826 261.002 647.061 259.264 649.595 258.078C651.428 257.4 653.356 257.008 655.309 256.916C660.718 256.497 666.337 256.964 671.185 259.393C673.911 260.889 676.466 262.677 678.804 264.728L692.137 275.607C693.422 276.529 694.521 277.686 695.375 279.017C695.949 280.128 696.292 281.343 696.385 282.59C696.725 286.151 696.065 289.737 694.48 292.944C692.896 296.152 690.448 298.854 687.413 300.747C687.475 297.931 686.7 295.161 685.186 292.787C683.672 290.412 681.487 288.541 678.909 287.41C678.506 287.749 678.18 288.17 677.952 288.644C677.723 289.119 677.598 289.637 677.585 290.163L674.785 285.171C674.369 284.258 673.71 283.477 672.88 282.914C671.147 281.961 668.985 283.085 667.509 284.428C666.032 285.771 664.594 287.438 662.613 287.658L662.537 280.189" fill="#3F3D56"/>
<path d="M649.528 463.104C651.975 461.866 692.451 468.182 692.451 468.182C692.451 468.182 699.118 466.277 715.232 463.628C731.346 460.98 732.375 445.223 732.375 445.223L734.137 413.682L728.699 408.918L705.404 424.161C705.404 424.161 705.042 431.867 705.404 433.258C705.632 434.211 706.242 435.345 706.185 436.116C706.167 436.325 706.081 436.522 705.94 436.677C705.798 436.833 705.61 436.937 705.404 436.974C703.823 437.374 682.28 440.86 682.28 440.86C682.28 440.86 632.347 437.44 619.9 454.264C618.913 455.499 618.167 456.908 617.7 458.417C614.614 469.916 647.309 464.2 649.528 463.104Z" fill="#FBBEBE"/>
<path opacity="0.1" d="M617.671 458.484C619.576 459.332 620.757 459.942 620.757 459.942C620.757 459.942 638.623 459.418 648.661 455.779C658.699 452.14 670.899 452.787 670.899 452.787C670.899 452.787 712.727 445.585 706.242 436.183C706.224 436.392 706.138 436.589 705.997 436.744C705.855 436.899 705.667 437.003 705.461 437.04C703.88 437.44 682.337 440.927 682.337 440.927C682.337 440.927 632.404 437.507 619.957 454.331C618.94 455.559 618.164 456.968 617.671 458.484Z" fill="black"/>
<path d="M600.3 402.984C600.3 402.984 597.843 420.331 597.671 421.741C597.5 423.151 596.614 440.136 597.671 442.07C598.728 444.004 600.3 447.148 600.3 447.148C600.3 447.148 598.547 450.825 605.557 452.235C612.566 453.645 620.795 457.836 620.795 457.836C620.795 457.836 638.671 457.312 648.652 453.635C658.633 449.958 670.899 450.653 670.899 450.653C670.899 450.653 723.994 441.537 701.213 430.41C678.432 419.283 662.318 434.354 662.318 434.354L636.918 432.782C636.918 432.782 627.452 426.99 624.823 427.523C622.967 427.76 621.082 427.456 619.395 426.647L619.214 408.242L600.3 402.984Z" fill="#FBBEBE"/>
<path opacity="0.1" d="M729.099 360.401L734.184 360.134L749.594 420.15C749.594 420.15 732.956 415.939 725.784 420.15C718.613 424.361 705.461 425.228 705.461 425.228L710.366 377.386L729.099 360.401Z" fill="black"/>
<path d="M729.099 359.343L734.184 359.077L749.594 419.093C749.594 419.093 732.956 414.882 725.784 419.093C718.613 423.303 705.461 424.17 705.461 424.17L710.366 376.329L729.099 359.343Z" fill="#007FA3"/>
<path opacity="0.1" d="M612.557 372.49L605.557 374.071C605.557 374.071 587.681 399.792 586.281 401.231C584.881 402.669 592.948 407.899 596.271 407.899C599.595 407.899 615.89 409.804 620.623 414.206C625.357 418.607 623.385 396.458 623.385 395.953C623.385 395.448 617.509 381.473 617.509 381.473L612.557 372.49Z" fill="black"/>
<path d="M612.557 371.442L605.557 373.014C605.557 373.014 587.681 398.782 586.281 400.183C584.881 401.583 592.948 406.851 596.271 406.851C599.595 406.851 615.89 408.757 620.623 413.158C625.357 417.559 623.385 395.41 623.385 394.905C623.385 394.4 617.471 380.378 617.471 380.378L612.557 371.442Z" fill="#007FA3"/>
<g opacity="0.1">
<path opacity="0.1" d="M659.68 273.282C659.721 272.552 659.705 271.819 659.632 271.091C661.082 273.268 662.08 275.714 662.566 278.284V280.494C662.566 280.494 662.566 280.446 662.566 280.418V280.942C662.566 282.485 662.566 284.038 662.613 285.581H662.747V286.295C662.747 286.048 662.747 285.81 662.794 285.562C664.699 285.257 666.061 283.657 667.48 282.38C668.899 281.104 671.118 279.884 672.851 280.865C673.682 281.429 674.341 282.21 674.756 283.123L677.585 288.115C677.597 287.59 677.722 287.073 677.95 286.6C678.178 286.127 678.505 285.708 678.908 285.371C681.488 286.5 683.674 288.371 685.189 290.746C686.703 293.121 687.477 295.892 687.413 298.708C690.015 297.077 692.192 294.851 693.764 292.212C695.335 289.573 696.256 286.598 696.451 283.533C696.617 286.955 695.866 290.36 694.278 293.396C692.689 296.432 690.319 298.99 687.413 300.804C687.475 297.988 686.699 295.218 685.185 292.844C683.671 290.469 681.487 288.598 678.908 287.467C678.506 287.806 678.18 288.227 677.951 288.702C677.723 289.176 677.598 289.694 677.585 290.22L674.785 285.228C674.369 284.315 673.71 283.534 672.88 282.971C671.147 282.018 668.985 283.142 667.509 284.485C666.032 285.829 664.594 287.496 662.613 287.715C662.613 285.276 662.588 282.844 662.537 280.418C662.07 277.872 661.098 275.446 659.68 273.282Z" fill="black"/>
<path opacity="0.1" d="M662.899 282.875C662.852 282.228 662.775 281.58 662.68 280.97L662.575 278.341C662.862 279.834 662.97 281.356 662.899 282.875Z" fill="black"/>
<path opacity="0.1" d="M634.004 294.24C636.604 295.631 639.918 294.469 642.128 292.526C644.337 290.582 645.833 287.962 647.785 285.752C647.929 286.152 647.949 286.587 647.842 286.998C647.735 287.41 647.506 287.779 647.185 288.058C647.375 288.058 647.556 287.962 647.737 287.915C645.833 290.106 644.318 292.678 642.128 294.583C639.937 296.489 636.604 297.689 634.004 296.298C631.404 294.907 630.661 291.649 630.89 288.477C631.061 290.973 631.957 293.135 634.004 294.24Z" fill="black"/>
<path opacity="0.1" d="M647.795 287.896C650.979 287.028 653.823 285.206 655.944 282.676C658.065 280.146 659.362 277.028 659.661 273.74C660.204 281.218 654.566 288.715 647.185 290.154C647.499 289.88 647.725 289.52 647.834 289.118C647.942 288.715 647.929 288.29 647.795 287.896Z" fill="black"/>
</g>
<path opacity="0.1" d="M985.591 799.146C934.34 799.146 892.792 792.471 892.792 784.238C892.792 776.004 934.34 769.329 985.591 769.329C1036.84 769.329 1078.39 776.004 1078.39 784.238C1078.39 792.471 1036.84 799.146 985.591 799.146Z" fill="#007FA3"/>
<path d="M982.601 498.628H988.572V633.112H982.601V498.628Z" fill="#535461"/>
<path d="M945.068 632.711L945.449 638.77L945.973 647.344L946.192 650.907L946.725 659.481L946.954 663.043L947.477 671.617L953.506 768.852C953.763 773.036 955.606 776.964 958.659 779.835C961.711 782.707 965.744 784.305 969.934 784.304H1001.24C1005.44 784.306 1009.48 782.699 1012.54 779.814C1015.59 776.928 1017.43 772.982 1017.67 768.786L1023.7 671.55L1024.22 662.977L1024.44 659.414L1024.98 650.84L1025.2 647.277L1025.72 638.704L1026.11 632.645C1026.17 631.483 1026 630.321 1025.6 629.228C1025.21 628.135 1024.59 627.134 1023.79 626.286C1023 625.439 1022.04 624.762 1020.97 624.298C1019.9 623.834 1018.75 623.591 1017.59 623.585H953.573C952.405 623.592 951.25 623.837 950.181 624.306C949.111 624.775 948.148 625.458 947.352 626.313C946.555 627.167 945.942 628.176 945.549 629.276C945.156 630.377 944.993 631.546 945.068 632.711Z" fill="#3F3D56"/>
<path d="M945.449 638.761L945.982 647.315H1025.2L1025.73 638.761H945.449Z" fill="#9D9CB5"/>
<path d="M946.202 650.878L946.725 659.433H1024.45L1024.98 650.878H946.202Z" fill="#9D9CB5"/>
<path d="M946.954 663.005L947.478 671.55H1023.7L1024.23 663.005H946.954Z" fill="#9D9CB5"/>
<path d="M1034.81 549.042C1000.03 574.21 985.544 613.573 985.544 613.573C985.544 613.573 1027.45 612.135 1062.24 586.966C1097.03 561.797 1111.53 522.463 1111.53 522.463C1111.53 522.463 1069.63 523.873 1034.81 549.042Z" fill="#007FA3"/>
<path d="M1111.53 522.463C1111.53 522.463 1068.04 546.612 1054.09 566.608C1040.13 586.604 985.582 613.592 985.582 613.592" stroke="#535461" stroke-width="2" stroke-miterlimit="10"/>
<path d="M1012.4 498.342C993.468 512.032 985.582 533.456 985.582 533.456C985.582 533.456 1008.44 532.675 1027.32 518.986C1046.21 505.297 1054.14 483.862 1054.14 483.862C1054.14 483.862 1031.32 484.643 1012.4 498.342Z" fill="#007FA3"/>
<path d="M1054.14 483.862C1054.14 483.862 1030.47 497.009 1022.87 507.888C1015.27 518.767 985.582 533.456 985.582 533.456" stroke="#535461" stroke-width="2" stroke-miterlimit="10"/>
<path d="M958.077 532.37C979.82 556.272 984.42 587.509 984.42 587.509C984.42 587.509 953.763 579.983 932.039 556.072C910.316 532.161 905.697 500.934 905.697 500.934C905.697 500.934 936.335 508.469 958.077 532.37Z" fill="#007FA3"/>
<path d="M905.678 500.943C905.678 500.943 934.001 525.445 941.201 542.325C948.401 559.206 984.42 587.509 984.42 587.509" stroke="#535461" stroke-width="2" stroke-miterlimit="10"/>
</g>
<defs>
<linearGradient id="paint0_linear" x1="668.642" y1="795.984" x2="668.642" y2="245.694" gradientUnits="userSpaceOnUse">
<stop stop-color="#808080" stop-opacity="0.25"/>
<stop offset="0.54" stop-color="#808080" stop-opacity="0.12"/>
<stop offset="1" stop-color="#808080" stop-opacity="0.1"/>
</linearGradient>
<clipPath id="clip0">
<rect width="1112" height="822" fill="white" transform="matrix(-1 0 0 1 1112 0)"/>
</clipPath>
</defs>
</svg>
