<svg width="373" height="167" viewBox="0 0 373 167" fill="none" xmlns="http://www.w3.org/2000/svg">
<rect x="137.5" y="0.5" width="99" height="99" rx="5.5" stroke="#215A58"/>
<rect x="174.127" y="15.9615" width="20.1707" height="72.0385" rx="2" stroke="#007FA3" stroke-width="2"/>
<rect x="220.902" y="43.3951" width="20.2115" height="71.9022" rx="2" transform="rotate(90 220.902 43.3951)" stroke="#007FA3" stroke-width="2"/>
<rect x="224" y="40.3942" width="20.2115" height="71.9022" rx="2" transform="rotate(90 224 40.3942)" fill="white" stroke="#215A58" stroke-width="2"/>
<rect x="177.083" y="13" width="20.1707" height="72.0385" rx="2" fill="white" stroke="#215A58" stroke-width="2"/>
<path d="M3.2959 156.901V153.166C6.5918 154.338 10.1514 154.924 13.9746 154.924C19.3799 154.924 22.0825 152.946 22.0825 148.991C22.0825 145.622 20.0903 143.938 16.106 143.938H12.063C5.48584 143.938 2.19727 141.081 2.19727 135.368C2.19727 129.362 6.40869 126.359 14.8315 126.359C18.4937 126.359 21.8994 126.799 25.0488 127.678V131.413C21.8994 130.241 18.4937 129.655 14.8315 129.655C9.11865 129.655 6.26221 131.56 6.26221 135.368C6.26221 138.737 8.1958 140.422 12.063 140.422H16.106C22.8003 140.422 26.1475 143.278 26.1475 148.991C26.1475 155.144 22.0898 158.22 13.9746 158.22C10.1514 158.22 6.5918 157.78 3.2959 156.901ZM32.0801 158V126.579H44.8242C51.2402 126.579 54.4482 129.384 54.4482 134.995C54.4482 141.103 50.061 144.831 41.2866 146.179L40.4517 142.751C46.897 141.799 50.1196 139.272 50.1196 135.17C50.1196 131.684 48.23 129.941 44.4507 129.941H36.145V158H32.0801ZM70.8398 158V126.579H76.0034L87.5391 152.792L98.855 126.579H103.799V158H100.173V132.226L89.0112 158H85.8032L74.4653 132.226V158H70.8398ZM120.344 134.929C126.907 134.929 130.188 138.173 130.188 144.663C130.188 145.585 130.122 146.574 129.99 147.629H113.796C113.796 152.346 116.55 154.704 122.058 154.704C124.68 154.704 127.009 154.411 129.045 153.825V157.121C127.009 157.707 124.534 158 121.619 158C113.694 158 109.731 154.067 109.731 146.201C109.731 138.686 113.269 134.929 120.344 134.929ZM113.796 144.245H126.277C126.189 140.202 124.211 138.181 120.344 138.181C116.243 138.181 114.06 140.202 113.796 144.245ZM151.15 139.631C149.509 138.84 147.634 138.444 145.525 138.444C140.881 138.444 138.56 140.913 138.56 145.849C138.56 151.694 140.881 154.616 145.525 154.616C147.634 154.616 149.509 154.331 151.15 153.759V139.631ZM155.215 156.616C152.417 157.539 148.967 158 144.866 158C137.996 158 134.561 154.001 134.561 146.003C134.561 138.62 138.208 134.929 145.503 134.929C147.495 134.929 149.377 135.295 151.15 136.027V126.579H155.215V156.616ZM166.311 134.929V158H162.246V134.929H166.311ZM166.311 126.579V130.424H162.246V126.579H166.311ZM190.723 157.341C188.818 157.78 186.768 158 184.57 158C176.367 158 172.266 154.008 172.266 146.025C172.266 138.627 176.367 134.929 184.57 134.929C186.768 134.929 188.818 135.148 190.723 135.588V138.884C188.818 138.444 186.694 138.225 184.351 138.225C179.004 138.225 176.331 140.825 176.331 146.025C176.331 151.811 179.004 154.704 184.351 154.704C186.694 154.704 188.818 154.484 190.723 154.045V157.341ZM194.81 151.035C194.81 146.303 197.93 143.938 204.17 143.938C206.177 143.938 208.184 144.084 210.19 144.377V142.202C210.19 139.55 208.118 138.225 203.972 138.225C201.599 138.225 199.167 138.591 196.677 139.323V136.027C199.167 135.295 201.599 134.929 203.972 134.929C210.828 134.929 214.255 137.316 214.255 142.092V158H211.97L210.564 155.715C208.264 157.238 205.759 158 203.049 158C197.556 158 194.81 155.678 194.81 151.035ZM204.17 147.233C200.64 147.233 198.875 148.479 198.875 150.969C198.875 153.459 200.266 154.704 203.049 154.704C205.862 154.704 208.242 153.957 210.19 152.463V147.673C208.184 147.38 206.177 147.233 204.17 147.233ZM225.154 126.579V158H221.089V126.579H225.154ZM267.144 156.77C264.609 157.736 261.877 158.22 258.948 158.22C247.566 158.22 241.875 152.763 241.875 141.85C241.875 131.523 247.368 126.359 258.354 126.359C261.504 126.359 264.434 126.799 267.144 127.678V131.193C264.434 130.168 261.65 129.655 258.794 129.655C250.225 129.655 245.94 133.72 245.94 141.85C245.94 150.566 250.159 154.924 258.596 154.924C259.944 154.924 261.438 154.748 263.079 154.396V143.718H267.144V156.77ZM273.428 158V134.929H276.174L276.899 137.873C278.921 135.91 281.353 134.929 284.194 134.929V138.312C281.44 138.312 279.207 139.287 277.493 141.235V158H273.428ZM291.248 146.376C291.248 151.928 293.555 154.704 298.169 154.704C302.783 154.704 305.09 151.928 305.09 146.376C305.09 140.942 302.783 138.225 298.169 138.225C293.555 138.225 291.248 140.942 291.248 146.376ZM287.183 146.464C287.183 138.774 290.845 134.929 298.169 134.929C305.493 134.929 309.155 138.774 309.155 146.464C309.155 154.14 305.493 157.978 298.169 157.978C290.874 157.978 287.212 154.14 287.183 146.464ZM334.534 134.929V158H331.743L331.04 155.056C328.242 157.019 325.43 158 322.603 158C317.3 158 314.648 155.136 314.648 149.409V134.929H318.713V149.475C318.713 152.902 320.413 154.616 323.811 154.616C326.14 154.616 328.359 153.642 330.469 151.694V134.929H334.534ZM345.212 153.298C346.809 154.089 348.589 154.484 350.552 154.484C355.342 154.484 357.737 151.606 357.737 145.849C357.737 140.825 355.356 138.312 350.596 138.312C348.545 138.312 346.75 138.488 345.212 138.84V153.298ZM341.147 135.874C344.209 135.244 347.373 134.929 350.64 134.929C358.037 134.929 361.736 138.583 361.736 145.893C361.736 153.964 358.015 158 350.574 158C348.728 158 346.941 157.634 345.212 156.901V166.35H341.147V135.874Z" fill="#215A58"/>
</svg>
